<?xml version="1.0" encoding="utf-8"?>
<!-- Generator: Adobe Illustrator 22.0.1, SVG Export Plug-In . SVG Version: 6.00 Build 0)  -->
<svg version="1.1" id="Calque_1" xmlns="http://www.w3.org/2000/svg" xmlns:xlink="http://www.w3.org/1999/xlink" x="0px" y="0px"
	 viewBox="0 0 500 500" style="enable-background:new 0 0 500 500;" xml:space="preserve">
<style type="text/css">
	.st0{fill:#EBEBEB;}
	.st1{fill:#FAFAFA;}
	.st2{fill:#FFFFFF;}
	.st3{fill:#E0E0E0;}
	.st4{fill:#F0F0F0;}
	.st5{fill:#E6E6E6;}
	.st6{fill:#F5F5F5;}
	.st7{fill:#263238;}
	.st8{fill:#FFB573;}
	.st9{fill:#FF725E;}
	.st10{fill:#996234;}
	.st11{opacity:0.2;enable-background:new    ;}
	.st12{opacity:0.4;enable-background:new    ;}
	.st13{fill:#ED893E;}
	.st14{opacity:0.2;fill:#FF725E;enable-background:new    ;}
	.st15{clip-path:url(#SVGID_2_);}
	.st16{opacity:0.6;fill:#FFFFFF;enable-background:new    ;}
</style>
<g id="freepik--background-complete--inject-68">
	<rect y="382.4" class="st0" width="500" height="0.2"/>
	<rect x="416.8" y="398.5" class="st0" width="33.1" height="0.2"/>
	<rect x="322.5" y="401.2" class="st0" width="8.7" height="0.2"/>
	<rect x="396.6" y="389.2" class="st0" width="19.2" height="0.2"/>
	<rect x="52.5" y="390.9" class="st0" width="43.2" height="0.2"/>
	<rect x="104.6" y="390.9" class="st0" width="6.3" height="0.2"/>
	<rect x="131.5" y="395.1" class="st0" width="93.7" height="0.2"/>
	<path class="st0" d="M237,337.8H43.9c-3.1,0-5.7-2.6-5.7-5.7V60.7c0-3.1,2.6-5.7,5.7-5.7H237c3.2,0,5.7,2.6,5.7,5.7c0,0,0,0,0,0
		v271.4C242.7,335.2,240.2,337.8,237,337.8z M43.9,55.2c-3,0-5.5,2.4-5.5,5.5v271.4c0,3,2.4,5.5,5.5,5.5H237c3,0,5.5-2.4,5.5-5.5
		V60.7c0-3-2.4-5.5-5.5-5.5H43.9z"/>
	<path class="st0" d="M453.3,337.8H260.2c-3.2,0-5.7-2.6-5.7-5.7V60.7c0-3.1,2.6-5.7,5.7-5.7h193.1c3.1,0,5.7,2.5,5.7,5.7v271.4
		C459,335.2,456.5,337.8,453.3,337.8z M260.2,55.2c-3,0-5.5,2.4-5.5,5.5v271.4c0,3,2.4,5.5,5.5,5.5h193.1c3,0,5.5-2.4,5.5-5.5V60.7
		c0-3-2.4-5.5-5.5-5.5H260.2z"/>
	<rect x="81.9" y="72" class="st0" width="273.6" height="159.6"/>
	<rect x="89.4" y="80.4" class="st1" width="258.6" height="142.7"/>
	<polygon class="st2" points="133.3,223.2 111.8,223.2 132,80.4 153.4,80.4 	"/>
	<polygon class="st2" points="186.2,223.2 164.8,223.2 184.9,80.4 206.3,80.4 	"/>
	<polygon class="st2" points="309,223.2 298.2,223.2 318.4,80.4 329.1,80.4 	"/>
	<polygon class="st2" points="205,223.2 194.3,223.2 214.4,80.4 225.1,80.4 	"/>
	<rect x="147.7" y="80.4" class="st0" width="10.1" height="142.7"/>
	<rect x="157.7" y="80.4" class="st3" width="2.2" height="142.7"/>
	<rect x="355.5" y="72" class="st3" width="1.6" height="159.6"/>
	<path class="st4" d="M410.4,289.5c-2.7-29.5-4.5-77.3-3.1-93.3c0-0.5,0.3-1,0.8-1.4l0,0c0.8-0.6,2-0.4,2.6,0.4
		c0.3,0.4,0.4,0.8,0.4,1.3c-0.2,7.9-0.5,27.7,1,61.9c0.8,17,1.9,28.7,1.1,31.1H410.4z"/>
	<path class="st4" d="M402.2,228.5c-6.4-8-19.4-13.7-32.6-13.6c-5.2,0,15.8,9.3,24.6,19.5c6.8,7.9,14.5,21.3,17.1,28.8
		C409.5,247.5,408.6,236.5,402.2,228.5z"/>
	<path class="st4" d="M415.5,228.4c6.3-8.8,20.9-15.5,36.6-16.3c6.2-0.3-17.3,10.7-26.1,22c-6.8,8.8-13.8,23.3-15.7,31.3
		C409.8,248.9,409.2,237.2,415.5,228.4z"/>
	<path class="st4" d="M402.2,241.3c-6.4-8-19.4-13.7-32.6-13.6c-5.2,0,15.8,9.3,24.6,19.5c6.8,8,14.5,21.3,17.1,28.8
		C409.5,260.3,408.6,249.3,402.2,241.3z"/>
	<path class="st4" d="M415.5,241.9c6.3-8.8,20.9-15.5,36.6-16.3c6.2-0.3-17.3,10.7-26.1,22c-6.8,8.8-13.8,23.3-15.7,31.3
		C409.8,262.4,409.2,250.7,415.5,241.9z"/>
	<path class="st4" d="M403.3,198.3c-4.2-5.9-13.1-10.6-22.4-11.2c-3.7-0.2,10.8,7.3,16.5,14.9c4.5,5.9,9.4,15.7,10.9,21.1
		C407.8,212.1,407.5,204.2,403.3,198.3z"/>
	<path class="st4" d="M411.6,200.8c4.4-6.2,14.7-10.9,25.8-11.5c4.4-0.2-12.2,7.6-18.4,15.5c-4.8,6.2-9.7,16.4-11.1,22
		C407.6,215.2,407.2,207,411.6,200.8z"/>
	<path class="st4" d="M401.9,206c-5.4-6.8-16.4-11.6-27.6-11.5c-4.4,0,13.4,7.9,20.8,16.5c5.8,6.7,12.2,18.1,14.5,24.4
		C408.1,222.1,407.3,212.8,401.9,206z"/>
	<path class="st4" d="M412.9,209.6c5.3-7.4,17.7-13.2,31-13.8c5.2-0.3-14.7,9.1-22.1,18.6c-5.8,7.4-11.7,19.7-13.3,26.5
		C408,226.9,407.5,217,412.9,209.6z"/>
	<path class="st4" d="M401.5,215.4c-5.8-7.3-17.7-12.5-29.8-12.5c-4.8,0,14.5,8.5,22.5,17.8c6.2,7.3,13.2,19.5,15.6,26.3
		C408.2,232.8,407.4,222.7,401.5,215.4z"/>
	<path class="st4" d="M413.7,219.4c5.9-8.2,19.6-14.6,34.4-15.3c5.8-0.3-16.3,10.1-24.6,20.7c-6.4,8.2-13,21.9-14.8,29.4
		C408.3,238.6,407.8,227.6,413.7,219.4z"/>
	<path class="st5" d="M428.3,284.5l-1,8.3c-0.1,1.9-1.6,3.3-3.5,3.3h-24.7c-1.9,0-3.4-1.4-3.5-3.3l-1-8.3c-0.1-1.9,1.4-3.6,3.3-3.7
		c0.1,0,0.1,0,0.2,0h26.7c1.9,0,3.5,1.5,3.5,3.5C428.3,284.4,428.3,284.5,428.3,284.5z"/>
	<path class="st6" d="M429.8,286.3h-36.6c-0.5,0-0.9-0.4-1-0.9l-0.9-7.9c-0.1-0.6,0.3-1.1,0.9-1.2c0,0,0.1,0,0.1,0h38.4
		c0.6,0,1,0.5,1,1.1c0,0,0,0.1,0,0.1l-0.9,7.9C430.7,285.9,430.3,286.3,429.8,286.3z"/>
	<rect x="236.7" y="296.1" class="st5" width="15.9" height="86.3"/>
	<polygon class="st4" points="241.5,382.4 236.7,382.4 236.7,365.9 246.5,365.9 	"/>
	<rect x="434.9" y="296.1" class="st5" width="15.9" height="86.3"/>
	<rect x="236.7" y="296.1" class="st4" width="202.4" height="76.1"/>
	<polygon class="st4" points="434.3,382.4 439.1,382.4 439.1,365.9 429.3,365.9 	"/>
	<rect x="240.4" y="301.5" class="st5" width="195" height="30.5"/>
	<path class="st4" d="M269,310.9h134.6c4.6,0,9.1-3.8,12.3-10.4H256.7C259.9,307.2,264.3,310.9,269,310.9z"/>
	<rect x="240.4" y="336.9" class="st5" width="195" height="30.5"/>
	<path class="st4" d="M269,346.3h134.6c4.6,0,9.1-3.8,12.3-10.4H256.7C259.9,342.6,264.3,346.3,269,346.3z"/>
	<path class="st6" d="M284.7,275.9c0,0,0.9,20.2,34.2,20.2s34.2-20.2,34.2-20.2H284.7z"/>
	<path class="st6" d="M284.7,265.4c0,0,0.9,20.2,34.2,20.2s34.2-20.2,34.2-20.2H284.7z"/>
	<rect x="158.1" y="316.8" class="st5" width="33.3" height="5.7"/>
	<rect x="95.3" y="251.3" class="st5" width="6.1" height="131.1"/>
	<rect x="74.1" y="316.8" class="st6" width="84.1" height="5.7"/>
	<rect x="158.1" y="348" class="st5" width="33.3" height="5.7"/>
	<rect x="74.1" y="347.9" class="st6" width="84.1" height="5.7"/>
	<rect x="158.1" y="254.4" class="st5" width="33.3" height="5.7"/>
	<rect x="74.1" y="254.4" class="st6" width="84.1" height="5.7"/>
	<rect x="158.1" y="285.6" class="st5" width="33.3" height="5.7"/>
	<rect x="74.1" y="285.6" class="st6" width="84.1" height="5.7"/>
	<rect x="179.4" y="251.3" class="st5" width="6.1" height="131.1"/>
	<rect x="152" y="251.3" class="st6" width="6.1" height="131.1"/>
	<rect x="74.1" y="251.3" class="st6" width="6.1" height="131.1"/>
</g>
<g id="freepik--Shadow--inject-68">
	<ellipse id="freepik--path--inject-68" class="st6" cx="250" cy="416.2" rx="193.9" ry="11.3"/>
</g>
<g id="freepik--Character--inject-68">
	<path class="st7" d="M208.4,140.4c1.1-3.3,10.5-11.5,22.1-7.3s9,20.4,7.7,24.6s-8.7,16.6-17.4,14S194.5,150.1,208.4,140.4z"/>
	<path class="st7" d="M233.9,153.1c0.8-2.4,7.7-8.4,16.3-5.4s6.6,15.1,5.7,18.1s-6.4,12.2-12.8,10.3S223.7,160.3,233.9,153.1z"/>
	<path class="st7" d="M244.3,143.5l-5.9,8.1C238.4,151.6,235.4,144.9,244.3,143.5z"/>
	<path class="st7" d="M228.2,166.7c-1.6-1.6-9.6-3.4-15.1,2.6s1.1,14.7,3.1,16.7s10.2,6.9,14.4,2.7S239.3,168,228.2,166.7z"/>
	<path class="st8" d="M225.7,196l-0.2,0.6l-0.2,0.5c-0.1,0.3-0.3,0.6-0.4,0.9c-0.3,0.6-0.6,1.2-0.9,1.8c-0.6,1.2-1.2,2.3-1.9,3.4
		c-1.4,2.2-2.8,4.3-4.5,6.4c-0.8,1-1.7,2-2.5,3s-1.8,1.9-2.7,2.8c-1.9,1.8-3.8,3.5-5.9,5c-0.3,0.2-0.4,0.3-1.1,0.8
		c-0.7,0.4-1.5,0.7-2.3,0.9c-0.9,0.2-1.9,0.1-2.8-0.1c-0.7-0.2-1.4-0.6-2.1-1c-0.8-0.6-1.6-1.4-2.2-2.2c-0.5-0.6-0.9-1.3-1.2-2
		c-1.2-2.4-2.1-4.9-2.7-7.5c-1.2-4.8-2-9.8-2.4-14.7l4.6-0.8c1.4,4.5,2.9,9.1,4.6,13.4c0.8,2,1.7,4,2.8,5.8c0.2,0.4,0.5,0.7,0.8,1
		c0.2,0.2,0.4,0.4,0.4,0.3c-0.1-0.1-0.3-0.2-0.4-0.2c-0.3-0.1-0.7-0.1-1-0.1c-0.2,0-0.4,0.1-0.6,0.2c-0.2,0.1,0.2-0.2,0.3-0.3
		c3.4-2.9,6.4-6.2,9.1-9.8c1.3-1.8,2.6-3.6,3.7-5.6c0.6-0.9,1.1-1.9,1.6-2.9l0.7-1.4l0.3-0.7l0.3-0.6L225.7,196z"/>
	<path class="st9" d="M225.2,182.1c-7.8,3.6-10.9,13.5-11.1,14.1l9.7,17.6c0,0,9.4-6.7,10.2-12.9
		C234.7,195.8,230.4,179.8,225.2,182.1z"/>
	<path class="st8" d="M194.7,194.7l2.5-7.4l-9.3,2c0,0-0.2,6.4,2.8,8.8l1.6-0.7C193.4,196.9,194.3,195.9,194.7,194.7z"/>
	<polygon class="st8" points="194.8,179.4 188.2,182.1 187.8,189.3 197.1,187.3 	"/>
	<path class="st8" d="M265.8,120.2l-6.5-7.4l-3,9c0,0,5.1,4.4,9.2,0.6L265.8,120.2z"/>
	<polygon class="st8" points="255.6,109.3 251,115.6 256.3,121.9 259.3,112.8 	"/>
	<polygon class="st10" points="345.7,387.7 339.1,393.7 320.6,381.4 327.2,375.4 	"/>
	<polygon class="st10" points="411.5,307 411.1,316.1 389.9,318.1 390.3,309 	"/>
	<path class="st7" d="M411.9,316.5l-2.5-9.9c-0.1-0.4,0.1-0.7,0.4-0.9l7.6-3.1c0.8-0.3,1.6,0.1,1.9,0.9c0,0,0,0.1,0,0.1
		c0.8,3.5,1,5.2,2.1,9.6c0.7,2.7,2.5,8.5,3.5,12.2s-2.7,4.8-3.4,3.4c-3.2-6.6-6.2-9.1-8.7-11C412.4,317.5,412.1,317.1,411.9,316.5z"
		/>
	<path class="st7" d="M339.1,395l4.5-9.9c0.2-0.4,0.6-0.6,1-0.5l8.8,1.4c0.7,0.1,1.2,0.8,1.1,1.6c0,0.1-0.1,0.2-0.1,0.4
		c-1.6,3.4-2.6,5-4.5,9.4c-1.2,2.7-4.9,11.5-6.5,15.2s-5.6,2.7-5.3,1.1c1.5-7.4,2-13.9,1-16.9C338.8,396.1,338.9,395.5,339.1,395z"
		/>
	<polygon class="st11" points="320.6,381.4 330.4,388 336.8,381.8 327.2,375.4 	"/>
	<polygon class="st11" points="390.3,309 389.9,318.1 400.9,317.1 401.3,308 	"/>
	<path class="st9" d="M219.8,187c0,0,4.1,20.2,24.5,38c2.6,2.2,2.1,8,5.6,7.5c12.4-7.8,25.2-15.6,31.2-19.4c0.1-6.9-4.6-5.8-5.7-9.5
		c-2.7-8.8-10-18.7-17.5-40.4c-5,1.9-9.8,4.1-14.4,6.6c-4.9,2.7-9.7,5.7-14.2,9C226,181.4,222.8,184.1,219.8,187z"/>
	<path class="st8" d="M232,154.8c2,5.1,6.4,14.1,11.5,15.1c0,0,3.1,14.8-3,23c-9.6-1.6-11.2-14.1-11.2-14.1
		c4.3-4.4,1.8-8.1-1.3-11.1L232,154.8z"/>
	<path class="st7" d="M234.6,193.7c-1.1,0-2.1-0.5-2.8-1.3c-1.9-1.9-1.2-4.8-0.5-7.9s1.4-6.2,0-8.9c-0.1-0.1,0-0.3,0.1-0.4
		c0.1-0.1,0.3,0,0.4,0.1c1.5,2.9,0.7,6.3,0.1,9.3s-1.2,5.7,0.4,7.4c1.1,1.4,3.2,1.6,4.5,0.4c0,0,0.1-0.1,0.1-0.1
		c3.3-2.4,5.4-9.3,3-13.5c-2.2-4,0-7.5,1-9.1c0.2-0.3,0.3-0.6,0.5-0.9c0-0.1,0.1-0.3,0.2-0.3c0,0,0,0,0,0c0.2,0,0.3,0.1,0.3,0.2
		c0,0,0,0,0,0c0.1,0.3-0.1,0.6-0.5,1.2c-1.1,1.7-3.1,4.9-1,8.6c2.4,4.4,0.2,11.7-3.2,14.2C236.4,193.3,235.5,193.6,234.6,193.7z"/>
	<path class="st11" d="M230.4,160l-2.4,7.7c0.7,0.7,1.4,1.4,2,2.2c1.8-1.5,3.6-5.1,2.5-7.3C232,161.7,231.2,160.8,230.4,160z"/>
	<path class="st8" d="M231.6,144.4c2.8,8.6,4.1,12.2,1.6,18.2c-3.9,9-15,10.5-20.3,2.9c-4.8-6.9-8.5-19.8-1.6-26.4
		c4.9-4.7,12.7-4.5,17.4,0.4C230,140.9,231,142.6,231.6,144.4z"/>
	<path class="st7" d="M213.7,142.3c0.6,4.7,10.7,10.1,20.1,7.9c6.6-1.6,1.5-13.1-6.3-15.1S212.7,134.6,213.7,142.3z"/>
	<path class="st7" d="M218.1,142.3l-19.8,2.5C198.2,144.7,203.8,131.4,218.1,142.3z"/>
	<path class="st7" d="M216.8,142l-16.1,7C200.7,149,202.1,136.3,216.8,142z"/>
	<path class="st7" d="M215.1,142l-4.5,6.4C210.6,148.4,208.2,143.3,215.1,142z"/>
	<path class="st7" d="M217.6,142l-16.6-3.9C201,138.1,209.4,129.1,217.6,142z"/>
	<path class="st7" d="M215.9,142.4l-7.8-9.6C208.1,132.7,217,131.3,215.9,142.4z"/>
	<path class="st8" d="M235.9,151.5c0.5,1.7,0.2,3.5-0.6,5c-1.2,2-3.4,1.4-4.4-0.6c-0.9-1.8-1.4-4.9,0.4-6.2c1.4-0.9,3.2-0.6,4.2,0.8
		C235.6,150.7,235.8,151.1,235.9,151.5z"/>
	<path class="st7" d="M250.6,233.2c0,0,4,81.2,19.3,104.4c16,24.1,55.3,49.9,55.3,49.9l11-9.3c0,0-37-35-45.2-55.4
		c-11.3-28.1-13.4-106.7-13.4-106.7L250.6,233.2z"/>
	<polygon class="st9" points="337.2,377.5 324.9,388.8 318.7,385.4 331.7,372.3 	"/>
	<path class="st11" d="M268.9,234.9c-0.1,9.6,5.4,22.5,12.3,30.8c-0.8-7.6-1.4-15-1.9-21.6C275.8,240.1,272.2,236.7,268.9,234.9z"/>
	<path class="st7" d="M258.9,228c0,0,37.9,50.1,61.4,77c19,21.7,77.7,14.4,77.7,14.4v-12.6c0,0-42.1,1-55.2-13.6
		c-41.6-47-42-72.1-60.9-79.7L258.9,228z"/>
	<polygon class="st9" points="398.2,304.8 398.2,322.1 390.1,324.4 390.4,304.9 	"/>
	<path class="st9" d="M281.2,211.3l3.2,1.9c0.2,0.1,0.1,0.5-0.2,0.8l-32.8,20.7c-0.3,0.2-0.6,0.2-0.7,0l-2-2.6
		c-0.1-0.2,0-0.5,0.3-0.7l31.7-20C280.8,211.3,281,211.3,281.2,211.3z"/>
	<path class="st12" d="M281.2,211.3l3.2,1.9c0.2,0.1,0.1,0.5-0.2,0.8l-32.8,20.7c-0.3,0.2-0.6,0.2-0.7,0l-2-2.6
		c-0.1-0.2,0-0.5,0.3-0.7l31.7-20C280.8,211.3,281,211.3,281.2,211.3z"/>
	<path class="st7" d="M279.2,217.6l0.9-0.5c0.2-0.1,0.2-0.3,0.2-0.4l-2.7-3.4c-0.1-0.1-0.3-0.1-0.5,0l-0.9,0.5
		c-0.2,0.1-0.2,0.3-0.2,0.4l2.7,3.4C278.9,217.7,279.1,217.7,279.2,217.6z"/>
	<path class="st7" d="M253.9,233.5l0.8-0.5c0.2-0.1,0.2-0.3,0.2-0.4l-2.7-3.4c-0.1-0.1-0.3-0.1-0.4,0l-0.9,0.5
		c-0.2,0.1-0.2,0.3-0.2,0.4l2.7,3.4C253.6,233.6,253.8,233.6,253.9,233.5z"/>
	<path class="st7" d="M266.6,225.6l0.9-0.5c0.2-0.1,0.2-0.3,0.2-0.4l-2.7-3.4c-0.1-0.1-0.3-0.1-0.5,0l-0.9,0.5
		c-0.2,0.1-0.2,0.3-0.2,0.4l2.7,3.4C266.2,225.7,266.4,225.7,266.6,225.6z"/>
	<path class="st7" d="M219.7,151.7c0.3,0.7,0.1,1.4-0.3,1.6s-1-0.2-1.3-0.9s-0.1-1.4,0.3-1.6S219.5,151.1,219.7,151.7z"/>
	<path class="st7" d="M212,154.8c0.3,0.7,0.1,1.4-0.3,1.6s-1-0.2-1.3-0.9s-0.1-1.4,0.3-1.6S211.7,154.1,212,154.8z"/>
	<path class="st7" d="M210.9,153.8l-1.8,0.2C209.1,154,210.4,154.9,210.9,153.8z"/>
	<path class="st13" d="M214.5,155.1c0,1.8-0.2,3.6-0.7,5.3c0.9,0.2,1.9,0,2.6-0.5L214.5,155.1z"/>
	<path class="st7" d="M219.8,161.7c-0.1,0-0.2,0-0.2-0.1c0-0.1,0-0.2,0.1-0.3c0,0,0,0,0,0c1.7-0.6,3.1-2.1,3.6-3.9
		c0-0.1,0.1-0.2,0.2-0.2c0.1,0,0.2,0.1,0.2,0.2c0,0,0,0,0,0C223.2,159.5,221.7,161.1,219.8,161.7L219.8,161.7z"/>
	<path class="st7" d="M220.1,149c-0.1,0-0.2,0-0.3,0c-1-0.5-2.1-0.5-3.1-0.1c-0.2,0.1-0.5,0-0.6-0.2c0,0,0,0,0,0
		c-0.1-0.2,0-0.5,0.1-0.6c1.2-0.6,2.7-0.6,3.9,0c0.2,0.1,0.3,0.4,0.2,0.6C220.3,148.9,220.2,149,220.1,149z"/>
	<path class="st7" d="M207,152.6c-0.1,0-0.1,0-0.2,0c-0.2,0-0.4-0.3-0.3-0.5c0.3-1.4,1.2-2.5,2.5-3.1c0.2-0.1,0.5,0,0.5,0.2
		c0,0,0,0,0,0c0.1,0.2,0,0.4-0.2,0.5c0,0,0,0,0,0c-1,0.5-1.7,1.4-1.9,2.5C207.3,152.4,207.2,152.6,207,152.6z"/>
	<path class="st8" d="M261.9,162l0.5-0.3l0.7-0.4c0.5-0.2,1-0.5,1.5-0.8c1-0.6,2-1.2,2.9-1.9c2-1.4,3.8-3,5.5-4.7
		c1.7-1.7,3.4-3.5,4.9-5.4l1.1-1.5l0.6-0.7l0.1-0.1l0,0l0,0c0,0,0-0.1,0.1-0.1c0.2-0.4,0.3-0.9,0.1-1.3c-0.2-0.9-0.5-1.8-0.9-2.6
		c-0.5-1-1.1-2-1.8-2.9c-1.4-2-3-3.9-4.7-5.7c-3.5-3.7-7.3-7.3-11.2-10.6l2.6-3.8c4.7,2.8,9.1,6,13.2,9.6c2.1,1.8,4.1,3.8,6,6
		c1,1.1,1.9,2.4,2.7,3.7c0.9,1.5,1.6,3.1,2,4.7c0.2,1,0.4,2,0.3,3.1c-0.1,1.2-0.3,2.3-0.8,3.4c-0.1,0.3-0.2,0.5-0.4,0.8l-0.2,0.4
		l-0.2,0.3l-0.6,0.9l-1.1,1.8c-1.6,2.3-3.4,4.6-5.4,6.6c-2,2.1-4.2,4-6.5,5.8c-1.2,0.9-2.4,1.7-3.7,2.4c-0.6,0.4-1.3,0.7-2,1.1
		l-1.1,0.5c-0.4,0.2-0.7,0.3-1.3,0.5L261.9,162z"/>
	<path class="st9" d="M248.4,167.3c4.4-4.8,18.6-9.4,18.6-9.4l4.5,23.2c0,0-4.9,4.9-10.9,3.2C255.6,182.9,242.1,174.2,248.4,167.3z"
		/>
	<path class="st9" d="M411,321.3c-0.2,0.2-0.5,0.3-0.8,0.3c-0.3,0-0.5-0.1-0.7-0.3c-0.7-0.9,0.4-4,0.5-4.4c0-0.1,0.1-0.1,0.2-0.1
		c0.1,0,0.2,0,0.2,0.1c0.5,1.1,1.4,3,0.9,4.1C411.2,321.1,411.1,321.2,411,321.3z M410.2,317.6c-0.4,1.3-0.8,3-0.4,3.5
		c0.1,0.1,0.2,0.1,0.3,0.1c0.3,0,0.6-0.2,0.7-0.4C411.1,320.2,410.9,319,410.2,317.6L410.2,317.6z"/>
	<path class="st9" d="M408.7,319.5c-0.3,0.4-0.7,0.6-1.2,0.7c-0.4,0-0.7-0.2-0.8-0.6c-0.1-0.3-0.1-0.7,0.1-1
		c0.6-1.2,3.1-1.8,3.3-1.8c0.1,0,0.2,0,0.2,0.1c0.1,0.1,0.1,0.1,0,0.2C410,318,409.5,318.8,408.7,319.5z M407.5,318.5
		c-0.1,0.1-0.2,0.2-0.3,0.4c-0.1,0.2-0.1,0.4,0,0.6c0.1,0.3,0.2,0.3,0.3,0.3c0.6,0,1.8-1.4,2.3-2.4C409,317.6,408.2,318,407.5,318.5
		z"/>
	<path class="st9" d="M335.8,398.1c-0.3,0.7-0.7,1.3-1.3,1.7c-0.4,0.2-0.8,0.2-1.2,0.1c-0.2-0.1-0.4-0.3-0.4-0.5
		c-0.2-1.2,2.8-3.8,3.5-4.4c0.1,0,0.2,0,0.2,0c0.1,0,0.1,0.1,0.1,0.2C336.5,396.2,336.2,397.2,335.8,398.1z M333.4,398.9
		c-0.1,0.1-0.1,0.3-0.1,0.4c0,0.1,0,0.1,0.1,0.2c0.3,0.1,0.6,0.1,0.8,0c0.7-0.4,1.4-1.7,1.8-3.6C335,396.7,334.1,397.7,333.4,398.9z
		"/>
	<path class="st9" d="M336.6,395.3L336.6,395.3c-1,1-3.8,2.4-4.7,1.9c-0.2-0.1-0.4-0.4-0.2-0.9c0.6-2,4.6-1.3,4.8-1.2
		c0.1,0,0.1,0.1,0.2,0.1C336.7,395.2,336.7,395.2,336.6,395.3z M332.2,396.2c0,0,0,0.1,0,0.1c-0.1,0.2-0.1,0.4,0,0.4
		c0.5,0.3,2.6-0.6,3.8-1.5C335,395.2,332.7,395.1,332.2,396.2L332.2,396.2z"/>
	<path class="st7" d="M218.6,150.8l-1.8,0.2C216.8,150.9,218.2,151.9,218.6,150.8z"/>
	<path class="st9" d="M184.2,90.6h110.7c15.4,0,27.9,12.5,27.9,27.8v269.9c0,15.4-12.5,27.9-27.9,27.9H184.2
		c-15.4,0-27.9-12.5-27.9-27.9V118.5C156.4,103.1,168.8,90.6,184.2,90.6z"/>
	<path class="st11" d="M184.2,90.6h110.7c15.4,0,27.9,12.5,27.9,27.8v269.9c0,15.4-12.5,27.9-27.9,27.9H184.2
		c-15.4,0-27.9-12.5-27.9-27.9V118.5C156.4,103.1,168.8,90.6,184.2,90.6z"/>
	<path class="st9" d="M297.4,143.1h19.9c4.3,0,7.7,3.4,7.7,7.7v28c0,4.3-3.4,7.7-7.7,7.7h-19.9c-4.3,0-7.7-3.4-7.7-7.7v-28
		C289.7,146.6,293.1,143.1,297.4,143.1z"/>
	<path class="st11" d="M297.4,143.1h19.9c4.3,0,7.7,3.4,7.7,7.7v28c0,4.3-3.4,7.7-7.7,7.7h-19.9c-4.3,0-7.7-3.4-7.7-7.7v-28
		C289.7,146.6,293.1,143.1,297.4,143.1z"/>
	<path class="st9" d="M160.7,143.1h19.9c4.3,0,7.7,3.4,7.7,7.7v41.9c0,4.3-3.4,7.7-7.7,7.7h-19.9c-4.3,0-7.7-3.4-7.7-7.7v-41.9
		C153,146.6,156.5,143.1,160.7,143.1z"/>
	<path class="st11" d="M160.7,143.1h19.9c4.3,0,7.7,3.4,7.7,7.7v41.9c0,4.3-3.4,7.7-7.7,7.7h-19.9c-4.3,0-7.7-3.4-7.7-7.7v-41.9
		C153,146.6,156.5,143.1,160.7,143.1z"/>
	<path class="st9" d="M297.4,189.7h19.9c4.3,0,7.7,3.4,7.7,7.7v28c0,4.3-3.4,7.7-7.7,7.7h-19.9c-4.3,0-7.7-3.4-7.7-7.7v-28
		C289.7,193.1,293.1,189.7,297.4,189.7z"/>
	<path class="st11" d="M297.4,189.7h19.9c4.3,0,7.7,3.4,7.7,7.7v28c0,4.3-3.4,7.7-7.7,7.7h-19.9c-4.3,0-7.7-3.4-7.7-7.7v-28
		C289.7,193.1,293.1,189.7,297.4,189.7z"/>
	<path class="st9" d="M182.6,90.6h110.7c15.4,0,27.9,12.5,27.9,27.8v269.9c0,15.4-12.5,27.9-27.9,27.9H182.6
		c-15.4,0-27.9-12.5-27.9-27.9V118.5C154.8,103.1,167.3,90.6,182.6,90.6z"/>
	<path class="st2" d="M317.9,118.5v269.9c0,13.5-11,24.5-24.5,24.5H182.6c-13.5,0-24.5-11-24.5-24.5V118.5c0-13.5,11-24.5,24.5-24.5
		h110.7C306.9,93.9,317.9,104.9,317.9,118.5z"/>
	<path class="st9" d="M292.1,102.6h11.2c0.9,0,1.7,0.8,1.7,1.7v4.9c0,0.9-0.8,1.7-1.7,1.7h-11.2c-0.9,0-1.7-0.8-1.7-1.7v-4.9
		C290.4,103.4,291.1,102.6,292.1,102.6z"/>
	<path class="st14" d="M172.6,102.6h15c1.1,0,1.9,0.9,1.9,1.9v4.4c0,1.1-0.9,1.9-1.9,1.9h-15c-1.1,0-1.9-0.9-1.9-1.9v-4.4
		C170.7,103.5,171.5,102.6,172.6,102.6z"/>
	<path class="st9" d="M289.2,104.1h1.8c0.3,0,0.6,0.3,0.6,0.6v4.2c0,0.3-0.3,0.6-0.6,0.6h-1.8c-0.3,0-0.6-0.3-0.6-0.6v-4.2
		C288.6,104.3,288.9,104.1,289.2,104.1z"/>
	<path class="st2" d="M301.2,104.1h1.8c0.3,0,0.6,0.3,0.6,0.6v4.2c0,0.3-0.3,0.6-0.6,0.6h-1.8c-0.3,0-0.6-0.3-0.6-0.6v-4.2
		C300.6,104.3,300.8,104.1,301.2,104.1z"/>
	<path class="st2" d="M297.4,104.1h1.8c0.3,0,0.6,0.3,0.6,0.6v4.2c0,0.3-0.3,0.6-0.6,0.6h-1.8c-0.3,0-0.6-0.3-0.6-0.6v-4.2
		C296.8,104.3,297,104.1,297.4,104.1z"/>
	<path class="st14" d="M175.4,119.7h125.2c2.4,0,4.4,2,4.4,4.4v152.8c0,2.4-2,4.4-4.4,4.4H175.4c-2.4,0-4.4-2-4.4-4.4V124.1
		C171,121.7,173,119.7,175.4,119.7L175.4,119.7L175.4,119.7z"/>
	<g>
		<defs>
			<path id="SVGID_1_" d="M175.4,119.7h125.2c2.4,0,4.4,2,4.4,4.4v152.8c0,2.4-2,4.4-4.4,4.4H175.4c-2.4,0-4.4-2-4.4-4.4V124.1
				C171,121.7,173,119.7,175.4,119.7L175.4,119.7L175.4,119.7z"/>
		</defs>
		<clipPath id="SVGID_2_">
			<use xlink:href="#SVGID_1_"  style="overflow:visible;"/>
		</clipPath>
		<g class="st15">
			<path class="st16" d="M271,137.2c3.5-4.5,8-7.6,11.4-7.6c1.9-0.1,3.6,1.4,3.7,3.3c1.3-1.1,2.8-1.7,4.4-1.9c2.3,0,3.1,2.1,2.3,5.2
				c1.2-0.6,2.5-1,3.9-1.2c2.3-0.1,3.7,1.1,3.8,3.1c0.5-0.3,1.1-0.5,1.6-0.6c1.4-0.1,1.7,1.2,0.8,2.8l-0.2,0.3h-37.2
				C266.1,139,269.4,137.2,271,137.2z"/>
			<path class="st16" d="M200.2,221.5c8.7-11.2,20.2-19.2,28.6-19.2c5.3,0,8.5,3.1,9.3,8.2c3.9-2.9,7.8-4.6,11.1-4.6
				c5.8,0,7.9,5.4,5.8,13c3-1.6,6.3-2.6,9.7-2.9c5.9-0.3,9.2,2.8,9.5,7.8c1.2-0.8,2.7-1.3,4.1-1.5c3.4-0.2,4.3,2.9,2,7
				c-0.1,0.3-0.3,0.5-0.4,0.8h-93.4C187.9,226.1,196,221.7,200.2,221.5z"/>
			<path class="st16" d="M259.7,181.6c0.3,0,0.6-0.1,0.9-0.1c4.5-4.4,9.1-7.2,12.4-7.2c2.4,0,3.6,1.5,3.9,4
				c8.5-8.6,17.3-14.1,23.4-14.1c4.9,0,7.2,3.6,7,9.5c4.2-3.4,8.2-5.4,11.3-5.4c5.4,0,6.2,6.2,2.7,15l0,0c2.9-1.8,6.2-2.9,9.6-3.4
				c5.5-0.4,8,3.2,7.2,9c1.2-0.9,2.6-1.5,4.1-1.7c3-0.2,3.4,3,0.9,7.3H241.1C245.8,188.1,254,182.4,259.7,181.6z"/>
			<path class="st16" d="M168.3,155c0.2,0,0.3,0,0.5,0c2.4-2.4,4.9-3.9,6.6-3.9c1.3,0,1.9,0.8,2.1,2.1c4.5-4.6,9.2-7.5,12.5-7.5
				c2.6,0,3.9,1.9,3.7,5.1c2.2-1.8,4.4-2.9,6-2.9c2.9,0,3.3,3.3,1.4,8l0,0c1.6-1,3.3-1.6,5.1-1.8c2.9-0.2,4.2,1.7,3.9,4.8
				c0.7-0.5,1.4-0.8,2.2-0.9c1.6-0.1,1.8,1.6,0.5,3.9h-54.4C160.9,158.4,165.2,155.4,168.3,155z"/>
			<path class="st7" d="M208.4,140.4c1.1-3.3,10.5-11.5,22.1-7.3s9,20.4,7.7,24.6s-8.7,16.6-17.4,14S194.5,150.1,208.4,140.4z"/>
			<path class="st7" d="M233.9,153.1c0.8-2.4,7.7-8.4,16.3-5.4s6.6,15.1,5.7,18.1s-6.4,12.2-12.8,10.3S223.7,160.3,233.9,153.1z"/>
			<path class="st7" d="M244.3,143.5l-5.9,8.1C238.4,151.6,235.4,144.9,244.3,143.5z"/>
			<path class="st7" d="M228.2,166.7c-1.6-1.6-9.6-3.4-15.1,2.6s1.1,14.7,3.1,16.7s10.2,6.9,14.4,2.7S239.3,168,228.2,166.7z"/>
			<path class="st10" d="M225.7,196l-0.2,0.6l-0.2,0.5c-0.1,0.3-0.3,0.6-0.4,0.9c-0.3,0.6-0.6,1.2-0.9,1.8c-0.6,1.2-1.2,2.3-1.9,3.4
				c-1.4,2.2-2.8,4.3-4.5,6.4c-0.8,1-1.7,2-2.5,3s-1.8,1.9-2.7,2.8c-1.9,1.8-3.8,3.5-5.9,5c-0.3,0.2-0.4,0.3-1.1,0.8
				c-0.7,0.4-1.5,0.7-2.3,0.9c-0.9,0.2-1.9,0.1-2.8-0.1c-0.7-0.2-1.4-0.6-2.1-1c-0.8-0.6-1.6-1.4-2.2-2.2c-0.5-0.6-0.9-1.3-1.2-2
				c-1.2-2.4-2.1-4.9-2.7-7.5c-1.2-4.8-2-9.8-2.4-14.7l4.6-0.8c1.4,4.5,2.9,9.1,4.6,13.4c0.8,2,1.7,4,2.8,5.8c0.2,0.4,0.5,0.7,0.8,1
				c0.2,0.2,0.4,0.4,0.4,0.3c-0.1-0.1-0.3-0.2-0.4-0.2c-0.3-0.1-0.7-0.1-1-0.1c-0.2,0-0.4,0.1-0.6,0.2c-0.2,0.1,0.2-0.2,0.3-0.3
				c3.4-2.9,6.4-6.2,9.1-9.8c1.3-1.8,2.6-3.6,3.7-5.6c0.6-0.9,1.1-1.9,1.6-2.9l0.7-1.4l0.3-0.7l0.3-0.6L225.7,196z"/>
			<path class="st9" d="M225.2,182.1c-7.8,3.6-10.9,13.5-11.1,14.1l9.7,17.6c0,0,9.4-6.7,10.2-12.9
				C234.7,195.8,230.4,179.8,225.2,182.1z"/>
			<path class="st10" d="M194.7,194.7l2.5-7.4l-9.3,2c0,0-0.2,6.4,2.8,8.8l1.6-0.7C193.4,196.9,194.3,195.9,194.7,194.7z"/>
			<polygon class="st10" points="194.8,179.4 188.2,182.1 187.8,189.3 197.1,187.3 			"/>
			<path class="st10" d="M265.8,120.2l-6.5-7.4l-3,9c0,0,5.1,4.4,9.2,0.6L265.8,120.2z"/>
			<polygon class="st10" points="255.6,109.3 251,115.6 256.3,121.9 259.3,112.8 			"/>
			<polygon class="st8" points="345.7,387.7 339.1,393.7 320.6,381.4 327.2,375.4 			"/>
			<polygon class="st8" points="411.5,307 411.1,316.1 389.9,318.1 390.3,309 			"/>
			<path class="st7" d="M408.9,316.5l-2.5-9.9c-0.1-0.4,0.1-0.7,0.4-0.9l7.6-3.1c0.8-0.3,1.6,0.1,1.9,0.9c0,0,0,0.1,0,0.1
				c0.8,3.5,1,5.2,2.1,9.6c0.7,2.7,2.5,8.5,3.5,12.2s-2.7,4.8-3.4,3.4c-3.2-6.6-6.2-9.1-8.7-11C409.4,317.5,409.1,317.1,408.9,316.5
				z"/>
			<path class="st7" d="M336.1,393l4.5-9.9c0.2-0.4,0.6-0.6,1-0.5l8.8,1.4c0.7,0.1,1.2,0.8,1.1,1.6c0,0.1-0.1,0.2-0.1,0.4
				c-1.6,3.4-2.6,5-4.5,9.4c-1.2,2.7-4.9,11.5-6.5,15.2s-5.6,2.7-5.3,1.1c1.5-7.4,2-13.9,1-16.9C335.8,394.1,335.9,393.5,336.1,393z
				"/>
			<polygon class="st11" points="320.6,381.4 330.4,388 336.8,381.8 327.2,375.4 			"/>
			<polygon class="st11" points="389.9,309 389.6,318.1 398.9,317.1 399.3,308 			"/>
			<path class="st9" d="M219.8,187c0,0,4.1,20.2,24.5,38c2.6,2.2,2.1,8,5.6,7.5c12.4-7.8,25.2-15.6,31.2-19.4
				c0.1-6.9-4.6-5.8-5.7-9.5c-2.7-8.8-10-18.7-17.5-40.4c-5,1.9-9.8,4.1-14.4,6.6c-4.9,2.7-9.7,5.7-14.2,9
				C226,181.4,222.8,184.1,219.8,187z"/>
			<path class="st10" d="M232,154.8c2,5.1,6.4,14.1,11.5,15.1c0,0,3.1,14.8-3,23c-9.6-1.6-11.2-14.1-11.2-14.1
				c4.3-4.4,1.8-8.1-1.3-11.1L232,154.8z"/>
			<path class="st7" d="M234.6,192.7c-1.1,0-2.1-0.5-2.8-1.3c-1.9-1.9-1.2-4.8-0.5-7.9s1.4-6.2,0-8.9c-0.1-0.1,0-0.3,0.1-0.4
				c0.1-0.1,0.3,0,0.4,0.1c1.5,2.9,0.7,6.3,0.1,9.3s-1.2,5.7,0.4,7.4c1.1,1.4,3.2,1.6,4.5,0.4c0,0,0.1-0.1,0.1-0.1
				c3.3-2.4,5.4-9.3,3-13.5c-2.2-4,0-7.5,1-9.1c0.2-0.3,0.3-0.6,0.5-0.9c0-0.1,0.1-0.3,0.2-0.3c0,0,0,0,0,0c0.2,0,0.3,0.1,0.3,0.2
				c0,0,0,0,0,0c0.1,0.3-0.1,0.6-0.5,1.2c-1.1,1.7-3.1,4.9-1,8.6c2.4,4.4,0.2,11.7-3.2,14.2C236.4,192.3,235.5,192.6,234.6,192.7z"
				/>
			<path class="st11" d="M230.4,160l-2.4,7.7c0.7,0.7,1.4,1.4,2,2.2c1.8-1.5,3.6-5.1,2.5-7.3C232,161.7,231.2,160.8,230.4,160z"/>
			<path class="st10" d="M230.6,144.4c2.8,8.6,4.1,12.2,1.6,18.2c-3.9,9-15,10.5-20.3,2.9c-4.8-6.9-8.5-19.8-1.6-26.4
				c4.9-4.7,12.7-4.5,17.4,0.4C229,140.9,230,142.6,230.6,144.4z"/>
			<path class="st7" d="M213.7,142.3c0.6,4.7,10.7,10.1,20.1,7.9c6.6-1.6,1.5-13.1-6.3-15.1S212.7,134.6,213.7,142.3z"/>
			<path class="st7" d="M218.1,142.3l-19.8,2.5C198.2,144.7,203.8,131.4,218.1,142.3z"/>
			<path class="st7" d="M216.8,142l-16.1,7C200.7,149,202.1,136.3,216.8,142z"/>
			<path class="st7" d="M215.1,142l-4.5,6.4C210.6,148.4,208.2,143.3,215.1,142z"/>
			<path class="st7" d="M217.6,142l-16.6-3.9C201,138.1,209.4,129.1,217.6,142z"/>
			<path class="st7" d="M215.9,142.4l-7.8-9.6C208.1,132.7,217,131.3,215.9,142.4z"/>
			<path class="st10" d="M235.9,151.5c0.5,1.7,0.2,3.5-0.6,5c-1.2,2-3.4,1.4-4.4-0.6c-0.9-1.8-1.4-4.9,0.4-6.2
				c1.4-0.9,3.2-0.6,4.2,0.8C235.6,150.7,235.8,151.1,235.9,151.5z"/>
			<path class="st7" d="M250.6,233.2c0,0,4,81.2,19.3,104.4c16,24.1,55.3,49.9,55.3,49.9l11-9.3c0,0-37-35-45.2-55.4
				c-11.3-28.1-13.4-106.7-13.4-106.7L250.6,233.2z"/>
			<polygon class="st9" points="337.2,377.5 324.9,388.8 318.7,385.4 331.7,372.3 			"/>
			<path class="st11" d="M268.9,234.9c-0.1,9.6,5.4,22.5,12.3,30.8c-0.8-7.6-1.4-15-1.9-21.6C275.8,240.1,272.2,236.7,268.9,234.9z"
				/>
			<path class="st7" d="M258.9,228c0,0,37.9,50.1,61.4,77c19,21.7,77.7,14.4,77.7,14.4v-12.6c0,0-42.1,1-55.2-13.6
				c-41.6-47-42-72.1-60.9-79.7L258.9,228z"/>
			<polygon class="st9" points="398.2,304.8 398.2,322.1 390.1,324.4 390.4,304.9 			"/>
			<path class="st9" d="M281.2,211.3l3.2,1.9c0.2,0.1,0.1,0.5-0.2,0.8l-32.8,20.7c-0.3,0.2-0.6,0.2-0.7,0l-2-2.6
				c-0.1-0.2,0-0.5,0.3-0.7l31.7-20C280.8,211.3,281,211.3,281.2,211.3z"/>
			<path class="st12" d="M281.2,211.3l3.2,1.9c0.2,0.1,0.1,0.5-0.2,0.8l-32.8,20.7c-0.3,0.2-0.6,0.2-0.7,0l-2-2.6
				c-0.1-0.2,0-0.5,0.3-0.7l31.7-20C280.8,211.3,281,211.3,281.2,211.3z"/>
			<path class="st7" d="M279.2,217.6l0.9-0.5c0.2-0.1,0.2-0.3,0.2-0.4l-2.7-3.4c-0.1-0.1-0.3-0.1-0.5,0l-0.9,0.5
				c-0.2,0.1-0.2,0.3-0.2,0.4l2.7,3.4C278.9,217.7,279.1,217.7,279.2,217.6z"/>
			<path class="st7" d="M253.9,233.5l0.8-0.5c0.2-0.1,0.2-0.3,0.2-0.4l-2.7-3.4c-0.1-0.1-0.3-0.1-0.4,0l-0.9,0.5
				c-0.2,0.1-0.2,0.3-0.2,0.4l2.7,3.4C253.6,233.6,253.8,233.6,253.9,233.5z"/>
			<path class="st7" d="M266.6,225.6l0.9-0.5c0.2-0.1,0.2-0.3,0.2-0.4l-2.7-3.4c-0.1-0.1-0.3-0.1-0.5,0l-0.9,0.5
				c-0.2,0.1-0.2,0.3-0.2,0.4l2.7,3.4C266.2,225.7,266.4,225.7,266.6,225.6z"/>
			<path class="st7" d="M219.7,151.7c0.3,0.7,0.1,1.4-0.3,1.6s-1-0.2-1.3-0.9s-0.1-1.4,0.3-1.6S219.5,151.1,219.7,151.7z"/>
			<path class="st7" d="M212,154.8c0.3,0.7,0.1,1.4-0.3,1.6s-1-0.2-1.3-0.9s-0.1-1.4,0.3-1.6S211.7,154.1,212,154.8z"/>
			<path class="st7" d="M210.9,153.8l-1.8,0.2C209.1,154,210.4,154.9,210.9,153.8z"/>
			<path class="st10" d="M214.5,155.1c0,1.8-0.2,3.6-0.7,5.3c0.9,0.2,1.9,0,2.6-0.5L214.5,155.1z"/>
			<path class="st7" d="M219.8,161.7c-0.1,0-0.2,0-0.2-0.1c0-0.1,0-0.2,0.1-0.3c0,0,0,0,0,0c1.7-0.6,3.1-2.1,3.6-3.9
				c0-0.1,0.1-0.2,0.2-0.2c0.1,0,0.2,0.1,0.2,0.2c0,0,0,0,0,0C223.2,159.5,221.7,161.1,219.8,161.7L219.8,161.7z"/>
			<path class="st7" d="M220.1,149c-0.1,0-0.2,0-0.3,0c-1-0.5-2.1-0.5-3.1-0.1c-0.2,0.1-0.5,0-0.6-0.2c0,0,0,0,0,0
				c-0.1-0.2,0-0.5,0.1-0.6c1.2-0.6,2.7-0.6,3.9,0c0.2,0.1,0.3,0.4,0.2,0.6C220.3,148.9,220.2,149,220.1,149z"/>
			<path class="st7" d="M207,152.6c-0.1,0-0.1,0-0.2,0c-0.2,0-0.4-0.3-0.3-0.5c0.3-1.4,1.2-2.5,2.5-3.1c0.2-0.1,0.5,0,0.5,0.2
				c0,0,0,0,0,0c0.1,0.2,0,0.4-0.2,0.5c0,0,0,0,0,0c-1,0.5-1.7,1.4-1.9,2.5C207.3,152.4,207.2,152.6,207,152.6z"/>
			<path class="st10" d="M261.3,161.2l0.7-0.4l0.7-0.5c0.5-0.3,1-0.6,1.5-1c1-0.7,2-1.4,3-2.1c2-1.5,3.9-3.1,5.7-4.7
				c1.8-1.7,3.6-3.4,5.2-5.3l1.9-2.2c0.1-0.1,0.2-0.4,0.1-1.2c-0.2-0.9-0.5-1.8-0.9-2.6c-0.5-1-1.1-2-1.8-2.9c-1.5-2-3-3.9-4.7-5.7
				c-3.5-3.7-7.3-7.3-11.2-10.6l2.6-3.8c4.7,2.8,9.1,6,13.2,9.5c2.2,1.8,4.2,3.8,6,5.9c1,1.1,1.9,2.4,2.7,3.6c0.9,1.5,1.6,3,2.1,4.7
				c0.3,1,0.4,2.1,0.3,3.1c-0.1,1.2-0.3,2.4-0.8,3.5c-0.3,0.5-0.6,1.1-0.9,1.6l-0.6,0.9l-1.2,1.7c-1.7,2.2-3.6,4.3-5.6,6.3
				c-2,2-4.1,3.8-6.3,5.6c-1.1,0.9-2.2,1.7-3.4,2.5c-0.6,0.4-1.2,0.8-1.8,1.2l-0.9,0.6c-0.3,0.2-0.6,0.4-1,0.6L261.3,161.2z"/>
			<path class="st9" d="M248.4,167.3c4.4-4.8,18.6-9.4,18.6-9.4l4.5,23.2c0,0-4.9,4.9-10.9,3.2C255.6,182.9,242.1,174.2,248.4,167.3
				z"/>
			<path class="st9" d="M411,321.3c-0.2,0.2-0.5,0.3-0.8,0.3c-0.3,0-0.5-0.1-0.7-0.3c-0.7-0.9,0.4-4,0.5-4.4c0-0.1,0.1-0.1,0.2-0.1
				c0.1,0,0.2,0,0.2,0.1c0.5,1.1,1.4,3,0.9,4.1C411.2,321.1,411.1,321.2,411,321.3z M410.2,317.6c-0.4,1.3-0.8,3-0.4,3.5
				c0.1,0.1,0.2,0.1,0.3,0.1c0.3,0,0.6-0.2,0.7-0.4C411.1,320.2,410.9,319,410.2,317.6L410.2,317.6z"/>
			<path class="st9" d="M408.7,319.5c-0.3,0.4-0.7,0.6-1.2,0.7c-0.4,0-0.7-0.2-0.8-0.6c-0.1-0.3-0.1-0.7,0.1-1
				c0.6-1.2,3.1-1.8,3.3-1.8c0.1,0,0.2,0,0.2,0.1c0.1,0.1,0.1,0.1,0,0.2C410,318,409.5,318.8,408.7,319.5z M407.5,318.5
				c-0.1,0.1-0.2,0.2-0.3,0.4c-0.1,0.2-0.1,0.4,0,0.6c0.1,0.3,0.2,0.3,0.3,0.3c0.6,0,1.8-1.4,2.3-2.4
				C409,317.6,408.2,318,407.5,318.5z"/>
			<path class="st9" d="M335.8,398.1c-0.3,0.7-0.7,1.3-1.3,1.7c-0.4,0.2-0.8,0.2-1.2,0.1c-0.2-0.1-0.4-0.3-0.4-0.5
				c-0.2-1.2,2.8-3.8,3.5-4.4c0.1,0,0.2,0,0.2,0c0.1,0,0.1,0.1,0.1,0.2C336.5,396.2,336.2,397.2,335.8,398.1z M333.4,398.9
				c-0.1,0.1-0.1,0.3-0.1,0.4c0,0.1,0,0.1,0.1,0.2c0.3,0.1,0.6,0.1,0.8,0c0.7-0.4,1.4-1.7,1.8-3.6
				C335,396.7,334.1,397.7,333.4,398.9z"/>
			<path class="st9" d="M336.6,395.3L336.6,395.3c-1,1-3.8,2.4-4.7,1.9c-0.2-0.1-0.4-0.4-0.2-0.9c0.6-2,4.6-1.3,4.8-1.2
				c0.1,0,0.1,0.1,0.2,0.1C336.7,395.2,336.7,395.2,336.6,395.3z M332.2,396.2c0,0,0,0.1,0,0.1c-0.1,0.2-0.1,0.4,0,0.4
				c0.5,0.3,2.6-0.6,3.8-1.5C335,395.2,332.7,395.1,332.2,396.2L332.2,396.2z"/>
			<path class="st7" d="M218.6,150.8l-1.8,0.2C216.8,150.9,218.2,151.9,218.6,150.8z"/>
		</g>
	</g>
	<rect x="171" y="292.1" class="st9" width="87.7" height="8.6"/>
	<rect x="171" y="308.6" class="st9" width="58.1" height="8.6"/>
	<rect x="173.6" y="377.8" class="st3" width="32.1" height="3.8"/>
	<rect x="179" y="385" class="st3" width="21.3" height="3.8"/>
	<rect x="221.2" y="377.8" class="st3" width="32.2" height="3.8"/>
	<rect x="226.6" y="385" class="st3" width="21.3" height="3.8"/>
	<rect x="270.2" y="377.8" class="st3" width="32.1" height="3.8"/>
	<rect x="275.6" y="385" class="st3" width="21.3" height="3.8"/>
	<path class="st9" d="M205.5,93.2c0,4.3,3.5,7.8,7.9,7.9h49.3c4.3,0,7.8-3.5,7.9-7.9H205.5z"/>
	
		<ellipse transform="matrix(0.2297 -0.9733 0.9733 0.2297 -195.786 455.1784)" class="st9" cx="189.7" cy="351.3" rx="18.7" ry="18.7"/>
	<path class="st2" d="M192.3,348.6c-4.5-1.4-7.4-6.3-7.4-6.3s-1.4-0.1-1.5,1.2c0,1.8,0.6,3.5,1.9,4.7l-2.2-0.1c-0.8,0-1.6,0-2.3,0.2
		l-0.7,0.2c-1.3,0.3-2,1.6-1.7,2.9l1,4.2c0.6,2.7,3.2,4.4,5.9,4c2.2-0.3,5.7-0.8,6.3-0.9l0,0l1.6-0.1l0.5-9.5L192.3,348.6z"/>
	<path class="st7" d="M193.3,347.3h6.1c0.5,0,0.9,0.4,0.9,0.9v10.8c0,0.5-0.4,0.9-0.9,0.9h-6.1c-0.5,0-0.9-0.4-0.9-0.9v-10.8
		C192.4,347.6,192.8,347.3,193.3,347.3z"/>
	<circle class="st9" cx="286.3" cy="351.3" r="18.7"/>
	<path class="st2" d="M286.3,341.5c-5.1,0-9.2,4.1-9.2,9.2c0,4.2,2.9,7.9,7.1,8.9l2.1,2.7l2.1-2.7l0,0c4.9-1.2,8-6.1,6.8-11.1
		C294.2,344.5,290.5,341.6,286.3,341.5z M286.3,354.5c-2.1,0-3.8-1.7-3.8-3.8s1.7-3.8,3.8-3.8c2.1,0,3.8,1.7,3.8,3.8v0
		C290.1,352.8,288.4,354.6,286.3,354.5C286.3,354.6,286.3,354.6,286.3,354.5L286.3,354.5z"/>
	
		<ellipse transform="matrix(0.7071 -0.7071 0.7071 0.7071 -178.6994 271.1661)" class="st9" cx="238" cy="351.3" rx="18.7" ry="18.7"/>
	<path class="st2" d="M242.3,347c0-0.2-0.1-0.4-0.2-0.5c-0.9-0.4-2-0.6-3-0.6c-3.7,0-6.7,3-6.7,6.7c0,2.5,1.7,3.8,3.3,3.8
		c1.4,0,2.7-0.6,3.5-1.7c0.1,0.4,0.3,0.7,0.6,1c0.5,0.5,1.1,0.7,1.7,0.7c2.6,0,5.2-2.3,5.2-6.8c0.2-4.3-3.2-7.9-7.4-8.1
		c-0.2,0-0.5,0-0.7,0c-5.8,0-10.1,4.6-10.1,10.6c0,5,3.6,8.7,8.5,8.7c1.7,0.1,3.4-0.3,4.9-1.1c0.2-0.1,0.3-0.3,0.2-0.5l-0.4-1.1
		c0-0.1-0.1-0.2-0.3-0.2c-0.1-0.1-0.2-0.1-0.4,0c-1.2,0.6-2.5,0.9-3.8,0.9c-3.8,0-6.4-2.7-6.4-6.7c0-4.9,3.2-8.4,7.5-8.4
		c3.7,0,6,2.4,6,6.2c0.1,1.4-0.4,2.8-1.3,3.9c-0.3,0.3-0.7,0.5-1.1,0.5c-0.1,0-0.3-0.1-0.3-0.1c-0.1-0.2-0.4-0.7,0-2.3L242.3,347z
		 M238.7,348.2c0.3,0,0.6,0,0.8,0.1l-0.5,2.6c-0.3,1.5-1.6,3.2-2.8,3.2s-1.3-1-1.3-1.6C234.9,350.2,236.7,348.2,238.7,348.2
		L238.7,348.2z"/>
</g>
</svg>
