<?xml version="1.0" encoding="utf-8"?>
<!-- Generator: Adobe Illustrator 22.0.1, SVG Export Plug-In . SVG Version: 6.00 Build 0)  -->
<svg version="1.1" id="fbbf0112-9f0c-4059-91ae-024eb0aa32cc"
	 xmlns="http://www.w3.org/2000/svg" xmlns:xlink="http://www.w3.org/1999/xlink" x="0px" y="0px" viewBox="0 0 1046 729.9"
	 style="enable-background:new 0 0 1046 729.9;" xml:space="preserve">
<style type="text/css">
	.st0{opacity:0.1;fill:#FF6347;enable-background:new    ;}
	.st1{fill:#3F3D56;}
	.st2{opacity:0.1;enable-background:new    ;}
	.st3{opacity:0.1;}
	.st4{fill:#FF6347;}
	.st5{fill:#3A3768;}
	.st6{fill:#E6E8EC;}
	.st7{fill:#263238;}
	.st8{fill:#FF725E;}
	.st9{fill:#996234;}
	.st10{opacity:0.5;}
	.st11{fill:#FFFFFF;}
	.st12{opacity:0.2;enable-background:new    ;}
	.st13{opacity:0.4;}
	.st14{opacity:0.2;}
	.st15{fill:#FFB573;}
	.st16{opacity:0.3;fill:#263238;enable-background:new    ;}
	.st17{fill:#FAFAFA;}
	.st18{opacity:0.3;}
	.st19{opacity:0.3;enable-background:new    ;}
	.st20{opacity:0.4;fill:#FFFFFF;enable-background:new    ;}
	.st21{opacity:0.6;fill:#FFFFFF;enable-background:new    ;}
	.st22{opacity:0.2;fill:#FFFFFF;enable-background:new    ;}
	.st23{opacity:0.5;fill:#FFFFFF;enable-background:new    ;}
	.st24{opacity:0.3;fill:#FFFFFF;enable-background:new    ;}
</style>
<title>directions</title>
<path class="st0" d="M417.1,93.3C337,17,215.9,3.3,120.8,59.9C215.8,93.9,320.6,95.2,417.1,93.3z"/>
<path class="st0" d="M967.6,645.5L863.9,465.8c-0.9-1.6-2.9-2.1-4.5-1.2c-0.5,0.3-0.9,0.7-1.2,1.2L754.5,645.5
	c-0.9,1.6-0.4,3.6,1.1,4.5c0.5,0.3,1.1,0.5,1.7,0.5h30.9c1.8,0,3.3,1.5,3.3,3.3v38.3c0,1.8,1.5,3.3,3.3,3.3h40.4
	c1.8,0,3.3-1.5,3.3-3.3v-18.5c0-1.8,1.5-3.3,3.3-3.3h38.4c1.8,0,3.3,1.5,3.3,3.3v18.5c0,1.8,1.5,3.3,3.3,3.3h40.4
	c1.8,0,3.3-1.5,3.3-3.3v-38.4c0-1.8,1.5-3.3,3.3-3.3h30.9c1.8,0,3.3-1.5,3.3-3.3C968.1,646.5,967.9,646,967.6,645.5z M823,665.4
	c-0.6,0.6-1.5,1-2.3,1h-14.5c-1.8,0-3.3-1.5-3.3-3.3c0-1.8,1.5-3.3,3.3-3.3h14.6c1.8,0,3.3,1.5,3.3,3.3
	C824,663.9,823.7,664.8,823,665.4L823,665.4z M918.3,665.4c-0.6,0.6-1.5,1-2.3,1h-14.5c-1.8,0-3.3-1.5-3.3-3.3
	c0-1.8,1.5-3.3,3.3-3.3H916c1.8,0,3.3,1.5,3.3,3.3C919.3,663.9,919,664.8,918.3,665.4L918.3,665.4z"/>
<path class="st0" d="M326.5,647.1L222.8,467.4c-0.9-1.6-2.9-2.1-4.5-1.2c-0.5,0.3-0.9,0.7-1.2,1.2l-89.6,155.2
	c11.2,14.1,23.8,27.1,37.5,38.7h14.6c1.8,0,3.3,1.5,3.3,3.3c0,1.8-1.5,3.3-3.3,3.3h-6.2c7.5,5.7,15.6,10.7,24,14.9v-7.7
	c0-1.8,1.5-3.3,3.3-3.3h38.4c1.8,0,3.3,1.5,3.3,3.3v18.5c0,0.5,0.1,1,0.3,1.4c0.5,1.2,1.7,1.9,3,1.9h40.4c1,0,2-0.5,2.6-1.3
	c0.4-0.6,0.7-1.3,0.7-2v-38.3c0-1.8,1.5-3.3,3.3-3.3h30.9c1.8,0,3.3-1.5,3.3-3.3C327,648.2,326.8,647.6,326.5,647.1z M258,662.3
	c0.6-0.6,1.5-1,2.3-1h14.6c1.8,0,3.3,1.5,3.3,3.3c0,1.8-1.5,3.3-3.3,3.3h-14.6c-1.8,0-3.3-1.5-3.3-3.3
	C257,663.7,257.4,662.9,258,662.3L258,662.3z M192.9,595.8c-1.8,0-3.3-1.5-3.3-3.3v-25.1c0-1.8,1.5-3.3,3.3-3.3h54.2
	c1.8,0,3.3,1.5,3.3,3.3v25.1c0,1.8-1.5,3.3-3.3,3.3H192.9z"/>
<path class="st0" d="M736.5,324.3H608.2v-27.8c0-3.7-3-6.6-6.6-6.6l0,0h-37.7v-29.6c0-2.3-1.9-4.2-4.2-4.2h-48.5
	c-2.3,0-4.2,1.9-4.2,4.2v29.6h-44.3c-3.7,0-6.6,3-6.6,6.6v0v27.8H333.6c-0.7,0-1.3,0.6-1.3,1.4v368.5c0,0.7,0.6,1.3,1.3,1.3h81.3
	c0.7,0,1.4-0.6,1.4-1.3v-49.6c0-0.7,0.6-1.3,1.4-1.3H452c0.7,0,1.3,0.6,1.3,1.3v49.6c0,0.7,0.6,1.3,1.3,1.3h160.8
	c0.7,0,1.3-0.6,1.3-1.3v-49.6c0-0.7,0.6-1.3,1.3-1.3h34.4c0.7,0,1.3,0.6,1.3,1.3v49.6c0,0.7,0.6,1.3,1.3,1.3h81.3
	c0.7,0,1.3-0.6,1.3-1.3V325.7C737.9,324.9,737.3,324.3,736.5,324.3z M401.7,626.1c0,0.7-0.6,1.3-1.3,1.3h0h-50.2
	c-0.7,0-1.3-0.6-1.3-1.3c0,0,0,0,0,0v-17.1c0-0.7,0.6-1.3,1.4-1.3h50.2c0.7,0,1.3,0.6,1.3,1.3L401.7,626.1z M401.7,581.7
	c0,0.7-0.6,1.3-1.3,1.3c0,0,0,0,0,0h-50.2c-0.7,0-1.3-0.6-1.4-1.3c0,0,0,0,0,0v-17.1c0-0.7,0.6-1.3,1.3-1.3c0,0,0,0,0,0h50.2
	c0.7,0,1.3,0.6,1.3,1.3c0,0,0,0,0,0L401.7,581.7z M401.7,537.4c0,0.7-0.6,1.3-1.3,1.3h-50.2c-0.7,0-1.4-0.6-1.4-1.3v-17.2
	c0-0.7,0.6-1.3,1.4-1.3h50.2c0.7,0,1.3,0.6,1.3,1.3L401.7,537.4z M401.7,493c0,0.7-0.6,1.3-1.3,1.3c0,0,0,0,0,0h-50.2
	c-0.7,0-1.3-0.6-1.4-1.3c0,0,0,0,0,0v-17.1c0-0.7,0.6-1.3,1.3-1.3c0,0,0,0,0,0h50.2c0.7,0,1.3,0.6,1.3,1.3c0,0,0,0,0,0L401.7,493z
	 M401.7,448.7c0,0.7-0.6,1.3-1.3,1.3h-50.2c-0.7,0-1.4-0.6-1.4-1.3v-17.2c0-0.7,0.6-1.3,1.3-1.3c0,0,0,0,0,0h50.2
	c0.7,0,1.3,0.6,1.3,1.3l0,0L401.7,448.7z M401.7,404.4c0,0.7-0.6,1.3-1.3,1.3h-50.2c-0.7,0-1.3-0.6-1.3-1.3c0,0,0,0,0,0v-17.2
	c0-0.7,0.6-1.4,1.4-1.4l0,0h50.2c0.7,0,1.3,0.6,1.3,1.4L401.7,404.4z M401.7,360c0,0.7-0.6,1.3-1.3,1.3c0,0,0,0,0,0h-50.2
	c-0.7,0-1.3-0.6-1.4-1.3c0,0,0,0,0,0v-17.1c0-0.7,0.6-1.3,1.3-1.4c0,0,0,0,0,0h50.2c0.7,0,1.3,0.6,1.3,1.3c0,0,0,0,0,0L401.7,360z
	 M520.8,626c0,0.7-0.6,1.3-1.3,1.3c0,0,0,0,0,0h-50.2c-0.7,0-1.3-0.6-1.3-1.3v-17.1c0-0.7,0.6-1.3,1.3-1.3h50.2
	c0.7,0,1.3,0.6,1.3,1.3L520.8,626z M520.8,581.7c0,0.7-0.6,1.3-1.3,1.3c0,0,0,0,0,0h-50.2c-0.7,0-1.3-0.6-1.3-1.3v-17.1
	c0-0.7,0.6-1.3,1.3-1.3h50.2c0.7,0,1.3,0.6,1.3,1.3c0,0,0,0,0,0L520.8,581.7z M520.8,537.4c0,0.7-0.6,1.3-1.3,1.3h-50.2
	c-0.7,0-1.3-0.6-1.3-1.3v-17.1c0-0.7,0.6-1.3,1.3-1.3h50.2c0.7,0,1.3,0.6,1.3,1.3L520.8,537.4z M520.8,493c0,0.7-0.6,1.3-1.3,1.3
	c0,0,0,0,0,0h-50.2c-0.7,0-1.3-0.6-1.3-1.3v-17.1c0-0.7,0.6-1.3,1.3-1.3h50.2c0.7,0,1.3,0.6,1.3,1.3c0,0,0,0,0,0L520.8,493z
	 M520.8,448.7c0,0.7-0.6,1.3-1.3,1.3h-50.2c-0.7,0-1.3-0.6-1.3-1.3v-17.1c0-0.7,0.6-1.3,1.3-1.3h50.2c0.7,0,1.3,0.6,1.3,1.3
	c0,0,0,0,0,0L520.8,448.7z M520.8,404.4c0,0.7-0.6,1.3-1.3,1.3c0,0,0,0,0,0h-50.2c-0.7,0-1.3-0.6-1.3-1.3v-17.1
	c0-0.7,0.6-1.3,1.3-1.4h50.2c0.7,0,1.3,0.6,1.3,1.4L520.8,404.4z M520.8,360c0,0.7-0.6,1.3-1.3,1.4c0,0,0,0,0,0h-50.2
	c-0.7,0-1.3-0.6-1.3-1.4v-17.1c0-0.7,0.6-1.4,1.3-1.4h50.2c0.7,0,1.3,0.6,1.3,1.3c0,0,0,0,0,0L520.8,360z M602.2,626
	c0,0.7-0.6,1.3-1.3,1.3c0,0,0,0,0,0h-50.2c-0.7,0-1.3-0.6-1.3-1.3v-17.1c0-0.7,0.6-1.3,1.3-1.3h50.2c0.7,0,1.3,0.6,1.3,1.3
	L602.2,626z M602.2,581.7c0,0.7-0.6,1.3-1.3,1.3c0,0,0,0,0,0h-50.2c-0.7,0-1.3-0.6-1.3-1.3v-17.1c0-0.7,0.6-1.3,1.3-1.3h50.2
	c0.7,0,1.3,0.6,1.3,1.3c0,0,0,0,0,0L602.2,581.7z M602.2,537.4c0,0.7-0.6,1.3-1.3,1.3h-50.2c-0.7,0-1.3-0.6-1.3-1.3v-17.1
	c0-0.7,0.6-1.3,1.3-1.3h50.2c0.7,0,1.3,0.6,1.3,1.3L602.2,537.4z M602.2,493c0,0.7-0.6,1.3-1.3,1.3c0,0,0,0,0,0h-50.2
	c-0.7,0-1.3-0.6-1.3-1.3v-17.1c0-0.7,0.6-1.3,1.3-1.3h50.2c0.7,0,1.3,0.6,1.3,1.3c0,0,0,0,0,0L602.2,493z M602.2,448.7
	c0,0.7-0.6,1.3-1.3,1.3h-50.2c-0.7,0-1.3-0.6-1.3-1.3v-17.1c0-0.7,0.6-1.3,1.3-1.3h50.2c0.7,0,1.3,0.6,1.3,1.3c0,0,0,0,0,0
	L602.2,448.7z M602.2,404.4c0,0.7-0.6,1.3-1.3,1.3c0,0,0,0,0,0h-50.2c-0.7,0-1.3-0.6-1.3-1.3v-17.1c0-0.7,0.6-1.3,1.3-1.4h50.2
	c0.7,0,1.3,0.6,1.3,1.4L602.2,404.4z M602.2,360c0,0.7-0.6,1.3-1.3,1.4c0,0,0,0,0,0h-50.2c-0.7,0-1.3-0.6-1.3-1.4v-17.1
	c0-0.7,0.6-1.4,1.3-1.4h50.2c0.7,0,1.3,0.6,1.3,1.3c0,0,0,0,0,0L602.2,360z M721.3,626c0,0.7-0.6,1.3-1.3,1.3h-50.2
	c-0.7,0-1.3-0.6-1.3-1.3c0,0,0,0,0,0v-17.1c0-0.7,0.6-1.3,1.3-1.3H720c0.7,0,1.3,0.6,1.3,1.3L721.3,626z M721.3,581.7
	c0,0.7-0.6,1.3-1.3,1.3h-50.2c-0.7,0-1.3-0.6-1.3-1.3c0,0,0,0,0,0v-17.1c0-0.7,0.6-1.3,1.3-1.3c0,0,0,0,0,0H720
	c0.7,0,1.3,0.6,1.3,1.3L721.3,581.7z M721.3,537.4c0,0.7-0.6,1.3-1.3,1.3h-50.2c-0.7,0-1.3-0.6-1.3-1.3v-17.1c0-0.7,0.6-1.3,1.3-1.3
	H720c0.7,0,1.3,0.6,1.3,1.3L721.3,537.4z M721.3,493c0,0.7-0.6,1.3-1.3,1.3h-50.2c-0.7,0-1.3-0.6-1.3-1.3c0,0,0,0,0,0v-17.1
	c0-0.7,0.6-1.3,1.3-1.3c0,0,0,0,0,0H720c0.7,0,1.3,0.6,1.3,1.3L721.3,493z M721.3,448.7c0,0.7-0.6,1.3-1.3,1.3h-50.2
	c-0.7,0-1.3-0.6-1.3-1.3v-17.1c0-0.7,0.6-1.3,1.3-1.3c0,0,0,0,0,0H720c0.7,0,1.3,0.6,1.3,1.3L721.3,448.7z M721.3,404.4
	c0,0.7-0.6,1.4-1.3,1.4c0,0,0,0,0,0h-50.2c-0.7,0-1.3-0.6-1.3-1.3c0,0,0,0,0,0v-17.2c0-0.7,0.6-1.4,1.3-1.4H720
	c0.7,0,1.3,0.6,1.3,1.4L721.3,404.4z M721.3,360c0,0.7-0.6,1.4-1.3,1.4h-50.2c-0.7,0-1.3-0.6-1.3-1.3c0,0,0,0,0,0v-17.1
	c0-0.7,0.6-1.3,1.3-1.4c0,0,0,0,0,0H720c0.7,0,1.3,0.6,1.3,1.4L721.3,360z"/>
<path class="st0" d="M371,224.5c-5.6-1.1-11.5-0.4-16.8,1.8c-6.4,2.9-13.8,2.9-20.2-0.1c-7.6-3.3-16.2-3.2-23.7,0.5
	c-2.1,1.1-4.4,1.7-6.8,1.7c-9.6,0-17.6-9.7-19.2-22.4c1.9-1.4,3.5-3.2,4.8-5.2c5.6-9.1,14.4-14.9,24.1-14.9s18.4,5.8,24,14.7
	c3.4,5.5,9.5,8.8,16,8.8h0.2C361.1,209.4,367.7,215.5,371,224.5z"/>
<path class="st0" d="M400.2,184.4l-15.5,9.8l9.4-17.1c-2.7-2.1-6-3.3-9.4-3.4h-0.2c-1.1,0-2.2-0.1-3.2-0.2l-5.2,3.3l2.3-4.1
	c-3.7-1.3-6.9-3.8-9.2-7l-9.4,6l5.9-10.8c-5.5-6.6-12.9-10.7-21.1-10.7c-9.8,0-18.5,5.8-24.1,14.9c-3.4,5.5-9.5,8.8-16,8.6h-0.5
	c-10.8,0-19.6,12.2-19.6,27.4s8.8,27.4,19.6,27.4c2.4,0,4.7-0.6,6.8-1.7c7.4-3.6,16.1-3.8,23.7-0.5c6.4,2.9,13.7,2.9,20.1,0
	c7.5-3.3,16.1-3.1,23.5,0.5c2.1,1.1,4.4,1.7,6.7,1.7c10.8,0,19.6-12.3,19.6-27.4C404.3,195.3,402.9,189.5,400.2,184.4z"/>
<path class="st0" d="M832,406.9c-4-0.7-8-0.3-11.7,1.3c-4.5,2-9.6,2-14.1,0c-5.3-2.3-11.4-2.2-16.6,0.3c-1.5,0.8-3.1,1.2-4.8,1.2
	c-6.7,0-12.3-6.8-13.5-15.7c1.3-1,2.5-2.2,3.4-3.6c3.9-6.4,10-10.4,16.9-10.4s12.9,4,16.8,10.3c2.4,3.9,6.6,6.2,11.2,6.1h0.2
	C825.1,396.4,829.7,400.7,832,406.9z"/>
<path class="st0" d="M852.4,378.9l-10.9,6.9l6.6-12c-1.9-1.5-4.2-2.3-6.6-2.3h-0.2c-0.8,0-1.5,0-2.2-0.2l-3.7,2.3l1.6-2.9
	c-2.6-0.9-4.9-2.6-6.4-4.9L824,370l4.2-7.6c-3.8-4.6-9-7.5-14.8-7.5c-6.8,0-13,4.1-16.9,10.4c-2.4,3.9-6.6,6.2-11.2,6H785
	c-7.6,0-13.7,8.6-13.7,19.1s6.1,19.2,13.7,19.2c1.7,0,3.3-0.4,4.8-1.2c5.2-2.5,11.3-2.7,16.6-0.3c4.5,2,9.6,2,14.1,0
	c5.3-2.3,11.3-2.2,16.4,0.3c1.5,0.8,3.1,1.2,4.7,1.2c7.6,0,13.7-8.6,13.7-19.2C855.3,386.5,854.3,382.5,852.4,378.9z"/>
<path class="st0" d="M238.6,342.9c4-0.7,8-0.3,11.7,1.3c4.5,2,9.6,2,14.1,0c5.3-2.3,11.4-2.2,16.6,0.3c1.5,0.8,3.1,1.2,4.8,1.2
	c6.7,0,12.3-6.8,13.5-15.7c-1.3-1-2.5-2.2-3.4-3.6c-3.9-6.4-10-10.5-16.9-10.5s-12.9,4-16.8,10.3c-2.4,3.9-6.6,6.2-11.2,6.1h-0.2
	C245.5,332.4,240.9,336.7,238.6,342.9z"/>
<path class="st0" d="M218.1,314.9l10.9,6.9l-6.6-12c1.9-1.5,4.2-2.3,6.6-2.3h0.2c0.8,0,1.5,0,2.2-0.2l3.7,2.3l-1.6-2.9
	c2.6-0.9,4.9-2.6,6.5-4.9l6.6,4.2l-4.2-7.6c3.9-4.6,9-7.5,14.8-7.5c6.9,0,13,4.1,16.9,10.4c2.4,3.9,6.6,6.2,11.2,6h0.4
	c7.6,0,13.7,8.6,13.7,19.1s-6.1,19.2-13.7,19.2c-1.7,0-3.3-0.4-4.8-1.2c-5.2-2.5-11.3-2.7-16.6-0.3c-4.5,2-9.6,2-14.1,0
	c-5.3-2.3-11.3-2.2-16.4,0.3c-1.5,0.8-3.1,1.2-4.7,1.2c-7.6,0-13.7-8.6-13.7-19.2C215.2,322.5,216.2,318.5,218.1,314.9z"/>
<path class="st1" d="M218.7,700.1c13.5,8.6,33-0.1,46.7,8.4c3.5,2.2,6.4,5.4,10,7.4c4.4,2.4,9.5,2.8,14.5,3
	c41.6,1.6,83.9-10,124.5-0.6c11.4,2.6,22.5,6.9,34.1,7.5c20.1,1.1,39.3-8.7,59.5-9.2c30.5-0.8,60.5,19.6,89.9,11.5
	c9.7-2.7,18.6-8.3,28.5-9.2c11.1-1,21.8,3.8,32.7,6.7c38.4,10,78.3-6.2,118-7.4c25.9-0.8,51.5,4.8,77.3,6.2
	c18.4,0.9,36.8-0.4,55.2-1.7c7-0.5,14.3-1.1,20.2-4.9s9.5-12.1,5.8-18.1L218.7,700.1z"/>
<path class="st2" d="M218.7,700.1c13.5,8.6,33-0.1,46.7,8.4c3.5,2.2,6.4,5.4,10,7.4c4.4,2.4,9.5,2.8,14.5,3
	c41.6,1.6,83.9-10,124.5-0.6c11.4,2.6,22.5,6.9,34.1,7.5c20.1,1.1,39.3-8.7,59.5-9.2c30.5-0.8,60.5,19.6,89.9,11.5
	c9.7-2.7,18.6-8.3,28.5-9.2c11.1-1,21.8,3.8,32.7,6.7c38.4,10,78.3-6.2,118-7.4c25.9-0.8,51.5,4.8,77.3,6.2
	c18.4,0.9,36.8-0.4,55.2-1.7c7-0.5,14.3-1.1,20.2-4.9s9.5-12.1,5.8-18.1L218.7,700.1z"/>
<path class="st1" d="M218.7,695.1c13.5,8.6,33-0.1,46.7,8.4c3.5,2.2,6.4,5.4,10,7.4c4.4,2.4,9.5,2.8,14.5,3
	c41.6,1.6,83.9-10,124.5-0.6c11.4,2.6,22.5,6.9,34.1,7.5c20.1,1.1,39.3-8.7,59.5-9.2c30.5-0.8,60.5,19.6,89.9,11.5
	c9.7-2.7,18.6-8.3,28.5-9.2c11.1-1,21.8,3.8,32.7,6.7c38.4,10,78.3-6.2,118-7.4c25.9-0.8,51.5,4.8,77.3,6.2
	c18.4,0.9,36.8-0.4,55.2-1.7c7-0.5,14.3-1.1,20.2-4.9s9.5-12.1,5.8-18.1L218.7,695.1z"/>
<g class="st3">
	<path class="st1" d="M122.4,571.9c0,4.3-1.1,8.6-3.2,12.4c4.3,7.7,4.3,17.1,0,24.8c1.1,1.9,1.9,3.9,2.4,6
		c-10.9-14.4-21-29.4-30.1-45l0,0c0.2-3.7,1.3-7.3,3.2-10.6c-2.2-3.8-3.3-8-3.2-12.4c0-2.9,0.5-5.8,1.5-8.6c0.5-1.3,1.1-2.6,1.8-3.8
		c2.8-4.8,7.3-7.9,12.2-7.9s9.4,3.1,12.2,7.9c0.7,1.2,1.3,2.4,1.7,3.7c1,2.8,1.5,5.8,1.5,8.7c0,4.3-1.1,8.6-3.2,12.4
		C121.3,563.2,122.4,567.5,122.4,571.9z"/>
	<ellipse class="st1" cx="106.9" cy="522.3" rx="15.5" ry="20.3"/>
	<ellipse class="st1" cx="106.9" cy="497.6" rx="15.5" ry="20.3"/>
	<path class="st4" d="M180.7,373.9c0,16.6-5.6,32.8-15.9,45.8c25.3,32.2,19.7,78.8-12.4,104.1c-9.2,7.3-20,12.2-31.6,14.5
		c-1.8,0.4-3.6,0.6-5.4,0.9c-5.6,0.7-11.3,0.7-17,0.1c-1.9-0.2-3.7-0.5-5.6-0.8c-8.1-1.5-15.9-4.3-23-8.4
		c-13.3-27.2-24.9-55.2-34.8-83.8c2.6-9.6,7.1-18.6,13.3-26.5c-15.5-19.7-20-45.9-12-69.6l56.3,18.9l-52.8-27.4
		c2.3-4.8,5.2-9.3,8.4-13.5C22.9,296,28.5,249.4,60.7,224c32.2-25.3,78.8-19.8,104.1,12.4c2.2,2.8,4.2,5.7,5.9,8.7l-54.4,40l59-30.6
		c7.6,18.9,7.1,40.2-1.4,58.7l-44-0.3l40.7,6.7c-1.7,3-3.7,5.8-5.8,8.5C175,341.2,180.7,357.3,180.7,373.9z"/>
	<path class="st2" d="M180.7,465.6c0,35.4-25.1,65.9-59.8,72.7c-1.8,0.4-3.6,0.6-5.4,0.9c-5.6,0.7-11.3,0.7-17,0.1
		c-1.9-0.2-3.7-0.5-5.6-0.8c-8.1-1.5-15.9-4.3-23-8.4c-13.3-27.2-25-55.2-34.9-83.8c2.6-9.6,7.1-18.6,13.3-26.5
		c-10.3-13.1-15.9-29.2-15.9-45.9c0-8.3,142.3,33.2,132.4,45.8C175.1,432.8,180.7,449,180.7,465.6z"/>
</g>
<g class="st3">
	<path class="st1" d="M1014.9,552.6c-2.9,9.3-6,18.5-9.2,27.4c-0.9-2.6-1.3-5.4-1.3-8.2C1004.4,562.9,1008.8,555.3,1014.9,552.6z"/>
	<path class="st4" d="M1046,393c0,17.5-3.5,45.3-10,77c-5.7,27.9-12.7,55.4-21.2,82.6c-2.9,9.3-6,18.5-9.2,27.4
		c-3.7,10.2-7.5,20.1-11.5,29.6c-38.6-14.2-58.4-56.9-44.2-95.5c2.7-7.3,6.5-14.1,11.3-20.3c-15.5-19.7-20-46-12-69.8l56.3,18.9
		l-52.8-27.5c2.3-4.8,5.2-9.3,8.4-13.5c-25.4-32.3-19.7-79.1,12.6-104.5c5.1-4,10.6-7.3,16.5-9.8c22.7,15.5,39.8,37.9,48.8,63.9
		l-9.7,7.3l10.5-5.4c3.5,10.8,5.6,22,6.1,33.3h-2.9l3,0.5C1046,389.2,1046,391.1,1046,393z"/>
	<path class="st2" d="M1036.1,470c-5.7,27.9-12.7,55.4-21.2,82.6c-2.9,9.3-6,18.5-9.2,27.4c-3.7,10.2-7.5,20.1-11.5,29.6
		c-38.6-14.2-58.4-56.9-44.2-95.5c2.7-7.3,6.5-14.1,11.3-20.3c-10.3-13.1-15.9-29.3-15.9-45.9C945.4,442.9,997.1,456,1036.1,470z"/>
</g>
<path class="st0" d="M1045.9,387.3c0-0.1,0-0.3,0-0.5c-0.5-11.3-2.6-22.5-6.1-33.3c-0.2-0.6-0.4-1.2-0.6-1.8
	c-8.9-26-26-48.4-48.8-63.9c-52.7-35.9-123.8-27.1-166.2,20.5c-2.1-12.1-5.5-24-10.1-35.5c-33.4,4.2-67,5.5-100.6,3.8
	c20.6,9.5,41.9,17.2,63.8,23.2l-0.8,2.9c-24.6-6.7-48.4-15.6-71.3-26.7l-6.9-3.4l7.7,0.5c35.7,2.3,71.5,1.3,107-3.1
	c-7.7-18.3-18.3-35.2-31.5-50.1c-57.6-5.8-114.7-17.9-168-41.8l1.2-2.7c51.9,23.3,107.5,35.3,163.7,41.2
	c-67.7-72.6-181.5-76.5-254.1-8.8c-12.3,11.5-23,24.7-31.7,39.2c-5.3-51.6-26.7-100.2-61.2-138.9c-30.7,12.3-62.4,21.9-94.8,28.7
	c-48.7,10.3-98.5,14.3-148.1,11.8c20.6,9.5,41.9,17.2,63.8,23.2l-0.8,2.9c-24.5-6.7-48.4-15.6-71.3-26.7l-6.9-3.4l7.7,0.5
	c84.7,5.6,169.5-7.9,248.4-39.3c-3-3.2-6-6.4-9.2-9.5c-98.4,2-205.6,1-302.6-34.3C44.4,107-0.1,186.8,0,272.8
	c0,46.5,12.8,110.4,35,174.5c9.9,28.7,21.6,56.7,34.9,84c6.8,13.8,14,27.2,21.6,40l0,0c9.1,15.6,19.2,30.6,30.1,45
	c2,2.6,3.9,5.1,5.9,7.6c11.2,14.2,23.7,27.2,37.5,38.9l0,0c2.8,2.3,5.6,4.5,8.4,6.6c7.5,5.7,15.6,10.7,24,15
	c14.7,7.3,29.8,11.7,45.3,12.3c1.2,0,2.5,0.1,3.7,0.1v0.5h672v-0.5h0.5c3.9,0,7.7-0.7,11.4-2c23.8-8.4,45.6-42.3,63.8-85.1
	c4-9.5,7.9-19.4,11.5-29.6c3.2-9,6.3-18.2,9.2-27.4c8.4-27.1,15.5-54.7,21.2-82.6c6.4-31.7,10-59.5,10-77
	C1046,391.1,1046,389.2,1045.9,387.3z"/>
<path class="st4" d="M334.1,667.8l19.1-11.3c-2.6-4.4-5.9-8.4-9.8-11.7L307.3,656l28.3-16.6c-22.3-12.2-50.2-4-62.4,18.2
	c-3.7,6.8-5.7,14.4-5.7,22.1c0,25.4,20.6,26.3,46,26.3s46-0.9,46-26.3c0-6.4-1.3-12.8-4-18.7L334.1,667.8z"/>
<path class="st2" d="M338.9,692.5c-2-2-4.3-3.8-6.8-5.3c-3.5-2.3-7.1-4.7-11.2-5.5c-3.6-0.7-7.3-0.1-11-0.3
	c-6.4-0.4-12.4-3.1-16.8-7.7c-2.6-2.7-4.7-6-7.8-8.1c-3.4-2.2-7.7-2.7-11.7-2.2c-1.2,0.2-2.3,0.4-3.5,0.7c-1.8,5-2.7,10.3-2.7,15.6
	c0,25.4,20.6,26.3,46,26.3c12.3,0,23.5-0.2,31.8-3.3l-1.4-2.6C342.6,697.4,340.9,694.8,338.9,692.5z"/>
<path class="st5" d="M656.8,259.6L656.8,259.6c0.1,0.1,0.1,0.2,0,0.3l-0.8,1.2c-0.1,0.1-0.2,0.1-0.3,0l0,0c-0.1-0.1-0.1-0.2,0-0.3
	l0.8-1.2C656.6,259.6,656.7,259.6,656.8,259.6z"/>
<path class="st5" d="M654.8,262.4L654.8,262.4c0.1,0.1,0.1,0.2,0,0.3l-1.6,2.2c-0.1,0.1-0.2,0.1-0.3,0l0,0c-0.1-0.1-0.1-0.2,0-0.3
	l1.6-2.2C654.6,262.3,654.8,262.3,654.8,262.4z"/>
<path class="st6" d="M667.2,261.3l2,1.5c0.1,0.1,0.2,0.3,0.1,0.4l0,0c-0.1,0.1-0.3,0.2-0.4,0.1l-2-1.5c-0.1-0.1-0.2-0.3-0.1-0.4l0,0
	C666.8,261.2,667,261.2,667.2,261.3z"/>
<circle class="st6" cx="669.9" cy="263.7" r="0.4"/>
<g id="freepik--Character--inject-11">
	<path class="st7" d="M348.5,272.6c-6.7,0-13.1,5.5-17.1,15.6c-3.9,10.2-1.1,24.9-0.6,31.9c0.5,7-3.4,17-3.4,17
		c9.1-6.7,15.3-15.1,16.4-26.8c0.9,4.7,0.6,9.4-0.9,14c5.4-4.3,9.7-9.6,12.4-15.6c5-10.4,4.5-25.2,4.5-25.2S355.2,272.6,348.5,272.6
		z"/>
	<path class="st8" d="M343.6,285c-0.3,5.3,2.1,15.1,16.6,6.3c14.5-8.8-2.5-14.1-9.4-12.9C347,278.8,344,281.6,343.6,285z"/>
	<path class="st7" d="M350.6,285.5c-1.8,10.9,3.9,20.8,7.4,33.9c3.5,13,0.5,15.9,0.5,15.9s30.7-4.4,46.6-30
		c16-25.6-12.8-42.5-30.6-37.5C365.9,263.9,352.4,274.9,350.6,285.5z"/>
	<path class="st9" d="M425.1,348c0.2,1.5,0.4,3.2,0.6,4.9c0.2,1.6,0.5,3.4,0.8,5c0.6,3.4,1.3,6.7,2.1,10.1s1.7,6.6,2.7,9.9
		c1,3.3,2.1,6.5,3.5,9.6l0.5,1.2l0.3,0.6l0.2,0.4c0.1,0.3,0.3,0.6,0.4,0.8c0.1,0.3,0.3,0.6,0.5,0.9c0.8,1.3,1.7,2.6,2.7,3.8
		c2.3,2.6,4.7,5.1,7.3,7.5c5.3,4.9,11,9.7,16.8,14.3l-4.5,6.2c-7.3-3.4-14.2-7.4-20.7-11.9c-3.4-2.3-6.5-4.9-9.5-7.7
		c-1.6-1.5-3.1-3.1-4.4-4.8c-0.4-0.5-0.7-0.9-1-1.4c-0.4-0.5-0.7-1-1-1.5l-0.5-0.8l-0.3-0.6l-0.7-1.3c-3.5-6.9-6.2-14-8.3-21.3
		c-1-3.6-1.9-7.3-2.6-11c-0.3-1.9-0.6-3.7-0.9-5.6c-0.3-1.9-0.5-3.7-0.6-5.7L425.1,348z"/>
	<path class="st8" d="M419.4,334c5.6,1.3,9.5,22,9.5,22l-15.4,9.5c0,0-14.7-20.8-10.5-26.5C407.2,333.3,411.3,332.2,419.4,334z"/>
	<g class="st10">
		<path class="st11" d="M419.4,334c5.6,1.3,9.5,22,9.5,22l-15.4,9.5c0,0-14.7-20.8-10.5-26.5C407.2,333.3,411.3,332.2,419.4,334z"/>
	</g>
	<path class="st12" d="M418.9,338.7l4.2,20.8l-2.1,1.3v1.3c-0.3,7.9-1.4,15.7-3.2,23.4l-3.5-8.4l-3.1-11l3.4-1.4L418.9,338.7z"/>
	<path class="st9" d="M466.1,417l10.5,3.7l-11.8,6.4c0,0-7.5-3.9-7.3-9l1.2-0.6C460.9,416.3,463.7,416.1,466.1,417z"/>
	<polygon class="st9" points="483,427.6 474.2,434.3 464.8,427.1 476.6,420.7 	"/>
	<path class="st8" d="M419.4,334c0,0,6.4,2-6.5,73.7H358c0.9-20.2,1.1-32.7-9.6-74.1c7.6-1.4,15.3-2.3,23-2.8
		c8.3-0.5,16.6-0.5,24.9,0C407.3,331.8,419.4,334,419.4,334z"/>
	<g class="st13">
		<path class="st11" d="M419.4,334c0,0,6.4,2-6.5,73.7H358c0.9-20.2,1.1-32.7-9.6-74.1c7.6-1.4,15.3-2.3,23-2.8
			c8.3-0.5,16.6-0.5,24.9,0C407.3,331.8,419.4,334,419.4,334z"/>
	</g>
	<path class="st12" d="M354.5,359.1l5.1,1.3l1.8-3.4c0,0,28.5,8.9,40.9,4.6c8-2.8,10.8-5.5,10.8-5.5l-60.2-4L354.5,359.1z"/>
	<polygon class="st9" points="376,682.8 389.5,682.8 395,654.5 381.5,654.5 	"/>
	<path class="st7" d="M390.6,681.5h-15.2c-0.5,0-1,0.3-1.1,0.8l-1.7,10.9c-0.2,1,0.6,2,1.8,2.2c0.1,0,0.2,0,0.3,0
		c5.3,0,7.9-0.4,14.5-0.4c4.2,0,15.9,0.4,21.6,0.4c5.7,0,6-5.1,3.6-5.5c-10.6-2-18.1-4.9-21.6-7.6
		C392.1,681.8,391.4,681.5,390.6,681.5z"/>
	<g class="st14">
		<polygon points="395,654.5 392.2,669.1 378.6,669.1 381.5,654.5 		"/>
	</g>
	<path class="st15" d="M371.7,330.9c8.3-0.5,16.6-0.5,24.9,0l1.6,0.1c2.1,3.4,2.5,8.7-2.3,16.3c0,0-21.9-8-27.6-16.3
		C369.4,331,370.5,331,371.7,330.9z"/>
	<path class="st7" d="M412.9,407.8c0,0,10.7,94.1,9.8,131.4c-0.9,38.7-27.6,127.2-27.6,127.2h-18.3c0,0,13.8-86.1,12.2-124.2
		c-1.8-41.5-16.3-134.3-16.3-134.3L412.9,407.8z"/>
	<path class="st16" d="M412.9,407.8c0,0,10.7,94.1,9.8,131.4c-0.9,38.7-27.6,127.2-27.6,127.2h-18.3c0,0,13.8-86.1,12.2-124.2
		c-1.8-41.5-16.3-134.3-16.3-134.3L412.9,407.8z"/>
	<polygon class="st7" points="375.2,666.9 396.7,666.9 398.3,660.7 374.3,659.9 	"/>
	<path class="st12" d="M389.2,431.2c13.5,24.5,2.7,69.2-2.1,85.9c-2.5-25-6.6-55.5-9.8-78C379.4,426.4,383,419.9,389.2,431.2z"/>
	<polygon class="st9" points="258.2,573.5 262.7,585 293.9,579.7 289.3,568.2 	"/>
	<path class="st7" d="M262.4,585.4l-1.1-13.7c0-0.5-0.4-0.9-1-1l-12.2-2.2c-1-0.2-2,0.4-2.2,1.3c0,0.2-0.1,0.4,0,0.6
		c0.5,4.8,1,7.1,1.4,13.1c0.3,3.8,0.7,14.3,1.1,19.4c0.4,5.1,6.1,5.7,6.4,3.6c1.6-9.5,4.2-16,7-19
		C262.2,586.9,262.5,586.1,262.4,585.4z"/>
	<g class="st14">
		<polygon points="293.9,579.7 277.8,582.5 273.3,571 289.3,568.2 		"/>
	</g>
	<path class="st7" d="M397.7,407.8c0,0-15,97.1-25.1,133.7c-10.5,38-89.4,41.2-89.4,41.2l-8-14.8c0,0,46.1-11.1,65.9-36.1
		c8.6-40.9,16.5-124,16.5-124H397.7z"/>
	<path class="st16" d="M397.7,407.8c0,0-15,97.1-25.1,133.7c-10.5,38-89.4,41.2-89.4,41.2l-8-14.8c0,0,46.1-11.1,65.9-36.1
		c8.6-40.9,16.5-124,16.5-124H397.7z"/>
	<polygon class="st7" points="274.2,566.5 281.3,584.8 288.5,584.8 281.5,564.2 	"/>
	<path class="st8" d="M264.4,589.9c0,1.1,0.4,2.1,1.1,3c0.4,0.4,1,0.6,1.6,0.6c0.3,0,0.7-0.2,0.8-0.4c0.8-1.5-2.3-6.5-2.7-7
		c-0.1-0.1-0.2-0.2-0.3-0.2c-0.1,0-0.2,0.1-0.3,0.2C264.4,587.3,264.3,588.6,264.4,589.9z M267.4,592.2c0.1,0.2,0.1,0.4,0,0.5
		c-0.1,0.1-0.2,0.2-0.3,0.2c-0.4,0-0.8-0.1-1-0.4c-1-1.7-1.3-3.6-0.8-5.5C266.2,588.6,266.9,590.4,267.4,592.2z"/>
	<path class="st8" d="M264.6,586.1c0,0,0,0.1,0,0.1c0.9,1.5,4,4.5,5.5,4.4c0.4,0,0.8-0.2,0.8-1c0-0.6-0.2-1.2-0.7-1.6
		c-1.5-1.2-3.4-1.9-5.4-2.1C264.7,585.8,264.5,585.9,264.6,586.1C264.5,586.1,264.5,586.1,264.6,586.1L264.6,586.1z M270.3,589.3
		c0,0.1,0,0.1,0,0.2c0,0.5-0.3,0.5-0.3,0.6c-0.9,0-3.4-2-4.5-3.5c1.6,0.2,3.1,0.8,4.3,1.8C270.1,588.5,270.3,588.9,270.3,589.3
		L270.3,589.3z"/>
	<path class="st8" d="M395.6,683.5c1.2,0.1,2.3-0.2,3.3-0.8c0.4-0.4,0.7-0.9,0.6-1.4c0-0.3-0.2-0.6-0.5-0.8c-1.7-0.8-7,1.7-7.6,1.9
		c-0.1,0.1-0.2,0.2-0.2,0.3c0,0.1,0.1,0.2,0.3,0.2C392.8,683.3,394.2,683.5,395.6,683.5z M398,681c0.2,0,0.4,0,0.6,0.1
		c0.1,0,0.2,0.2,0.2,0.3c0.1,0.3-0.1,0.7-0.4,0.9c-0.8,0.7-3,0.8-6,0.3C394.2,681.8,396.1,681.3,398,681z"/>
	<path class="st8" d="M391.4,683.1h0.1c1.6-0.6,4.8-3.3,4.5-4.7c0-0.3-0.3-0.7-1.2-0.8c-0.6-0.1-1.3,0.1-1.8,0.5
		c-1.2,1.3-2,3-2.1,4.7c0,0.1,0,0.2,0.1,0.3C391.2,683.1,391.3,683.1,391.4,683.1z M394.6,678.1h0.2c0.6,0,0.6,0.3,0.6,0.3
		c0.1,0.8-2.1,2.9-3.7,3.8c0.1-1.4,0.7-2.7,1.7-3.8C393.8,678.2,394.2,678.1,394.6,678.1z"/>
	<path class="st9" d="M374.1,305.5c1.6,7.2,3.1,20.5-2.5,25.4c0,0,2.1,7.4,17.1,7.4c16.4,0,7.8-7.4,7.8-7.4
		c-8.9-1.9-8.7-7.9-7.1-13.6L374.1,305.5z"/>
	<path class="st12" d="M380.3,310.3l9.1,7c-0.4,1.3-0.6,2.6-0.8,4c-3.4-0.4-8.1-3.8-8.4-7.1C380,312.9,380,311.6,380.3,310.3z"/>
	<path class="st9" d="M365.4,293c3.1,11.8,4.2,16.9,11.9,22c11.8,7.7,27.1,1.7,28.1-10.7c0.8-11.2-4.3-28.6-18.1-31.4
		c-9.9-2-19.7,3.6-21.9,12.5C364.7,287.9,364.7,290.5,365.4,293z"/>
	<path class="st7" d="M370.8,282.3c4.7,3.3,2.7,15.1-3.2,18.8C358.4,299.1,356.7,272.5,370.8,282.3z"/>
	<path class="st7" d="M387.4,270.5c5.3,0.8,12,8,13.5,10.9c-8-1.3-29.9,4.8-29.9,4.8s-9.8-1-4.3-7.8
		C372.1,271.6,387.4,270.5,387.4,270.5z"/>
	<path class="st7" d="M388.5,292.9c0.2,1,0.9,1.7,1.6,1.6c0.7-0.1,1.1-1,0.9-1.9s-0.9-1.7-1.6-1.6S388.2,291.9,388.5,292.9z"/>
	<path class="st7" d="M400.5,291c0.2,1,0.9,1.7,1.6,1.6c0.7-0.1,1.1-1,0.9-1.9c-0.2-0.9-0.9-1.7-1.6-1.6
		C400.8,289.2,400.3,290.1,400.5,291z"/>
	<path class="st7" d="M401.2,289.2l2.5-1.1C403.6,288.1,402.7,290.1,401.2,289.2z"/>
	<path class="st9" d="M395.8,293.4c1.4,2.1,3.1,4,5,5.7c-1,0.9-2.3,1.3-3.7,1.2L395.8,293.4z"/>
	<path class="st7" d="M391.9,304.9c0.5,0,1.1-0.1,1.6-0.1c0.2,0,0.3-0.2,0.3-0.3c0-0.2-0.2-0.3-0.4-0.2c-2.7,0.5-5.5-0.2-7.5-1.9
		c-0.1-0.1-0.3-0.1-0.4,0c0,0,0,0,0,0c-0.1,0.1-0.1,0.3,0,0.4C387.2,304.2,389.6,305,391.9,304.9z"/>
	<path class="st9" d="M363.9,304.5c1.3,2,3.4,3.5,6,4.1c3.3,0.8,4.9-1.9,3.9-4.8c-0.9-2.5-3.7-6-7-5.5c-2.4,0.4-4,2.4-3.6,4.6
		C363.3,303.5,363.6,304,363.9,304.5z"/>
	<path class="st7" d="M381.8,291.4c0.3,0,0.5-0.2,0.6-0.4c0.9-1.7,2.5-3.1,4.5-3.7c0.3-0.1,0.5-0.4,0.4-0.7
		c-0.1-0.3-0.5-0.5-0.8-0.4c0,0,0,0,0,0c-2.4,0.7-4.4,2.3-5.4,4.4c-0.1,0.3,0.1,0.6,0.4,0.7L381.8,291.4z"/>
	<path class="st7" d="M401.9,285.4c0.4,0,0.6-0.3,0.6-0.6c0-0.2-0.1-0.4-0.3-0.5c-1.8-1-3.9-1.1-5.8-0.4c-0.3,0.1-0.5,0.5-0.3,0.8
		c0,0,0,0,0,0c0.2,0.3,0.5,0.4,0.9,0.2l0,0c1.5-0.6,3.2-0.4,4.6,0.3C401.7,285.4,401.8,285.4,401.9,285.4z"/>
	<path class="st7" d="M389,291.1l2.5-1.1C391.5,290,390.6,292,389,291.1z"/>
	<path class="st17" d="M357.2,404.9l-1.4,4.4c-0.2,0.3,0.3,0.7,0.9,0.7h56.6c0.5,0,0.9-0.2,0.9-0.5l0.5-4.4c0-0.3-0.4-0.6-0.9-0.6
		h-55.7C357.7,404.5,357.4,404.6,357.2,404.9z"/>
	<path class="st8" d="M364.7,410.5h-1.5c-0.3,0-0.5-0.2-0.5-0.3l0.7-5.8c0-0.2,0.3-0.3,0.6-0.3h1.5c0.3,0,0.5,0.1,0.5,0.3l-0.7,5.8
		C365.2,410.3,365,410.5,364.7,410.5z"/>
	<g class="st18">
		<path d="M364.7,410.5h-1.5c-0.3,0-0.5-0.2-0.5-0.3l0.7-5.8c0-0.2,0.3-0.3,0.6-0.3h1.5c0.3,0,0.5,0.1,0.5,0.3l-0.7,5.8
			C365.2,410.3,365,410.5,364.7,410.5z"/>
	</g>
	<path class="st8" d="M409,410.5h-1.5c-0.3,0-0.5-0.2-0.5-0.3l0.7-5.8c0-0.2,0.3-0.3,0.6-0.3h1.5c0.3,0,0.5,0.1,0.5,0.3l-0.7,5.8
		C409.6,410.3,409.4,410.5,409,410.5z"/>
	<path class="st19" d="M409,410.5h-1.5c-0.3,0-0.5-0.2-0.5-0.3l0.7-5.8c0-0.2,0.3-0.3,0.6-0.3h1.5c0.3,0,0.5,0.1,0.5,0.3l-0.7,5.8
		C409.6,410.3,409.4,410.5,409,410.5z"/>
	<path class="st8" d="M386.8,410.5h-1.5c-0.3,0-0.5-0.2-0.5-0.3l0.7-5.8c0-0.2,0.3-0.3,0.6-0.3h1.5c0.3,0,0.5,0.1,0.5,0.3l-0.7,5.8
		C387.4,410.3,387.1,410.5,386.8,410.5z"/>
	<path class="st19" d="M386.8,410.5h-1.5c-0.3,0-0.5-0.2-0.5-0.3l0.7-5.8c0-0.2,0.3-0.3,0.6-0.3h1.5c0.3,0,0.5,0.1,0.5,0.3l-0.7,5.8
		C387.4,410.3,387.1,410.5,386.8,410.5z"/>
	<path class="st8" d="M446.6,315.3L457,306c1.5-1.3,3.9-1.3,5.4,0l4.2,3.9c1.5,1.4,1.5,3.5,0,4.9l-10.4,9.3c-1.5,1.3-3.9,1.3-5.4,0
		l-4.2-3.9C445.1,318.8,445.1,316.6,446.6,315.3z"/>
	<path class="st20" d="M452.6,316.8l-3.5,3.1c-0.1,0.1-0.3,0.1-0.4,0c0,0,0,0,0,0l0,0c-0.1-0.1-0.1-0.3,0-0.4l3.5-3.1
		c0.1-0.1,0.3-0.1,0.4,0c0,0,0,0,0,0l0,0C452.7,316.5,452.7,316.7,452.6,316.8C452.6,316.8,452.6,316.8,452.6,316.8z"/>
	<path class="st20" d="M460.1,305.8l-3.5,3.1c-0.1,0.1-0.3,0.1-0.4,0l0,0c-0.1-0.1-0.1-0.3,0-0.4c0,0,0,0,0,0l3.5-3.1
		c0.1-0.1,0.3-0.1,0.4,0c0,0,0,0,0,0l0,0C460.3,305.5,460.3,305.7,460.1,305.8z"/>
	<path class="st20" d="M457.3,321.1l-3.5,3.1c-0.1,0.1-0.3,0.1-0.4,0l0,0c-0.1-0.1-0.1-0.3,0-0.4l3.5-3.1c0.1-0.1,0.3-0.1,0.4,0l0,0
		C457.4,320.8,457.4,321,457.3,321.1z"/>
	<path class="st20" d="M451.1,320.1l-0.9,0.8c-0.1,0.1-0.3,0.1-0.5,0l0,0c-0.1-0.1-0.1-0.3,0-0.4l0.9-0.8c0.1-0.1,0.3-0.1,0.5,0l0,0
		C451.2,319.8,451.2,320,451.1,320.1z"/>
	<path class="st12" d="M466.4,313.7l-1.1,1c-0.8,0.7-2,0.7-2.7,0l0,0c-0.8-0.7-0.8-1.8,0-2.5l1.1-1c0.8-0.7,2-0.7,2.7,0l0,0
		C467.2,312,467.2,313.1,466.4,313.7z"/>
	<path class="st9" d="M354.4,336.8c3.2,1.2,6.8,2.4,10.3,3.5s7,2.2,10.5,3.2c6.8,2,13.8,3.6,21,4.6l1.3,0.2h0.3c0.1,0,0,0,0,0l0,0
		c0.4,0,0.8,0,1.2-0.1c1.4-0.3,2.8-0.8,4.2-1.3c3.2-1.3,6.4-2.9,9.4-4.5c6.3-3.4,12.7-7.3,19-11.1l5.4,5.5
		c-5.3,5.4-11,10.4-17.1,14.9c-3.2,2.4-6.6,4.5-10.2,6.5c-2,1.1-4.2,2-6.4,2.7c-1.4,0.5-2.9,0.8-4.5,0.9c-0.5,0-0.9,0-1.4,0h-1.1
		h-1.6c-2.1-0.1-4.2-0.3-6.3-0.5c-2.1-0.2-4.2-0.5-6.1-0.9c-4-0.6-7.9-1.5-11.8-2.5c-3.9-0.9-7.7-2-11.5-3.2
		c-3.8-1.2-7.4-2.4-11.3-4L354.4,336.8z"/>
	<path class="st9" d="M431.2,331.8l8.3-10.9l3.7,12c0,0-6.3,5.5-11.6,4L431.2,331.8z"/>
	<polygon class="st9" points="450.3,317.8 452.8,328 443.2,332.9 439.5,320.9 	"/>
	<path class="st8" d="M336.9,352.6c4,3.8,21.4,6.1,21.4,6.1l11-21.5c0,0-16-6.1-22.5-2.9S332.4,348.4,336.9,352.6z"/>
	<g class="st10">
		<path class="st11" d="M336.9,352.6c4,3.8,21.4,6.1,21.4,6.1l11-21.5c0,0-16-6.1-22.5-2.9S332.4,348.4,336.9,352.6z"/>
	</g>
	<path class="st7" d="M560.6,461.2l-6.1,0.5c-8.4,24.4-19.8,24.6-23.2,24.1c-6.3-1-9.9-7.2-8.1-13.8c2.5-9.1,13.9-12.8,21.1-14.4
		c-4.4-6-6.1-16.1-3.4-22.7l0,0c1.5-4.9,6.6-8.2,12.2-7.9c3.3-0.2,6.4,1.3,8.2,3.8c5,7.3-2.9,23.2-5.4,27.9L560.6,461.2z
		 M550.7,455.8c3.7-7.2,7.4-17.9,4.7-21.9c-0.4-0.6-0.9-1.3-3-1.3c-2.7-0.2-5.1,1.4-5.6,3.8l0,0
		C544.5,442.3,546.9,451.9,550.7,455.8z M529.8,472.1c-0.1,0.3-0.2,0.6-0.3,0.9c-1,3.8,0.9,7,3.4,7.4c2.5,0.4,9.2-2.9,14.7-17.9
		c-5,0.8-15.3,3.3-17.9,9.7H529.8z"/>
	<polygon class="st8" points="780,474.7 738.1,579.3 530.9,511.7 572.7,407.4 	"/>
	<polygon class="st21" points="780,474.7 738.1,579.3 530.9,511.7 572.7,407.4 	"/>
	<polygon class="st7" points="562.1,433.8 558.7,442.3 766,509.6 769.4,501.1 	"/>
	<polygon class="st7" points="746.5,558.4 744,564.7 536.7,497.3 539.2,491.1 	"/>
	<polygon class="st12" points="754.8,537.8 738.1,579.3 530.9,511.7 547.4,470.4 	"/>
	<path class="st7" d="M614.1,488.3L612,484c-23.8,1-27.2-7.1-27.8-9.7c-0.9-4.8,3.5-9.2,9.8-9.8c8.7-0.8,15.2,6.3,18.6,11
		c4.6-5.2,11.5-8.5,18.9-9l0,0c4.7-0.3,9.1,2.4,10.5,6.5c1.1,2.3,0.7,5-1,7c-5,5.7-21.2,4.6-26,4.1L614.1,488.3z M616.2,479.7
		c7.3,0.6,17.9,0.2,20.5-2.9c0.4-0.5,0.9-1,0.3-2.5c-0.6-2-2.7-3.2-4.9-2.9l0,0C625.6,471.9,619.8,474.9,616.2,479.7L616.2,479.7z
		 M595.7,469.4h-0.8c-3.6,0.3-5.9,2.7-5.5,4.6s5.2,5.7,19.9,5.4C607.2,476.1,602.2,469.4,595.7,469.4z"/>
	<polygon class="st8" points="665.2,546.1 561.4,546.1 561.4,481.6 664.9,481.6 	"/>
	<polygon class="st20" points="665.2,546.1 561.4,546.1 561.4,481.6 664.9,481.6 	"/>
	<polygon class="st7" points="638.7,481.6 630.2,481.6 630.6,546.1 639,546.1 	"/>
	<polygon class="st7" points="582.1,546.1 575.9,546.1 575.6,481.6 581.8,481.6 	"/>
	<polygon class="st12" points="602.6,546.1 561.4,546.1 561.4,481.6 602.3,481.6 	"/>
	<path class="st7" d="M639.5,556.9c-6.5,1.4-28.4,5.7-38.1-1.2c-3.2-2.2-5-5.7-4.8-9.3c0.2-6.2,4.4-9.7,11.4-10.6l0,0
		c9.1-1.1,22.6,3,30.6,9c2.5-6.9,8.2-17.6,20.6-18c9-0.3,17.2,4.9,18.2,11.6c0.5,3.6-0.4,15.1-33.9,17.9l-1,6.1L639.5,556.9z
		 M609.7,542.4L609.7,542.4c-3.6,0.4-5.4,1.7-5.4,4.8c-0.2,1.3,0.4,2.7,1.6,3.4c5.2,3.6,19.9,2.4,29.8,0.4
		C630.7,546.2,617.8,541.3,609.7,542.4z M644.9,549.4c20.6-2,25.5-7.7,25.1-10.7c-0.4-2.6-4.7-5.4-9.8-5.2c-0.4,0-0.8,0-1.2,0
		C650.2,534.7,646.3,544.6,644.9,549.4z"/>
	<polygon class="st8" points="573.8,557.5 704.6,541.6 711,584.8 580.2,600.7 	"/>
	<polygon class="st20" points="573.8,557.5 704.6,541.6 711,584.8 580.2,600.7 	"/>
	<polygon class="st22" points="652.6,547.9 704.6,541.6 711.1,584.8 659.1,591.1 	"/>
	<polygon class="st7" points="606.8,553.5 617.4,552.2 623.9,595.4 613.2,596.7 	"/>
	<polygon class="st7" points="678.4,544.7 686.2,543.8 692.7,587 684.9,588 	"/>
	<path class="st7" d="M528.7,475.5l-3,2.3c-9.1-20.2-20.7-36-38.5-40.5l3-2.3C507.2,439.1,519.1,454.7,528.7,475.5z"/>
	<path class="st23" d="M528.7,475.5l-3,2.3c-9.1-20.2-20.7-36-38.5-40.5l3-2.3C507.2,439.1,519.1,454.7,528.7,475.5z"/>
	<path class="st7" d="M517,475.7l-4.2,2.7c-8.6-15.8-7.6-23.8-29.1-36l4.1-2.7C509.3,452.8,509.3,460.8,517,475.7z"/>
	<path class="st23" d="M517,475.7l-4.2,2.7c-8.6-15.8-7.6-23.8-29.1-36l4.1-2.7C509.3,452.8,509.3,460.8,517,475.7z"/>
	<path class="st7" d="M778.9,475.6H513.1c-2.8,0-5.1,2.1-5.1,4.6c0,0.7,0.2,1.3,0.5,1.9l61.7,122.4c1,1.9,3.2,3,5.4,2.7l194.3-26.1
		c2.3-0.3,4.1-2,4.4-4.2l9.8-96.2c0.3-2.5-1.8-4.8-4.6-5.1C779.2,475.6,779,475.6,778.9,475.6z M778.1,483.2l-9.3,92.2
		c-0.2,2-1.9,3.7-4.2,4l-186.1,25c-2.2,0.3-4.3-0.8-5.2-2.6l-59.1-117.2c-1.1-2.2,0-4.9,2.4-5.9c0.6-0.3,1.3-0.4,2-0.4h254.6
		c2.7,0,5,1.9,5,4.4C778.2,482.9,778.2,483.1,778.1,483.2L778.1,483.2z"/>
	<polygon class="st7" points="590.8,604.5 586.9,604.5 523.8,475.6 527.6,475.6 	"/>
	<polygon class="st7" points="608.2,602 604.4,602 543.9,475.6 547.8,475.6 	"/>
	<polygon class="st7" points="624.3,599.5 620.5,599.5 568.3,475.6 572.2,475.6 	"/>
	<polygon class="st7" points="641.6,596.9 637.7,596.9 590.8,475.6 594.7,475.6 	"/>
	<polygon class="st7" points="657.2,595 653.3,595 614.3,475.6 618.2,475.6 	"/>
	<polygon class="st7" points="674.8,592.7 671,592.7 636.4,475.6 640.3,475.6 	"/>
	<polygon class="st7" points="691.5,589.9 687.6,589.9 659.1,475.6 663,475.6 	"/>
	<polygon class="st7" points="708.9,588.2 705,588.2 682.2,475.6 686,475.6 	"/>
	<polygon class="st7" points="725.5,586.3 721.6,586.3 705.9,475.6 709.7,475.6 	"/>
	<polygon class="st7" points="742.1,583.5 738.2,583.5 729,475.6 732.9,475.6 	"/>
	<polygon class="st7" points="759.2,582.1 755.3,582.1 752.9,475.6 756.8,475.6 	"/>
	<polygon class="st7" points="778.2,512.3 778.2,515.8 531.4,525.9 531.4,522.4 	"/>
	<polygon class="st7" points="775.1,548.9 775.1,552.4 555.1,574.1 555.1,570.6 	"/>
	<path class="st8" d="M590.8,682.6c0,6.9-6.2,12.6-13.8,12.6c-7.7,0-13.9-5.6-13.9-12.5c0-6.9,6.2-12.6,13.8-12.6c0,0,0.1,0,0.1,0
		C584.6,670.1,590.8,675.7,590.8,682.6z"/>
	<path class="st7" d="M587.5,682.5c-1.3,3.6-5,6.1-9.2,6.1c-4,0.1-7.6-2.5-8.2-6.1l-4.3-23.8H601l-4.2,13.3
		c-0.3,0.9-0.8,1.8-1.5,2.5L587.5,682.5z"/>
	<path class="st24" d="M587.5,682.5c-1.3,3.6-5,6.1-9.2,6.1c-4,0.1-7.6-2.5-8.2-6.1l-4.3-23.8H601l-4.2,13.3
		c-0.3,0.9-0.8,1.8-1.5,2.5L587.5,682.5z"/>
	<path class="st8" d="M723.5,682.6c0,6.9,6.2,12.6,13.8,12.6s13.9-5.6,13.9-12.5c0-6.9-6.2-12.6-13.8-12.6c0,0,0,0-0.1,0
		C729.7,670.1,723.5,675.7,723.5,682.6z"/>
	<path class="st7" d="M726.8,682.5c1.3,3.6,5,6.1,9.2,6.1c4,0.1,7.6-2.5,8.2-6.1l4.3-23.8h-35.3l4.3,13.3c0.3,0.9,0.8,1.8,1.5,2.5
		L726.8,682.5z"/>
	<path class="st24" d="M726.8,682.5c1.3,3.6,5,6.1,9.2,6.1c4,0.1,7.6-2.5,8.2-6.1l4.3-23.8h-35.3l4.3,13.3c0.3,0.9,0.8,1.8,1.5,2.5
		L726.8,682.5z"/>
	<path class="st21" d="M778.9,475.6H513.1c-2.8,0-5.1,2.1-5.1,4.6c0,0.7,0.2,1.3,0.5,1.9l61.7,122.4c1,1.9,3.2,3,5.4,2.7l194.3-26.1
		c2.3-0.3,4.1-2,4.4-4.2l9.8-96.2c0.3-2.5-1.8-4.8-4.6-5.1C779.2,475.6,779,475.6,778.9,475.6z M773.2,478.4c2.7,0,4.9,2,4.9,4.4
		c0,0.1,0,0.3,0,0.4l-3,29.2l-17.6,0.7l-0.8-34.8L773.2,478.4z M534.9,525.7l13.2-0.5l21.6,44l-12.2,1.2L534.9,525.7z M551.9,525
		l15.4-0.6l20.5,43l-14.5,1.4L551.9,525z M717.1,554.6l-14.7,1.4l-7.5-36.9l17.1-0.7L717.1,554.6z M715.8,518.3l16.8-0.7l3,35.1
		l-14.7,1.5L715.8,518.3z M698.6,556.5l-15.1,1.5l-9.4-37.9l17-0.7L698.6,556.5z M679.7,558.4l-14.7,1.4l-11.5-38.9l16.6-0.7
		L679.7,558.4z M661.3,560.2l-15.1,1.5l-13-39.9l16.6-0.7L661.3,560.2z M642.5,562.1l-14,1.4l-15.8-40.8l16.6-0.7L642.5,562.1z
		 M624.8,563.8l-15,1.5l-17.6-41.8l16.8-0.7L624.8,563.8z M606.1,565.7l-14.7,1.5l-20.4-42.9l17.4-0.7L606.1,565.7z M589.3,570.9
		l14.5,30.3l-13.8,1.9l-15-30.9L589.3,570.9z M593,570.5l14.5-1.4l12.6,29.9l-12.6,1.7L593,570.5z M611.2,568.7l14.9-1.5l11.4,29.4
		l-13.7,1.9L611.2,568.7z M629.8,566.8l13.7-1.4l9.6,28.9l-11.9,1.6L629.8,566.8z M647.3,565.1l15-1.5l8.4,28.4l-14,1.9L647.3,565.1
		z M666,563.2l14.5-1.4l7,28l-13.1,1.8L666,563.2z M684.3,561.4l14.9-1.5l5.6,27.5l-13.6,1.9L684.3,561.4z M703,559.5l14.5-1.4
		l4.1,27.1l-12.8,1.7L703,559.5z M721.3,557.6l14.5-1.4l2.4,26.8l-12.9,1.7L721.3,557.6z M739.7,555.7l15-1.5l0.6,26.2l-13.3,1.8
		L739.7,555.7z M739.4,552.3l-3-34.9l17.4-0.7l0.8,34.1L739.4,552.3z M757.6,516.5l17.1-0.7l-3.4,33.3l-13,1.3L757.6,516.5z
		 M753,478.4l0.8,34.9l-17.6,0.7l-3.1-35.6H753z M729.3,478.4l3.1,35.8l-17,0.6l-5.2-36.5L729.3,478.4z M706.2,478.4l5.2,36.6
		l-17.3,0.7l-7.6-37.3H706.2z M682.7,478.4l7.6,37.5l-17.2,0.7l-9.5-38.2L682.7,478.4z M659.8,478.4l9.6,38.3l-16.8,0.7l-11.5-39
		L659.8,478.4z M637.2,478.4l11.6,39.2l-16.7,0.7l-13-39.9H637.2z M615.2,478.4l13.1,40l-16.8,0.7l-15.7-40.7H615.2z M591.9,478.4
		l15.8,40.9l-16.8,0.7l-17.5-41.5L591.9,478.4z M569.4,478.4L587,520l-17.6,0.7l-20.3-42.4L569.4,478.4z M545.3,478.4l20.3,42.6
		l-15.4,0.6L529,478.4L545.3,478.4z M518.7,478.4h6.5l21.2,43.4l-13.2,0.5l-18.9-37.6c-1.1-2.2-0.1-4.9,2.4-5.9
		C517.3,478.5,518,478.4,518.7,478.4L518.7,478.4z M573.3,601.9l-14.2-28.2l12.2-1.2l15.1,30.8l-7.9,1.1
		C576.3,604.8,574.2,603.7,573.3,601.9z M768.8,575.4c-0.2,2-1.9,3.7-4.2,4l-5.5,0.7l-0.6-26l12.6-1.2L768.8,575.4z"/>
	<path class="st8" d="M471.6,436.9l15.8,8.3l7-10.9l-15.8-8.3c-3.3-1.7-7.6-0.7-9.5,2.3c0,0,0,0,0,0l0,0
		C467.1,431.3,468.2,435.2,471.6,436.9C471.6,436.9,471.6,436.9,471.6,436.9z"/>
	<rect x="555" y="653.6" class="st7" width="206.2" height="6.8"/>
	<polygon class="st7" points="591.3,612.1 590.2,605.4 627,600.2 628.2,606.9 	"/>
	<path class="st7" d="M550.1,650c-1.5,1.7,0.8,4.2,5,3.7v6.8c-14.1,0.4-16.8-8.5-10.5-14.9L550.1,650z"/>
	<path class="st7" d="M584.4,615.2c1.8-1.8,4.3-2.9,6.9-3.2l-1.1-6.7c-4.3,0.6-8.3,2.5-11.4,5.4L584.4,615.2z"/>
	<rect x="555" y="653.6" class="st7" width="206.2" height="6.8"/>
	<polygon class="st7" points="591.3,612.1 590.2,605.4 627,600.2 628.2,606.9 	"/>
	<path class="st7" d="M550.1,650c-1.5,1.7,0.8,4.2,5,3.7v6.8c-14.1,0.4-16.8-8.5-10.5-14.9L550.1,650z"/>
	<path class="st7" d="M584.4,615.2c1.8-1.8,4.3-2.9,6.9-3.2l-1.1-6.7c-4.3,0.6-8.3,2.5-11.4,5.4L584.4,615.2z"/>
	<polygon class="st7" points="550,650 544.4,645.5 578.7,610.7 584.3,615.2 	"/>
	<polygon class="st7" points="550,650 544.4,645.5 578.7,610.7 584.3,615.2 	"/>
	<path class="st20" d="M555.1,653.6c-4.2,0.6-6.5-1.9-5-3.7l0,0l34.3-34.8l0,0c1.8-1.8,4.3-2.9,6.9-3.2l36.9-5.2l-1.2-6.7l-36.8,5.2
		c-4.3,0.6-8.3,2.5-11.4,5.4l-34.3,34.8l0,0c-6.3,6.4-3.5,15.4,10.5,14.9h206.2v-6.8L555.1,653.6z"/>
</g>
</svg>
