<?xml version="1.0" encoding="utf-8"?>
<!-- Generator: Adobe Illustrator 22.0.1, SVG Export Plug-In . SVG Version: 6.00 Build 0)  -->
<svg version="1.1" id="fbbf0112-9f0c-4059-91ae-024eb0aa32cc"
	 xmlns="http://www.w3.org/2000/svg" xmlns:xlink="http://www.w3.org/1999/xlink" x="0px" y="0px" viewBox="0 0 1046 729.9"
	 style="enable-background:new 0 0 1046 729.9;" xml:space="preserve">
<style type="text/css">
	.st0{opacity:0.1;fill:#FF6347;enable-background:new    ;}
	.st1{fill:#3F3D56;}
	.st2{opacity:0.1;enable-background:new    ;}
	.st3{opacity:0.1;}
	.st4{fill:#FF6347;}
	.st5{fill:#3A3768;}
	.st6{fill:#E6E8EC;}
	.st7{fill:#263238;}
	.st8{fill:#FF725E;}
	.st9{fill:#996234;}
	.st10{opacity:0.5;}
	.st11{fill:#FFFFFF;}
	.st12{opacity:0.2;enable-background:new    ;}
	.st13{opacity:0.4;}
	.st14{opacity:0.2;}
	.st15{fill:#FFB573;}
	.st16{opacity:0.3;fill:#263238;enable-background:new    ;}
	.st17{fill:#FAFAFA;}
	.st18{opacity:0.3;}
	.st19{opacity:0.3;enable-background:new    ;}
	.st20{opacity:0.4;fill:#FFFFFF;enable-background:new    ;}
	.st21{opacity:0.6;fill:#FFFFFF;enable-background:new    ;}
	.st22{opacity:0.2;fill:#FFFFFF;enable-background:new    ;}
	.st23{opacity:0.5;fill:#FFFFFF;enable-background:new    ;}
	.st24{opacity:0.3;fill:#FFFFFF;enable-background:new    ;}
</style>
<title>directions</title>
<path class="st0" d="M417.1,93.3C337,17,215.9,3.3,120.8,59.9C215.8,93.9,320.6,95.2,417.1,93.3z"/>
<path class="st0" d="M967.6,645.5L863.9,465.8c-0.9-1.6-2.9-2.1-4.5-1.2c-0.5,0.3-0.9,0.7-1.2,1.2L754.5,645.5
	c-0.9,1.6-0.4,3.6,1.1,4.5c0.5,0.3,1.1,0.5,1.7,0.5h30.9c1.8,0,3.3,1.5,3.3,3.3v38.3c0,1.8,1.5,3.3,3.3,3.3h40.4
	c1.8,0,3.3-1.5,3.3-3.3v-18.5c0-1.8,1.5-3.3,3.3-3.3h38.4c1.8,0,3.3,1.5,3.3,3.3v18.5c0,1.8,1.5,3.3,3.3,3.3h40.4
	c1.8,0,3.3-1.5,3.3-3.3v-38.4c0-1.8,1.5-3.3,3.3-3.3h30.9c1.8,0,3.3-1.5,3.3-3.3C968.1,646.5,967.9,646,967.6,645.5z M823,665.4
	c-0.6,0.6-1.5,1-2.3,1h-14.5c-1.8,0-3.3-1.5-3.3-3.3c0-1.8,1.5-3.3,3.3-3.3h14.6c1.8,0,3.3,1.5,3.3,3.3
	C824,663.9,823.7,664.8,823,665.4L823,665.4z M918.3,665.4c-0.6,0.6-1.5,1-2.3,1h-14.5c-1.8,0-3.3-1.5-3.3-3.3
	c0-1.8,1.5-3.3,3.3-3.3H916c1.8,0,3.3,1.5,3.3,3.3C919.3,663.9,919,664.8,918.3,665.4L918.3,665.4z"/>
<path class="st0" d="M326.5,647.1L222.8,467.4c-0.9-1.6-2.9-2.1-4.5-1.2c-0.5,0.3-0.9,0.7-1.2,1.2l-89.6,155.2
	c11.2,14.1,23.8,27.1,37.5,38.7h14.6c1.8,0,3.3,1.5,3.3,3.3c0,1.8-1.5,3.3-3.3,3.3h-6.2c7.5,5.7,15.6,10.7,24,14.9v-7.7
	c0-1.8,1.5-3.3,3.3-3.3h38.4c1.8,0,3.3,1.5,3.3,3.3v18.5c0,0.5,0.1,1,0.3,1.4c0.5,1.2,1.7,1.9,3,1.9h40.4c1,0,2-0.5,2.6-1.3
	c0.4-0.6,0.7-1.3,0.7-2v-38.3c0-1.8,1.5-3.3,3.3-3.3h30.9c1.8,0,3.3-1.5,3.3-3.3C327,648.2,326.8,647.6,326.5,647.1z M258,662.3
	c0.6-0.6,1.5-1,2.3-1h14.6c1.8,0,3.3,1.5,3.3,3.3c0,1.8-1.5,3.3-3.3,3.3h-14.6c-1.8,0-3.3-1.5-3.3-3.3
	C257,663.7,257.4,662.9,258,662.3L258,662.3z M192.9,595.8c-1.8,0-3.3-1.5-3.3-3.3v-25.1c0-1.8,1.5-3.3,3.3-3.3h54.2
	c1.8,0,3.3,1.5,3.3,3.3v25.1c0,1.8-1.5,3.3-3.3,3.3H192.9z"/>
<path class="st0" d="M736.5,324.3H608.2v-27.8c0-3.7-3-6.6-6.6-6.6l0,0h-37.7v-29.6c0-2.3-1.9-4.2-4.2-4.2h-48.5
	c-2.3,0-4.2,1.9-4.2,4.2v29.6h-44.3c-3.7,0-6.6,3-6.6,6.6v0v27.8H333.6c-0.7,0-1.3,0.6-1.3,1.4v368.5c0,0.7,0.6,1.3,1.3,1.3h81.3
	c0.7,0,1.4-0.6,1.4-1.3v-49.6c0-0.7,0.6-1.3,1.4-1.3H452c0.7,0,1.3,0.6,1.3,1.3v49.6c0,0.7,0.6,1.3,1.3,1.3h160.8
	c0.7,0,1.3-0.6,1.3-1.3v-49.6c0-0.7,0.6-1.3,1.3-1.3h34.4c0.7,0,1.3,0.6,1.3,1.3v49.6c0,0.7,0.6,1.3,1.3,1.3h81.3
	c0.7,0,1.3-0.6,1.3-1.3V325.7C737.9,324.9,737.3,324.3,736.5,324.3z M401.7,626.1c0,0.7-0.6,1.3-1.3,1.3h0h-50.2
	c-0.7,0-1.3-0.6-1.3-1.3c0,0,0,0,0,0v-17.1c0-0.7,0.6-1.3,1.4-1.3h50.2c0.7,0,1.3,0.6,1.3,1.3L401.7,626.1z M401.7,581.7
	c0,0.7-0.6,1.3-1.3,1.3c0,0,0,0,0,0h-50.2c-0.7,0-1.3-0.6-1.4-1.3c0,0,0,0,0,0v-17.1c0-0.7,0.6-1.3,1.3-1.3c0,0,0,0,0,0h50.2
	c0.7,0,1.3,0.6,1.3,1.3c0,0,0,0,0,0L401.7,581.7z M401.7,537.4c0,0.7-0.6,1.3-1.3,1.3h-50.2c-0.7,0-1.4-0.6-1.4-1.3v-17.2
	c0-0.7,0.6-1.3,1.4-1.3h50.2c0.7,0,1.3,0.6,1.3,1.3L401.7,537.4z M401.7,493c0,0.7-0.6,1.3-1.3,1.3c0,0,0,0,0,0h-50.2
	c-0.7,0-1.3-0.6-1.4-1.3c0,0,0,0,0,0v-17.1c0-0.7,0.6-1.3,1.3-1.3c0,0,0,0,0,0h50.2c0.7,0,1.3,0.6,1.3,1.3c0,0,0,0,0,0L401.7,493z
	 M401.7,448.7c0,0.7-0.6,1.3-1.3,1.3h-50.2c-0.7,0-1.4-0.6-1.4-1.3v-17.2c0-0.7,0.6-1.3,1.3-1.3c0,0,0,0,0,0h50.2
	c0.7,0,1.3,0.6,1.3,1.3l0,0L401.7,448.7z M401.7,404.4c0,0.7-0.6,1.3-1.3,1.3h-50.2c-0.7,0-1.3-0.6-1.3-1.3c0,0,0,0,0,0v-17.2
	c0-0.7,0.6-1.4,1.4-1.4l0,0h50.2c0.7,0,1.3,0.6,1.3,1.4L401.7,404.4z M401.7,360c0,0.7-0.6,1.3-1.3,1.3c0,0,0,0,0,0h-50.2
	c-0.7,0-1.3-0.6-1.4-1.3c0,0,0,0,0,0v-17.1c0-0.7,0.6-1.3,1.3-1.4c0,0,0,0,0,0h50.2c0.7,0,1.3,0.6,1.3,1.3c0,0,0,0,0,0L401.7,360z
	 M520.8,626c0,0.7-0.6,1.3-1.3,1.3c0,0,0,0,0,0h-50.2c-0.7,0-1.3-0.6-1.3-1.3v-17.1c0-0.7,0.6-1.3,1.3-1.3h50.2
	c0.7,0,1.3,0.6,1.3,1.3L520.8,626z M520.8,581.7c0,0.7-0.6,1.3-1.3,1.3c0,0,0,0,0,0h-50.2c-0.7,0-1.3-0.6-1.3-1.3v-17.1
	c0-0.7,0.6-1.3,1.3-1.3h50.2c0.7,0,1.3,0.6,1.3,1.3c0,0,0,0,0,0L520.8,581.7z M520.8,537.4c0,0.7-0.6,1.3-1.3,1.3h-50.2
	c-0.7,0-1.3-0.6-1.3-1.3v-17.1c0-0.7,0.6-1.3,1.3-1.3h50.2c0.7,0,1.3,0.6,1.3,1.3L520.8,537.4z M520.8,493c0,0.7-0.6,1.3-1.3,1.3
	c0,0,0,0,0,0h-50.2c-0.7,0-1.3-0.6-1.3-1.3v-17.1c0-0.7,0.6-1.3,1.3-1.3h50.2c0.7,0,1.3,0.6,1.3,1.3c0,0,0,0,0,0L520.8,493z
	 M520.8,448.7c0,0.7-0.6,1.3-1.3,1.3h-50.2c-0.7,0-1.3-0.6-1.3-1.3v-17.1c0-0.7,0.6-1.3,1.3-1.3h50.2c0.7,0,1.3,0.6,1.3,1.3
	c0,0,0,0,0,0L520.8,448.7z M520.8,404.4c0,0.7-0.6,1.3-1.3,1.3c0,0,0,0,0,0h-50.2c-0.7,0-1.3-0.6-1.3-1.3v-17.1
	c0-0.7,0.6-1.3,1.3-1.4h50.2c0.7,0,1.3,0.6,1.3,1.4L520.8,404.4z M520.8,360c0,0.7-0.6,1.3-1.3,1.4c0,0,0,0,0,0h-50.2
	c-0.7,0-1.3-0.6-1.3-1.4v-17.1c0-0.7,0.6-1.4,1.3-1.4h50.2c0.7,0,1.3,0.6,1.3,1.3c0,0,0,0,0,0L520.8,360z M602.2,626
	c0,0.7-0.6,1.3-1.3,1.3c0,0,0,0,0,0h-50.2c-0.7,0-1.3-0.6-1.3-1.3v-17.1c0-0.7,0.6-1.3,1.3-1.3h50.2c0.7,0,1.3,0.6,1.3,1.3
	L602.2,626z M602.2,581.7c0,0.7-0.6,1.3-1.3,1.3c0,0,0,0,0,0h-50.2c-0.7,0-1.3-0.6-1.3-1.3v-17.1c0-0.7,0.6-1.3,1.3-1.3h50.2
	c0.7,0,1.3,0.6,1.3,1.3c0,0,0,0,0,0L602.2,581.7z M602.2,537.4c0,0.7-0.6,1.3-1.3,1.3h-50.2c-0.7,0-1.3-0.6-1.3-1.3v-17.1
	c0-0.7,0.6-1.3,1.3-1.3h50.2c0.7,0,1.3,0.6,1.3,1.3L602.2,537.4z M602.2,493c0,0.7-0.6,1.3-1.3,1.3c0,0,0,0,0,0h-50.2
	c-0.7,0-1.3-0.6-1.3-1.3v-17.1c0-0.7,0.6-1.3,1.3-1.3h50.2c0.7,0,1.3,0.6,1.3,1.3c0,0,0,0,0,0L602.2,493z M602.2,448.7
	c0,0.7-0.6,1.3-1.3,1.3h-50.2c-0.7,0-1.3-0.6-1.3-1.3v-17.1c0-0.7,0.6-1.3,1.3-1.3h50.2c0.7,0,1.3,0.6,1.3,1.3c0,0,0,0,0,0
	L602.2,448.7z M602.2,404.4c0,0.7-0.6,1.3-1.3,1.3c0,0,0,0,0,0h-50.2c-0.7,0-1.3-0.6-1.3-1.3v-17.1c0-0.7,0.6-1.3,1.3-1.4h50.2
	c0.7,0,1.3,0.6,1.3,1.4L602.2,404.4z M602.2,360c0,0.7-0.6,1.3-1.3,1.4c0,0,0,0,0,0h-50.2c-0.7,0-1.3-0.6-1.3-1.4v-17.1
	c0-0.7,0.6-1.4,1.3-1.4h50.2c0.7,0,1.3,0.6,1.3,1.3c0,0,0,0,0,0L602.2,360z M721.3,626c0,0.7-0.6,1.3-1.3,1.3h-50.2
	c-0.7,0-1.3-0.6-1.3-1.3c0,0,0,0,0,0v-17.1c0-0.7,0.6-1.3,1.3-1.3H720c0.7,0,1.3,0.6,1.3,1.3L721.3,626z M721.3,581.7
	c0,0.7-0.6,1.3-1.3,1.3h-50.2c-0.7,0-1.3-0.6-1.3-1.3c0,0,0,0,0,0v-17.1c0-0.7,0.6-1.3,1.3-1.3c0,0,0,0,0,0H720
	c0.7,0,1.3,0.6,1.3,1.3L721.3,581.7z M721.3,537.4c0,0.7-0.6,1.3-1.3,1.3h-50.2c-0.7,0-1.3-0.6-1.3-1.3v-17.1c0-0.7,0.6-1.3,1.3-1.3
	H720c0.7,0,1.3,0.6,1.3,1.3L721.3,537.4z M721.3,493c0,0.7-0.6,1.3-1.3,1.3h-50.2c-0.7,0-1.3-0.6-1.3-1.3c0,0,0,0,0,0v-17.1
	c0-0.7,0.6-1.3,1.3-1.3c0,0,0,0,0,0H720c0.7,0,1.3,0.6,1.3,1.3L721.3,493z M721.3,448.7c0,0.7-0.6,1.3-1.3,1.3h-50.2
	c-0.7,0-1.3-0.6-1.3-1.3v-17.1c0-0.7,0.6-1.3,1.3-1.3c0,0,0,0,0,0H720c0.7,0,1.3,0.6,1.3,1.3L721.3,448.7z M721.3,404.4
	c0,0.7-0.6,1.4-1.3,1.4c0,0,0,0,0,0h-50.2c-0.7,0-1.3-0.6-1.3-1.3c0,0,0,0,0,0v-17.2c0-0.7,0.6-1.4,1.3-1.4H720
	c0.7,0,1.3,0.6,1.3,1.4L721.3,404.4z M721.3,360c0,0.7-0.6,1.4-1.3,1.4h-50.2c-0.7,0-1.3-0.6-1.3-1.3c0,0,0,0,0,0v-17.1
	c0-0.7,0.6-1.3,1.3-1.4c0,0,0,0,0,0H720c0.7,0,1.3,0.6,1.3,1.4L721.3,360z"/>
<path class="st0" d="M371,224.5c-5.6-1.1-11.5-0.4-16.8,1.8c-6.4,2.9-13.8,2.9-20.2-0.1c-7.6-3.3-16.2-3.2-23.7,0.5
	c-2.1,1.1-4.4,1.7-6.8,1.7c-9.6,0-17.6-9.7-19.2-22.4c1.9-1.4,3.5-3.2,4.8-5.2c5.6-9.1,14.4-14.9,24.1-14.9s18.4,5.8,24,14.7
	c3.4,5.5,9.5,8.8,16,8.8h0.2C361.1,209.4,367.7,215.5,371,224.5z"/>
<path class="st0" d="M400.2,184.4l-15.5,9.8l9.4-17.1c-2.7-2.1-6-3.3-9.4-3.4h-0.2c-1.1,0-2.2-0.1-3.2-0.2l-5.2,3.3l2.3-4.1
	c-3.7-1.3-6.9-3.8-9.2-7l-9.4,6l5.9-10.8c-5.5-6.6-12.9-10.7-21.1-10.7c-9.8,0-18.5,5.8-24.1,14.9c-3.4,5.5-9.5,8.8-16,8.6h-0.5
	c-10.8,0-19.6,12.2-19.6,27.4s8.8,27.4,19.6,27.4c2.4,0,4.7-0.6,6.8-1.7c7.4-3.6,16.1-3.8,23.7-0.5c6.4,2.9,13.7,2.9,20.1,0
	c7.5-3.3,16.1-3.1,23.5,0.5c2.1,1.1,4.4,1.7,6.7,1.7c10.8,0,19.6-12.3,19.6-27.4C404.3,195.3,402.9,189.5,400.2,184.4z"/>
<path class="st0" d="M832,406.9c-4-0.7-8-0.3-11.7,1.3c-4.5,2-9.6,2-14.1,0c-5.3-2.3-11.4-2.2-16.6,0.3c-1.5,0.8-3.1,1.2-4.8,1.2
	c-6.7,0-12.3-6.8-13.5-15.7c1.3-1,2.5-2.2,3.4-3.6c3.9-6.4,10-10.4,16.9-10.4s12.9,4,16.8,10.3c2.4,3.9,6.6,6.2,11.2,6.1h0.2
	C825.1,396.4,829.7,400.7,832,406.9z"/>
<path class="st0" d="M852.4,378.9l-10.9,6.9l6.6-12c-1.9-1.5-4.2-2.3-6.6-2.3h-0.2c-0.8,0-1.5,0-2.2-0.2l-3.7,2.3l1.6-2.9
	c-2.6-0.9-4.9-2.6-6.4-4.9L824,370l4.2-7.6c-3.8-4.6-9-7.5-14.8-7.5c-6.8,0-13,4.1-16.9,10.4c-2.4,3.9-6.6,6.2-11.2,6H785
	c-7.6,0-13.7,8.6-13.7,19.1s6.1,19.2,13.7,19.2c1.7,0,3.3-0.4,4.8-1.2c5.2-2.5,11.3-2.7,16.6-0.3c4.5,2,9.6,2,14.1,0
	c5.3-2.3,11.3-2.2,16.4,0.3c1.5,0.8,3.1,1.2,4.7,1.2c7.6,0,13.7-8.6,13.7-19.2C855.3,386.5,854.3,382.5,852.4,378.9z"/>
<path class="st0" d="M238.6,342.9c4-0.7,8-0.3,11.7,1.3c4.5,2,9.6,2,14.1,0c5.3-2.3,11.4-2.2,16.6,0.3c1.5,0.8,3.1,1.2,4.8,1.2
	c6.7,0,12.3-6.8,13.5-15.7c-1.3-1-2.5-2.2-3.4-3.6c-3.9-6.4-10-10.5-16.9-10.5s-12.9,4-16.8,10.3c-2.4,3.9-6.6,6.2-11.2,6.1h-0.2
	C245.5,332.4,240.9,336.7,238.6,342.9z"/>
<path class="st0" d="M218.1,314.9l10.9,6.9l-6.6-12c1.9-1.5,4.2-2.3,6.6-2.3h0.2c0.8,0,1.5,0,2.2-0.2l3.7,2.3l-1.6-2.9
	c2.6-0.9,4.9-2.6,6.5-4.9l6.6,4.2l-4.2-7.6c3.9-4.6,9-7.5,14.8-7.5c6.9,0,13,4.1,16.9,10.4c2.4,3.9,6.6,6.2,11.2,6h0.4
	c7.6,0,13.7,8.6,13.7,19.1s-6.1,19.2-13.7,19.2c-1.7,0-3.3-0.4-4.8-1.2c-5.2-2.5-11.3-2.7-16.6-0.3c-4.5,2-9.6,2-14.1,0
	c-5.3-2.3-11.3-2.2-16.4,0.3c-1.5,0.8-3.1,1.2-4.7,1.2c-7.6,0-13.7-8.6-13.7-19.2C215.2,322.5,216.2,318.5,218.1,314.9z"/>
<path class="st1" d="M218.7,700.1c13.5,8.6,33-0.1,46.7,8.4c3.5,2.2,6.4,5.4,10,7.4c4.4,2.4,9.5,2.8,14.5,3
	c41.6,1.6,83.9-10,124.5-0.6c11.4,2.6,22.5,6.9,34.1,7.5c20.1,1.1,39.3-8.7,59.5-9.2c30.5-0.8,60.5,19.6,89.9,11.5
	c9.7-2.7,18.6-8.3,28.5-9.2c11.1-1,21.8,3.8,32.7,6.7c38.4,10,78.3-6.2,118-7.4c25.9-0.8,51.5,4.8,77.3,6.2
	c18.4,0.9,36.8-0.4,55.2-1.7c7-0.5,14.3-1.1,20.2-4.9s9.5-12.1,5.8-18.1L218.7,700.1z"/>
<path class="st2" d="M218.7,700.1c13.5,8.6,33-0.1,46.7,8.4c3.5,2.2,6.4,5.4,10,7.4c4.4,2.4,9.5,2.8,14.5,3
	c41.6,1.6,83.9-10,124.5-0.6c11.4,2.6,22.5,6.9,34.1,7.5c20.1,1.1,39.3-8.7,59.5-9.2c30.5-0.8,60.5,19.6,89.9,11.5
	c9.7-2.7,18.6-8.3,28.5-9.2c11.1-1,21.8,3.8,32.7,6.7c38.4,10,78.3-6.2,118-7.4c25.9-0.8,51.5,4.8,77.3,6.2
	c18.4,0.9,36.8-0.4,55.2-1.7c7-0.5,14.3-1.1,20.2-4.9s9.5-12.1,5.8-18.1L218.7,700.1z"/>
<path class="st1" d="M218.7,695.1c13.5,8.6,33-0.1,46.7,8.4c3.5,2.2,6.4,5.4,10,7.4c4.4,2.4,9.5,2.8,14.5,3
	c41.6,1.6,83.9-10,124.5-0.6c11.4,2.6,22.5,6.9,34.1,7.5c20.1,1.1,39.3-8.7,59.5-9.2c30.5-0.8,60.5,19.6,89.9,11.5
	c9.7-2.7,18.6-8.3,28.5-9.2c11.1-1,21.8,3.8,32.7,6.7c38.4,10,78.3-6.2,118-7.4c25.9-0.8,51.5,4.8,77.3,6.2
	c18.4,0.9,36.8-0.4,55.2-1.7c7-0.5,14.3-1.1,20.2-4.9s9.5-12.1,5.8-18.1L218.7,695.1z"/>
<g class="st3">
	<path class="st1" d="M122.4,571.9c0,4.3-1.1,8.6-3.2,12.4c4.3,7.7,4.3,17.1,0,24.8c1.1,1.9,1.9,3.9,2.4,6
		c-10.9-14.4-21-29.4-30.1-45l0,0c0.2-3.7,1.3-7.3,3.2-10.6c-2.2-3.8-3.3-8-3.2-12.4c0-2.9,0.5-5.8,1.5-8.6c0.5-1.3,1.1-2.6,1.8-3.8
		c2.8-4.8,7.3-7.9,12.2-7.9s9.4,3.1,12.2,7.9c0.7,1.2,1.3,2.4,1.7,3.7c1,2.8,1.5,5.8,1.5,8.7c0,4.3-1.1,8.6-3.2,12.4
		C121.3,563.2,122.4,567.5,122.4,571.9z"/>
	<ellipse class="st1" cx="106.9" cy="522.3" rx="15.5" ry="20.3"/>
	<ellipse class="st1" cx="106.9" cy="497.6" rx="15.5" ry="20.3"/>
	<path class="st4" d="M180.7,373.9c0,16.6-5.6,32.8-15.9,45.8c25.3,32.2,19.7,78.8-12.4,104.1c-9.2,7.3-20,12.2-31.6,14.5
		c-1.8,0.4-3.6,0.6-5.4,0.9c-5.6,0.7-11.3,0.7-17,0.1c-1.9-0.2-3.7-0.5-5.6-0.8c-8.1-1.5-15.9-4.3-23-8.4
		c-13.3-27.2-24.9-55.2-34.8-83.8c2.6-9.6,7.1-18.6,13.3-26.5c-15.5-19.7-20-45.9-12-69.6l56.3,18.9l-52.8-27.4
		c2.3-4.8,5.2-9.3,8.4-13.5C22.9,296,28.5,249.4,60.7,224c32.2-25.3,78.8-19.8,104.1,12.4c2.2,2.8,4.2,5.7,5.9,8.7l-54.4,40l59-30.6
		c7.6,18.9,7.1,40.2-1.4,58.7l-44-0.3l40.7,6.7c-1.7,3-3.7,5.8-5.8,8.5C175,341.2,180.7,357.3,180.7,373.9z"/>
	<path class="st2" d="M180.7,465.6c0,35.4-25.1,65.9-59.8,72.7c-1.8,0.4-3.6,0.6-5.4,0.9c-5.6,0.7-11.3,0.7-17,0.1
		c-1.9-0.2-3.7-0.5-5.6-0.8c-8.1-1.5-15.9-4.3-23-8.4c-13.3-27.2-25-55.2-34.9-83.8c2.6-9.6,7.1-18.6,13.3-26.5
		c-10.3-13.1-15.9-29.2-15.9-45.9c0-8.3,142.3,33.2,132.4,45.8C175.1,432.8,180.7,449,180.7,465.6z"/>
</g>
<g class="st3">
	<path class="st1" d="M1014.9,552.6c-2.9,9.3-6,18.5-9.2,27.4c-0.9-2.6-1.3-5.4-1.3-8.2C1004.4,562.9,1008.8,555.3,1014.9,552.6z"/>
	<path class="st4" d="M1046,393c0,17.5-3.5,45.3-10,77c-5.7,27.9-12.7,55.4-21.2,82.6c-2.9,9.3-6,18.5-9.2,27.4
		c-3.7,10.2-7.5,20.1-11.5,29.6c-38.6-14.2-58.4-56.9-44.2-95.5c2.7-7.3,6.5-14.1,11.3-20.3c-15.5-19.7-20-46-12-69.8l56.3,18.9
		l-52.8-27.5c2.3-4.8,5.2-9.3,8.4-13.5c-25.4-32.3-19.7-79.1,12.6-104.5c5.1-4,10.6-7.3,16.5-9.8c22.7,15.5,39.8,37.9,48.8,63.9
		l-9.7,7.3l10.5-5.4c3.5,10.8,5.6,22,6.1,33.3h-2.9l3,0.5C1046,389.2,1046,391.1,1046,393z"/>
	<path class="st2" d="M1036.1,470c-5.7,27.9-12.7,55.4-21.2,82.6c-2.9,9.3-6,18.5-9.2,27.4c-3.7,10.2-7.5,20.1-11.5,29.6
		c-38.6-14.2-58.4-56.9-44.2-95.5c2.7-7.3,6.5-14.1,11.3-20.3c-10.3-13.1-15.9-29.3-15.9-45.9C945.4,442.9,997.1,456,1036.1,470z"/>
</g>
<path class="st0" d="M1045.9,387.3c0-0.1,0-0.3,0-0.5c-0.5-11.3-2.6-22.5-6.1-33.3c-0.2-0.6-0.4-1.2-0.6-1.8
	c-8.9-26-26-48.4-48.8-63.9c-52.7-35.9-123.8-27.1-166.2,20.5c-2.1-12.1-5.5-24-10.1-35.5c-33.4,4.2-67,5.5-100.6,3.8
	c20.6,9.5,41.9,17.2,63.8,23.2l-0.8,2.9c-24.6-6.7-48.4-15.6-71.3-26.7l-6.9-3.4l7.7,0.5c35.7,2.3,71.5,1.3,107-3.1
	c-7.7-18.3-18.3-35.2-31.5-50.1c-57.6-5.8-114.7-17.9-168-41.8l1.2-2.7c51.9,23.3,107.5,35.3,163.7,41.2
	c-67.7-72.6-181.5-76.5-254.1-8.8c-12.3,11.5-23,24.7-31.7,39.2c-5.3-51.6-26.7-100.2-61.2-138.9c-30.7,12.3-62.4,21.9-94.8,28.7
	c-48.7,10.3-98.5,14.3-148.1,11.8c20.6,9.5,41.9,17.2,63.8,23.2l-0.8,2.9c-24.5-6.7-48.4-15.6-71.3-26.7l-6.9-3.4l7.7,0.5
	c84.7,5.6,169.5-7.9,248.4-39.3c-3-3.2-6-6.4-9.2-9.5c-98.4,2-205.6,1-302.6-34.3C44.4,107-0.1,186.8,0,272.8
	c0,46.5,12.8,110.4,35,174.5c9.9,28.7,21.6,56.7,34.9,84c6.8,13.8,14,27.2,21.6,40l0,0c9.1,15.6,19.2,30.6,30.1,45
	c2,2.6,3.9,5.1,5.9,7.6c11.2,14.2,23.7,27.2,37.5,38.9l0,0c2.8,2.3,5.6,4.5,8.4,6.6c7.5,5.7,15.6,10.7,24,15
	c14.7,7.3,29.8,11.7,45.3,12.3c1.2,0,2.5,0.1,3.7,0.1v0.5h672v-0.5h0.5c3.9,0,7.7-0.7,11.4-2c23.8-8.4,45.6-42.3,63.8-85.1
	c4-9.5,7.9-19.4,11.5-29.6c3.2-9,6.3-18.2,9.2-27.4c8.4-27.1,15.5-54.7,21.2-82.6c6.4-31.7,10-59.5,10-77
	C1046,391.1,1046,389.2,1045.9,387.3z"/>
<path class="st4" d="M274.1,659.8l19.1-11.3c-2.6-4.4-5.9-8.4-9.8-11.7L247.3,648l28.3-16.6c-22.3-12.2-50.2-4-62.4,18.2
	c-3.7,6.8-5.7,14.4-5.7,22.1c0,25.4,20.6,26.3,46,26.3s46-0.9,46-26.3c0-6.4-1.3-12.8-4-18.7L274.1,659.8z"/>
<path class="st2" d="M338.9,692.5c-2-2-4.3-3.8-6.8-5.3c-3.5-2.3-7.1-4.7-11.2-5.5c-3.6-0.7-7.3-0.1-11-0.3
	c-6.4-0.4-12.4-3.1-16.8-7.7c-2.6-2.7-4.7-6-7.8-8.1c-3.4-2.2-7.7-2.7-11.7-2.2c-1.2,0.2-2.3,0.4-3.5,0.7c-1.8,5-2.7,10.3-2.7,15.6
	c0,25.4,20.6,26.3,46,26.3c12.3,0,23.5-0.2,31.8-3.3l-1.4-2.6C342.6,697.4,340.9,694.8,338.9,692.5z"/>
<path class="st5" d="M656.8,259.6L656.8,259.6c0.1,0.1,0.1,0.2,0,0.3l-0.8,1.2c-0.1,0.1-0.2,0.1-0.3,0l0,0c-0.1-0.1-0.1-0.2,0-0.3
	l0.8-1.2C656.6,259.6,656.7,259.6,656.8,259.6z"/>
<path class="st5" d="M654.8,262.4L654.8,262.4c0.1,0.1,0.1,0.2,0,0.3l-1.6,2.2c-0.1,0.1-0.2,0.1-0.3,0l0,0c-0.1-0.1-0.1-0.2,0-0.3
	l1.6-2.2C654.6,262.3,654.8,262.3,654.8,262.4z"/>
<path class="st6" d="M667.2,261.3l2,1.5c0.1,0.1,0.2,0.3,0.1,0.4l0,0c-0.1,0.1-0.3,0.2-0.4,0.1l-2-1.5c-0.1-0.1-0.2-0.3-0.1-0.4l0,0
	C666.8,261.2,667,261.2,667.2,261.3z"/>
<circle class="st6" cx="669.9" cy="263.7" r="0.4"/>
<g id="freepik--Character--inject-11">
	<path class="st7" d="M273,175.9c-7.9,0-15.4,6.7-20,19.2c-4.6,12.5-1.3,30.6-0.7,39.2c0.6,8.6-4,20.9-4,20.9
		c10.7-8.3,18-18.6,19.2-32.9c1.1,5.7,0.7,11.6-1.1,17.1c6.3-5.3,11.3-11.8,14.6-19.2c5.9-12.8,5.2-31,5.2-31S280.8,175.9,273,175.9
		z"/>
	<path class="st8" d="M267.3,191.1c-0.3,6.5,2.5,18.6,19.4,7.8c17-10.8-3-17.3-11.1-15.8C271.2,183.6,267.7,186.9,267.3,191.1z"/>
	<path class="st7" d="M275.4,191.8c-2.2,13.4,4.6,25.6,8.7,41.6s0.6,19.5,0.6,19.5s36-5.4,54.7-36.8s-15.1-52.2-35.9-46
		C293.4,165.2,277.6,178.7,275.4,191.8z"/>
	<path class="st9" d="M362.9,268.5c0.2,1.8,0.5,4,0.8,6c0.3,2,0.6,4.1,1,6.2c0.7,4.1,1.5,8.3,2.5,12.4c0.9,4.1,2,8.1,3.2,12.1
		c1.2,4,2.5,7.9,4.1,11.8l0.6,1.4l0.3,0.7l0.2,0.5c0.1,0.3,0.3,0.7,0.5,1c0.2,0.4,0.4,0.7,0.6,1.1c1,1.6,2,3.2,3.2,4.7
		c2.7,3.2,5.5,6.3,8.5,9.2c6.2,6,13,11.9,19.7,17.5l-5.3,7.6c-8.5-4.2-16.6-9.1-24.2-14.7c-4-2.9-7.7-6-11.1-9.4
		c-1.9-1.9-3.6-3.8-5.2-5.9c-0.4-0.6-0.8-1.1-1.2-1.7c-0.4-0.6-0.8-1.2-1.1-1.9l-0.5-1l-0.4-0.8l-0.8-1.6
		c-4.1-8.4-7.3-17.2-9.7-26.2c-1.2-4.5-2.2-9-3-13.5c-0.4-2.3-0.8-4.5-1.1-6.8c-0.3-2.3-0.5-4.5-0.7-7L362.9,268.5z"/>
	<path class="st8" d="M356.2,251.4c6.5,1.6,11.1,27,11.1,27l-18,11.6c0,0-17.2-25.6-12.3-32.6C341.9,250.5,346.6,249.1,356.2,251.4z
		"/>
	<g class="st10">
		<path class="st11" d="M356.2,251.4c6.5,1.6,11.1,27,11.1,27l-18,11.6c0,0-17.2-25.6-12.3-32.6
			C341.9,250.5,346.6,249.1,356.2,251.4z"/>
	</g>
	<path class="st12" d="M355.6,257.1l4.9,25.6l-2.5,1.7v1.6c-0.4,9.7-1.6,19.3-3.7,28.8l-4.1-10.4l-3.6-13.5l4-1.7L355.6,257.1z"/>
	<path class="st9" d="M411,353.3l12.3,4.5l-13.8,7.9c0,0-8.8-4.8-8.6-11.1l1.4-0.7C404.9,352.5,408.1,352.3,411,353.3z"/>
	<polygon class="st9" points="430.9,366.4 420.5,374.6 409.4,365.7 423.3,357.8 	"/>
	<path class="st8" d="M356.2,251.4c0,0,7.5,2.5-7.6,90.6h-64.4c1.1-24.8,1.3-40.1-11.2-91.1c8.9-1.7,18-2.9,27-3.4
		c9.7-0.7,19.5-0.7,29.3,0C342,248.6,356.2,251.4,356.2,251.4z"/>
	<g class="st13">
		<path class="st11" d="M356.2,251.4c0,0,7.5,2.5-7.6,90.6h-64.4c1.1-24.8,1.3-40.1-11.2-91.1c8.9-1.7,18-2.9,27-3.4
			c9.7-0.7,19.5-0.7,29.3,0C342,248.6,356.2,251.4,356.2,251.4z"/>
	</g>
	<path class="st12" d="M280.1,282.2l6,1.7l2.1-4.1c0,0,33.4,10.9,48,5.7c9.4-3.4,12.7-6.8,12.7-6.8l-70.6-4.9L280.1,282.2z"/>
	<polygon class="st9" points="305.2,679.9 321.1,679.9 327.6,645.2 311.7,645.2 	"/>
	<path class="st7" d="M322.3,678.3h-17.8c-0.6,0-1.2,0.4-1.3,1l-2,13.3c-0.2,1.3,0.7,2.5,2.1,2.6c0.1,0,0.3,0,0.4,0
		c6.2,0,9.2-0.4,17-0.4c4.9,0,18.7,0.5,25.3,0.5s7-6.2,4.2-6.8c-12.4-2.5-21.2-6-25.4-9.3C324.2,678.6,323.3,678.3,322.3,678.3z"/>
	<g class="st14">
		<polygon points="327.6,645.2 324.2,663.1 308.4,663.1 311.7,645.2 		"/>
	</g>
	<path class="st15" d="M300.2,247.5c9.7-0.7,19.5-0.7,29.2,0l1.9,0.2c2.5,4.2,2.9,10.6-2.7,20.1c0,0-25.6-9.8-32.3-20
		C297.5,247.7,298.8,247.6,300.2,247.5z"/>
	<path class="st7" d="M348.6,342c0,0,12.5,115.6,11.5,161.4c-1.1,47.6-32.4,156.2-32.4,156.2h-21.4c0,0,16.3-105.8,14.4-152.6
		c-2.1-51-19.2-165.1-19.2-165.1L348.6,342z"/>
	<path class="st16" d="M348.6,342c0,0,12.5,115.6,11.5,161.4c-1.1,47.6-32.4,156.2-32.4,156.2h-21.4c0,0,16.3-105.8,14.4-152.6
		c-2.1-51-19.2-165.1-19.2-165.1L348.6,342z"/>
	<polygon class="st7" points="304.4,660.4 329.5,660.4 331.4,652.8 303.2,651.8 	"/>
	<path class="st12" d="M320.8,370.7c15.8,30.1,3.2,85.1-2.5,105.5c-2.9-30.7-7.7-68.2-11.5-95.8
		C309.3,364.9,313.5,356.9,320.8,370.7z"/>
	<polygon class="st9" points="167,545.7 172.4,559.8 208.9,553.3 203.6,539.1 	"/>
	<path class="st7" d="M168.4,560.3l-1.3-16.8c0-0.6-0.5-1.2-1.2-1.3l-14.3-2.7c-1.2-0.2-2.4,0.5-2.6,1.6c-0.1,0.2-0.1,0.5,0,0.7
		c0.5,5.9,1.1,8.7,1.7,16.1c0.3,4.7,0.8,17.6,1.3,23.9s7.1,7,7.5,4.4c1.8-11.6,4.9-19.7,8.2-23.4
		C168.3,562.1,168.5,561.2,168.4,560.3z"/>
	<g class="st14">
		<polygon points="208.9,553.3 190.1,556.6 184.7,542.5 203.5,539.1 		"/>
	</g>
	<path class="st7" d="M330.8,342c0,0-17.6,119.3-29.5,164.2c-12.3,46.7-104.9,50.7-104.9,50.7l-9.4-18.2c0,0,54.1-13.6,77.3-44.3
		C274.3,444,283.6,342,283.6,342H330.8z"/>
	<path class="st16" d="M330.8,342c0,0-17.6,119.3-29.5,164.2c-12.3,46.7-104.9,50.7-104.9,50.7l-9.4-18.2c0,0,54.1-13.6,77.3-44.3
		C274.3,444,283.6,342,283.6,342H330.8z"/>
	<polygon class="st7" points="185.8,537 194.1,559.5 202.6,559.6 194.3,534.2 	"/>
	<path class="st8" d="M174.3,565.7c0,1.3,0.4,2.6,1.3,3.7c0.5,0.5,1.2,0.8,1.9,0.7c0.4,0,0.8-0.2,1-0.5c0.9-1.8-2.8-7.9-3.2-8.6
		c-0.1-0.1-0.2-0.2-0.4-0.2c-0.2,0-0.3,0.1-0.3,0.3C174.3,562.6,174.2,564.2,174.3,565.7z M177.8,568.6c0.1,0.2,0.1,0.4,0,0.7
		c-0.1,0.1-0.2,0.2-0.4,0.2c-0.5,0-0.9-0.1-1.2-0.5c-1.1-2.1-1.5-4.4-0.9-6.7C176.4,564.2,177.3,566.3,177.8,568.6z"/>
	<path class="st8" d="M174.5,561.1c0,0.1,0,0.1,0,0.2c1,1.8,4.7,5.6,6.5,5.4c0.4,0,0.9-0.3,1-1.3c0-0.7-0.3-1.5-0.8-2
		c-1.8-1.4-4-2.3-6.3-2.6C174.6,560.8,174.5,560.9,174.5,561.1C174.4,561.1,174.4,561.1,174.5,561.1L174.5,561.1z M181.2,565
		c0,0.1,0,0.1,0,0.2c0,0.7-0.3,0.7-0.4,0.7c-1.1,0-4-2.4-5.3-4.3c1.9,0.3,3.6,1,5.1,2.2C181,564.1,181.2,564.6,181.2,565L181.2,565z
		"/>
	<path class="st8" d="M328.3,680.8c1.4,0.1,2.7-0.2,3.8-0.9c0.5-0.4,0.8-1.1,0.7-1.7c0-0.4-0.3-0.7-0.6-0.9c-1.9-1-8.3,2-9,2.3
		c-0.1,0.1-0.2,0.2-0.2,0.4c0,0.1,0.1,0.3,0.3,0.3C324.9,680.6,326.6,680.8,328.3,680.8z M331.1,677.7c0.2,0,0.5,0,0.7,0.1
		c0.2,0.1,0.3,0.2,0.2,0.4c0.1,0.4-0.1,0.9-0.4,1.1c-1,0.8-3.6,1-7.1,0.4C326.6,678.7,328.8,678,331.1,677.7z"/>
	<path class="st8" d="M323.4,680.3h0.1c1.9-0.8,5.6-4,5.3-5.7c0-0.4-0.4-0.9-1.4-1c-0.8-0.1-1.5,0.2-2.1,0.6
		c-1.5,1.6-2.3,3.6-2.5,5.8c0,0.1,0,0.3,0.1,0.3C323.1,680.3,323.2,680.3,323.4,680.3z M327.1,674.2h0.2c0.7,0,0.7,0.3,0.7,0.4
		c0.2,1-2.5,3.6-4.3,4.7c0.1-1.7,0.9-3.3,2-4.7C326.2,674.3,326.7,674.2,327.1,674.2z"/>
	<path class="st9" d="M303,216.4c1.8,8.9,3.7,25.2-2.9,31.2c0,0,2.5,9.1,20.1,9.1c19.2,0,9.2-9.1,9.2-9.1
		c-10.5-2.3-10.2-9.7-8.4-16.7L303,216.4z"/>
	<path class="st12" d="M310.3,222.2l10.6,8.6c-0.4,1.6-0.7,3.3-0.9,4.9c-4-0.5-9.5-4.7-9.8-8.7C310,225.4,310,223.8,310.3,222.2z"/>
	<path class="st9" d="M292.8,200.9c3.6,14.5,4.9,20.7,14,27c13.8,9.4,31.8,2.1,32.9-13.1c1-13.7-5.1-35.1-21.3-38.5
		c-11.6-2.5-23.1,4.4-25.7,15.4C292,194.7,292,197.9,292.8,200.9z"/>
	<path class="st7" d="M299.2,187.8c5.6,4,3.1,18.6-3.8,23.1C284.7,208.5,282.6,175.8,299.2,187.8z"/>
	<path class="st7" d="M318.6,173.4c6.2,1,14.1,9.8,15.8,13.3c-9.3-1.6-35.1,5.9-35.1,5.9s-11.5-1.2-5-9.6
		C300.7,174.6,318.6,173.4,318.6,173.4z"/>
	<path class="st7" d="M319.9,200.8c0.2,1.2,1.1,2.1,1.9,1.9c0.8-0.1,1.3-1.2,1.1-2.3c-0.2-1.1-1.1-2.1-1.9-1.9
		C320.2,198.6,319.6,199.6,319.9,200.8z"/>
	<path class="st7" d="M334,198.5c0.2,1.2,1.1,2,1.9,1.9s1.3-1.2,1.1-2.3s-1.1-2-1.9-1.9C334.3,196.3,333.8,197.3,334,198.5z"/>
	<path class="st7" d="M334.8,196.3l2.9-1.3C337.7,194.9,336.5,197.4,334.8,196.3z"/>
	<path class="st9" d="M328.5,201.4c1.6,2.6,3.6,4.9,5.9,7c-1.1,1.1-2.7,1.6-4.4,1.5L328.5,201.4z"/>
	<path class="st7" d="M324,215.6c0.6,0,1.3-0.1,1.9-0.2c0.2,0,0.3-0.2,0.3-0.4c0-0.2-0.2-0.3-0.4-0.3c-3.2,0.6-6.4-0.3-8.8-2.3
		c-0.1-0.1-0.3-0.1-0.5,0c0,0,0,0,0,0c-0.1,0.1-0.1,0.4,0,0.5C318.4,214.7,321.2,215.7,324,215.6z"/>
	<path class="st9" d="M291.1,215c1.5,2.5,4,4.3,7,5c3.9,0.9,5.8-2.3,4.6-5.8c-1-3.1-4.3-7.3-8.2-6.7c-2.8,0.5-4.7,3-4.2,5.7
		C290.4,213.8,290.7,214.5,291.1,215z"/>
	<path class="st7" d="M312,199c0.3,0,0.6-0.2,0.7-0.5c1-2.1,3-3.8,5.3-4.5c0.4-0.1,0.6-0.5,0.5-0.9c-0.1-0.4-0.5-0.6-0.9-0.4
		c0,0,0,0,0,0c-2.8,0.9-5.1,2.8-6.3,5.4c-0.1,0.4,0.1,0.8,0.5,0.9L312,199z"/>
	<path class="st7" d="M335.7,191.6c0.4,0,0.7-0.4,0.7-0.8c0-0.2-0.1-0.4-0.3-0.6c-2.1-1.2-4.6-1.3-6.8-0.4c-0.4,0.2-0.5,0.6-0.4,1
		c0,0,0,0,0,0c0.2,0.3,0.6,0.5,1,0.3l0,0c1.8-0.7,3.8-0.6,5.4,0.4C335.4,191.6,335.5,191.6,335.7,191.6z"/>
	<path class="st7" d="M320.5,198.6l2.9-1.3C323.4,197.2,322.3,199.7,320.5,198.6z"/>
	<path class="st17" d="M283.2,338.4l-1.6,5.5c-0.2,0.4,0.3,0.8,1,0.8H349c0.6,0,1.1-0.3,1.1-0.6l0.6-5.5c0-0.4-0.5-0.7-1.1-0.7
		h-65.3C283.8,337.9,283.4,338.1,283.2,338.4z"/>
	<path class="st8" d="M292,345.3h-1.7c-0.3,0-0.6-0.2-0.6-0.4l0.8-7.1c0-0.2,0.3-0.4,0.7-0.4h1.7c0.3,0,0.6,0.2,0.6,0.4l-0.8,7.1
		C292.6,345.1,292.3,345.3,292,345.3z"/>
	<g class="st18">
		<path d="M292,345.3h-1.7c-0.3,0-0.6-0.2-0.6-0.4l0.8-7.1c0-0.2,0.3-0.4,0.7-0.4h1.7c0.3,0,0.6,0.2,0.6,0.4l-0.8,7.1
			C292.6,345.1,292.3,345.3,292,345.3z"/>
	</g>
	<path class="st8" d="M344,345.3h-1.7c-0.4,0-0.6-0.2-0.6-0.4l0.8-7.1c0-0.2,0.3-0.4,0.7-0.4h1.7c0.3,0,0.6,0.2,0.6,0.4l-0.8,7.1
		C344.6,345.1,344.5,345.3,344,345.3z"/>
	<path class="st19" d="M344,345.3h-1.7c-0.4,0-0.6-0.2-0.6-0.4l0.8-7.1c0-0.2,0.3-0.4,0.7-0.4h1.7c0.3,0,0.6,0.2,0.6,0.4l-0.8,7.1
		C344.6,345.1,344.5,345.3,344,345.3z"/>
	<path class="st8" d="M318,345.3h-1.7c-0.3,0-0.6-0.2-0.6-0.4l0.8-7.1c0-0.2,0.3-0.4,0.7-0.4h1.7c0.3,0,0.6,0.2,0.6,0.4l-0.8,7.1
		C318.6,345.1,318.3,345.3,318,345.3z"/>
	<path class="st19" d="M318,345.3h-1.7c-0.3,0-0.6-0.2-0.6-0.4l0.8-7.1c0-0.2,0.3-0.4,0.7-0.4h1.7c0.3,0,0.6,0.2,0.6,0.4l-0.8,7.1
		C318.6,345.1,318.3,345.3,318,345.3z"/>
	<path class="st8" d="M388.1,228.3l12.3-11.4c1.8-1.6,4.6-1.6,6.3,0l5,4.8c1.7,1.7,1.7,4.3,0,6l-12.3,11.4c-1.8,1.6-4.6,1.6-6.3,0
		l-5-4.8C386.3,232.6,386.3,230,388.1,228.3z"/>
	<path class="st20" d="M395.1,230.2L391,234c-0.1,0.1-0.3,0.1-0.5,0c0,0,0,0,0,0l0,0c-0.1-0.1-0.1-0.4,0-0.5l4.1-3.8
		c0.1-0.1,0.3-0.1,0.5,0c0,0,0,0,0,0l0,0C395.3,229.8,395.3,230,395.1,230.2C395.2,230.2,395.1,230.2,395.1,230.2z"/>
	<path class="st20" d="M404,216.7l-4.1,3.8c-0.1,0.1-0.4,0.1-0.5,0l0,0c-0.1-0.1-0.2-0.3,0-0.5c0,0,0,0,0,0l4.1-3.8
		c0.1-0.1,0.3-0.1,0.5,0c0,0,0,0,0,0l0,0C404.1,216.4,404.1,216.6,404,216.7z"/>
	<path class="st20" d="M400.6,235.5l-4.1,3.8c-0.1,0.1-0.4,0.1-0.5,0l0,0c-0.1-0.1-0.1-0.4,0-0.5l4.1-3.8c0.1-0.1,0.4-0.1,0.5,0l0,0
		C400.8,235.1,400.8,235.4,400.6,235.5z"/>
	<path class="st20" d="M393.4,234.3l-1.1,1c-0.2,0.1-0.4,0.1-0.5,0l0,0c-0.1-0.1-0.1-0.4,0-0.5l1.1-1c0.2-0.1,0.4-0.1,0.5,0l0,0
		C393.5,233.9,393.6,234.1,393.4,234.3z"/>
	<path class="st12" d="M411.3,226.4l-1.3,1.2c-0.9,0.8-2.3,0.8-3.2,0l0,0c-0.9-0.8-0.9-2.2,0-3l1.3-1.2c0.9-0.8,2.3-0.8,3.2,0l0,0
		C412.2,224.2,412.2,225.6,411.3,226.4z"/>
	<path class="st9" d="M279.9,254.8c3.8,1.4,8,3,12.1,4.3c4.1,1.3,8.2,2.7,12.3,3.9c8,2.5,16.2,4.4,24.6,5.7l1.5,0.2h0.4
		c0.2,0,0,0,0,0l0,0c0.5,0,0.9-0.1,1.4-0.2c1.7-0.4,3.3-1,4.9-1.7c3.8-1.7,7.5-3.5,11-5.6c7.4-4.2,14.9-8.9,22.3-13.6l6.4,6.7
		c-6.2,6.6-12.9,12.7-20.1,18.3c-3.8,2.9-7.8,5.6-12,7.9c-2.4,1.4-4.9,2.5-7.5,3.4c-1.7,0.6-3.5,0.9-5.2,1.1c-0.6,0-1.1,0-1.7,0
		h-1.3h-1.8c-2.5-0.1-4.9-0.4-7.4-0.7c-2.5-0.3-4.9-0.7-7.1-1.1c-4.7-0.8-9.3-1.9-13.9-3c-4.5-1.2-9-2.5-13.4-4s-8.7-3-13.2-4.9
		L279.9,254.8z"/>
	<path class="st9" d="M370.1,248.7l9.7-13.4l4.3,14.7c0,0-7.4,6.7-13.6,4.9L370.1,248.7z"/>
	<polygon class="st9" points="392.5,231.4 395.4,243.9 384.1,250 379.8,235.3 	"/>
	<path class="st8" d="M259.4,274.2c4.7,4.7,25.1,7.4,25.1,7.4l12.9-26.5c0,0-18.8-7.5-26.5-3.5C263.2,255.7,254,269,259.4,274.2z"/>
	<g class="st10">
		<path class="st11" d="M259.4,274.2c4.7,4.7,25.1,7.4,25.1,7.4l12.9-26.5c0,0-18.8-7.5-26.5-3.5C263.2,255.7,254,269,259.4,274.2z"
			/>
	</g>
	<path class="st7" d="M521.8,407.7l-7.2,0.6c-9.8,30-23.3,30.2-27.3,29.6c-7.4-1.2-11.7-8.8-9.5-16.9c3-11.2,16.3-15.7,24.7-17.7
		c-5.2-7.4-7.1-19.8-4-27.9l0,0c1.8-6,7.7-10,14.3-9.7c3.9-0.2,7.6,1.5,9.6,4.7c5.8,9-3.4,28.5-6.4,34.3L521.8,407.7z M510.3,400.9
		c4.3-8.8,8.7-22,5.5-26.9c-0.5-0.8-1-1.6-3.5-1.6c-3.1-0.2-5.9,1.8-6.6,4.7l0,0C503,384.4,505.8,396.2,510.3,400.9z M485.7,421
		c-0.1,0.3-0.2,0.7-0.3,1c-1.2,4.7,1.1,8.6,4,9.1c2.9,0.5,10.7-3.6,17.2-22c-5.9,1-18,4-21,11.9H485.7z"/>
	<polygon class="st8" points="779.3,424.2 730.2,552.8 487.1,469.7 536,341.5 	"/>
	<polygon class="st21" points="779.3,424.2 730.2,552.8 487.1,469.7 536,341.5 	"/>
	<polygon class="st7" points="523.6,373.9 519.6,384.4 762.9,467.1 766.9,456.6 	"/>
	<polygon class="st7" points="740,527.1 737.1,534.8 493.8,452 496.7,444.4 	"/>
	<polygon class="st12" points="749.7,501.7 730.2,552.8 487.1,469.7 506.4,419 	"/>
	<path class="st7" d="M584.7,440.9l-2.5-5.2c-28,1.2-32-8.8-32.6-12c-1.1-5.9,4.1-11.3,11.5-12c10.2-1,17.8,7.7,21.9,13.5
		c5.4-6.4,13.4-10.4,22.1-11l0,0c5.6-0.4,10.7,2.9,12.3,8c1.3,2.9,0.8,6.2-1.2,8.6c-5.9,7-24.8,5.6-30.5,5L584.7,440.9z
		 M587.1,430.4c8.6,0.7,20.9,0.2,24.1-3.5c0.5-0.6,1-1.2,0.3-3.1c-0.7-2.4-3.2-4-5.8-3.6l0,0C598.2,420.7,591.3,424.5,587.1,430.4
		L587.1,430.4z M563.1,417.7h-1c-4.2,0.4-6.9,3.3-6.4,5.6c0.4,2.3,6,7,23.4,6.7C576.5,425.9,570.6,417.7,563.1,417.7z"/>
	<polygon class="st8" points="644.6,511.9 522.8,511.9 522.8,432.7 644.2,432.7 	"/>
	<polygon class="st20" points="644.6,511.9 522.8,511.9 522.8,432.7 644.2,432.7 	"/>
	<polygon class="st7" points="613.5,432.7 603.6,432.7 604,511.9 613.9,511.9 	"/>
	<polygon class="st7" points="547.1,511.9 539.9,511.9 539.5,432.7 546.8,432.7 	"/>
	<polygon class="st12" points="571.2,511.9 522.8,511.9 522.8,432.7 570.8,432.7 	"/>
	<path class="st7" d="M614.4,525.2c-7.7,1.8-33.3,7-44.7-1.4c-3.8-2.7-5.9-7-5.6-11.4c0.2-7.6,5.2-11.9,13.4-13l0,0
		c10.7-1.4,26.6,3.7,35.9,11c3-8.5,9.6-21.6,24.2-22.1c10.6-0.3,20.2,6,21.4,14.2c0.6,4.4-0.5,18.6-39.8,22L618,532L614.4,525.2z
		 M579.5,507.4L579.5,507.4c-4.3,0.5-6.3,2.1-6.4,6c-0.3,1.6,0.5,3.3,1.9,4.2c6,4.5,23.4,3,35,0.5
		C604.1,512.1,588.9,506.1,579.5,507.4z M620.8,516.1c24.2-2.5,29.9-9.5,29.5-13.1c-0.5-3.2-5.5-6.7-11.5-6.4c-0.5,0-0.9,0-1.4,0
		C627,497.9,622.4,510.1,620.8,516.1z"/>
	<polygon class="st8" points="537.3,526 690.8,506.4 698.4,559.5 544.9,579.1 	"/>
	<polygon class="st20" points="537.3,526 690.8,506.4 698.4,559.5 544.9,579.1 	"/>
	<polygon class="st22" points="629.9,514.2 690.8,506.4 698.4,559.5 637.4,567.3 	"/>
	<polygon class="st7" points="576.1,521 588.5,519.4 596.1,572.5 583.6,574.1 	"/>
	<polygon class="st7" points="660.1,510.3 669.3,509.1 676.8,562.2 667.7,563.4 	"/>
	<path class="st7" d="M484.4,425.2l-3.5,2.9c-10.7-24.8-24.2-44.2-45.2-49.8l3.5-2.9C459.2,380.4,473.1,399.7,484.4,425.2z"/>
	<path class="st23" d="M484.4,425.2l-3.5,2.9c-10.7-24.8-24.2-44.2-45.2-49.8l3.5-2.9C459.2,380.4,473.1,399.7,484.4,425.2z"/>
	<path class="st7" d="M470.7,425.4l-4.9,3.3c-10.1-19.4-8.9-29.3-34.1-44.2l4.8-3.3C461.7,397.3,461.7,407.2,470.7,425.4z"/>
	<path class="st23" d="M470.7,425.4l-4.9,3.3c-10.1-19.4-8.9-29.3-34.1-44.2l4.8-3.3C461.7,397.3,461.7,407.2,470.7,425.4z"/>
	<path class="st7" d="M778,425.4H466.1c-3.3,0-6,2.5-6,5.7c0,0.8,0.2,1.6,0.5,2.4L533,583.8c1.1,2.3,3.7,3.6,6.4,3.3L767.3,555
		c2.7-0.4,4.9-2.5,5.1-5.1L784,431.6c0.3-3.1-2.1-5.9-5.4-6.3C778.4,425.4,778.2,425.4,778,425.4z M777.1,434.7l-11,113.3
		c-0.2,2.5-2.3,4.5-4.9,4.9l-218.4,30.8c-2.6,0.4-5-0.9-6.1-3.1l-69.4-144c-1.3-2.7-0.1-6,2.8-7.3c0.8-0.3,1.6-0.5,2.4-0.5h298.7
		c3.2,0,5.8,2.4,5.9,5.4C777.2,434.3,777.2,434.5,777.1,434.7L777.1,434.7z"/>
	<polygon class="st7" points="557.3,583.7 552.8,583.7 478.7,425.4 483.2,425.4 	"/>
	<polygon class="st7" points="577.7,580.7 573.2,580.7 502.3,425.4 506.9,425.4 	"/>
	<polygon class="st7" points="596.6,577.6 592.1,577.6 530.9,425.4 535.4,425.4 	"/>
	<polygon class="st7" points="616.9,574.4 612.3,574.4 557.3,425.4 561.8,425.4 	"/>
	<polygon class="st7" points="635.2,572.1 630.7,572.1 584.9,425.4 589.5,425.4 	"/>
	<polygon class="st7" points="655.9,569.2 651.4,569.2 610.8,425.4 615.4,425.4 	"/>
	<polygon class="st7" points="675.4,565.8 670.9,565.8 637.5,425.4 642,425.4 	"/>
	<polygon class="st7" points="695.9,563.7 691.4,563.7 664.5,425.4 669.1,425.4 	"/>
	<polygon class="st7" points="715.4,561.3 710.8,561.3 692.3,425.4 696.8,425.4 	"/>
	<polygon class="st7" points="734.8,557.9 730.3,557.9 719.4,425.4 724,425.4 	"/>
	<polygon class="st7" points="754.9,556.1 750.4,556.1 747.5,425.4 752.1,425.4 	"/>
	<polygon class="st7" points="777.2,470.4 777.2,474.7 487.6,487.1 487.6,482.8 	"/>
	<polygon class="st7" points="773.5,515.4 773.5,519.7 515.4,546.4 515.4,542.1 	"/>
	<path class="st8" d="M557.3,679.7c0,8.5-7.2,15.4-16.2,15.4c-9,0-16.3-6.8-16.3-15.4c0-8.5,7.2-15.4,16.2-15.4c0,0,0.1,0,0.1,0
		C550.1,664.4,557.3,671.2,557.3,679.7z"/>
	<path class="st7" d="M553.4,679.6c-1.5,4.5-5.8,7.5-10.8,7.5c-4.8,0.1-8.9-3.1-9.6-7.5l-5.1-29.2h41.4l-4.9,16.3
		c-0.3,1.1-0.9,2.2-1.8,3.1L553.4,679.6z"/>
	<path class="st24" d="M553.4,679.6c-1.5,4.5-5.8,7.5-10.8,7.5c-4.8,0.1-8.9-3.1-9.6-7.5l-5.1-29.2h41.4l-4.9,16.3
		c-0.3,1.1-0.9,2.2-1.8,3.1L553.4,679.6z"/>
	<path class="st8" d="M713,679.7c0,8.5,7.2,15.4,16.2,15.4s16.3-6.8,16.3-15.4c0-8.5-7.2-15.4-16.2-15.4c0,0,0,0-0.1,0
		C720.3,664.3,713,671.2,713,679.7z"/>
	<path class="st7" d="M716.8,679.6c1.5,4.5,5.9,7.5,10.8,7.5c4.8,0.1,8.9-3.1,9.6-7.5l5.1-29.2h-41.4l5,16.3
		c0.3,1.1,0.9,2.2,1.8,3.1L716.8,679.6z"/>
	<path class="st24" d="M716.8,679.6c1.5,4.5,5.9,7.5,10.8,7.5c4.8,0.1,8.9-3.1,9.6-7.5l5.1-29.2h-41.4l5,16.3
		c0.3,1.1,0.9,2.2,1.8,3.1L716.8,679.6z"/>
	<path class="st21" d="M778,425.4H466.1c-3.3,0-6,2.5-6,5.7c0,0.8,0.2,1.6,0.5,2.4L533,583.8c1.1,2.3,3.7,3.6,6.4,3.3L767.3,555
		c2.7-0.4,4.9-2.5,5.1-5.1L784,431.6c0.3-3.1-2.1-5.9-5.4-6.3C778.4,425.4,778.2,425.4,778,425.4z M771.4,428.7
		c3.2,0,5.8,2.4,5.8,5.5c0,0.2,0,0.3,0,0.5l-3.5,35.9l-20.6,0.9l-0.9-42.7L771.4,428.7z M491.7,486.9l15.5-0.7l25.3,54.1l-14.4,1.5
		L491.7,486.9z M511.6,486.1l18.1-0.8l24.1,52.8l-17,1.7L511.6,486.1z M705.5,522.4l-17.2,1.8l-8.8-45.3l20-0.8L705.5,522.4z
		 M704,477.8l19.7-0.8l3.5,43.2l-17.2,1.8L704,477.8z M683.7,524.7l-17.7,1.8L654.9,480l20-0.8L683.7,524.7z M661.6,527l-17.2,1.8
		L630.9,481l19.5-0.8L661.6,527z M640,529.2l-17.7,1.8l-15.3-49l19.4-0.8L640,529.2z M617.9,531.6l-16.4,1.7L583,483.1l19.5-0.8
		L617.9,531.6z M597.2,533.7l-17.6,1.8l-20.7-51.4l19.7-0.8L597.2,533.7z M575.2,536.1l-17.2,1.8l-23.9-52.7l20.4-0.9L575.2,536.1z
		 M555.6,542.4l17,37.2l-16.3,2.3l-17.6-38L555.6,542.4z M559.9,541.9l17-1.8l14.8,36.7l-14.8,2.1L559.9,541.9z M581.2,539.7
		l17.5-1.8L612,574l-16.1,2.3L581.2,539.7z M603.1,537.4l16.1-1.7l11.2,35.5l-14,2L603.1,537.4z M623.6,535.3l17.6-1.8l9.8,34.9
		l-16.4,2.3L623.6,535.3z M645.6,533l17-1.7l8.2,34.4l-15.3,2.2L645.6,533z M667,530.8l17.5-1.8l6.6,33.8l-16,2.3L667,530.8z
		 M689,528.4l17-1.7l4.8,33.2l-15.1,2.1L689,528.4z M710.5,526.1l17-1.8l2.8,32.9l-15.1,2.1L710.5,526.1z M732,523.8l17.6-1.8
		l0.7,32.2l-15.6,2.2L732,523.8z M731.6,519.5l-3.5-42.9l20.4-0.9l0.9,41.9L731.6,519.5z M753,475.5l20.1-0.9l-4,41l-15.2,1.6
		L753,475.5z M747.7,428.7l0.9,42.9l-20.7,0.9l-3.6-43.8H747.7z M719.8,428.7l3.6,44l-20,0.8l-6.1-44.8L719.8,428.7z M692.8,428.7
		l6.1,45l-20.3,0.9l-8.9-45.9H692.8z M665.2,428.7l8.9,46.1l-20.1,0.8l-11.2-46.9L665.2,428.7z M638.3,428.7l11.2,47.1l-19.7,0.8
		l-13.5-48L638.3,428.7z M611.8,428.7l13.6,48.2l-19.5,0.8l-15.3-49H611.8z M586,428.7l15.3,49.2l-19.7,0.8l-18.5-50H586z
		 M558.6,428.7l18.5,50.2l-19.7,0.8l-20.5-51L558.6,428.7z M532.2,428.7l20.6,51.2l-20.7,0.9l-23.8-52.1L532.2,428.7z M503.9,428.7
		l23.8,52.3l-18.1,0.8l-24.9-53.1L503.9,428.7z M472.7,428.7h7.6l24.9,53.3l-15.5,0.7l-22.1-46.2c-1.3-2.7-0.1-6,2.8-7.3
		C471.1,428.9,471.9,428.8,472.7,428.7L472.7,428.7z M536.7,580.5l-16.6-34.6l14.3-1.5l17.7,37.9l-9.3,1.3
		C540.3,584,537.8,582.8,536.7,580.5z M766.2,548c-0.2,2.5-2.3,4.5-4.9,4.9l-6.4,0.9l-0.7-32l14.8-1.5L766.2,548z"/>
	<path class="st8" d="M417.4,377.8L436,388l8.2-13.4l-18.6-10.2c-3.9-2.1-8.9-0.9-11.2,2.8c0,0,0,0,0,0l0,0
		C412.2,370.9,413.5,375.7,417.4,377.8C417.4,377.8,417.4,377.8,417.4,377.8z"/>
	<rect x="515.3" y="644.1" class="st7" width="242" height="8.3"/>
	<polygon class="st7" points="557.9,593.1 556.6,584.8 599.8,578.5 601.2,586.7 	"/>
	<path class="st7" d="M509.5,639.6c-1.7,2.1,0.9,5.2,5.9,4.5v8.3c-16.5,0.5-19.7-10.5-12.3-18.4L509.5,639.6z"/>
	<path class="st7" d="M549.8,596.8c2.1-2.2,5-3.6,8.1-3.9l-1.3-8.2c-5.1,0.8-9.8,3.1-13.3,6.6L549.8,596.8z"/>
	<rect x="515.3" y="644.1" class="st7" width="242" height="8.3"/>
	<polygon class="st7" points="557.9,593.1 556.6,584.8 599.8,578.5 601.2,586.7 	"/>
	<path class="st7" d="M509.5,639.6c-1.7,2.1,0.9,5.2,5.9,4.5v8.3c-16.5,0.5-19.7-10.5-12.3-18.4L509.5,639.6z"/>
	<path class="st7" d="M549.8,596.8c2.1-2.2,5-3.6,8.1-3.9l-1.3-8.2c-5.1,0.8-9.8,3.1-13.3,6.6L549.8,596.8z"/>
	<polygon class="st7" points="509.5,639.6 502.9,634.1 543.2,591.4 549.7,596.9 	"/>
	<polygon class="st7" points="509.5,639.6 502.9,634.1 543.2,591.4 549.7,596.9 	"/>
	<path class="st20" d="M515.4,644.1c-4.9,0.7-7.6-2.3-5.9-4.5l0,0l40.3-42.8l0,0c2.1-2.2,5-3.6,8.1-3.9l43.2-6.4l-1.4-8.2l-43.2,6.3
		c-5.1,0.8-9.8,3.1-13.3,6.6L503,634.1l0,0c-7.4,7.9-4.1,18.9,12.3,18.4h242v-8.3L515.4,644.1z"/>
</g>
</svg>
