<?xml version="1.0" encoding="utf-8"?>
<!-- Generator: Adobe Illustrator 22.0.1, SVG Export Plug-In . SVG Version: 6.00 Build 0)  -->
<svg version="1.1" id="Calque_1" xmlns="http://www.w3.org/2000/svg" xmlns:xlink="http://www.w3.org/1999/xlink" x="0px" y="0px"
	 viewBox="0 0 500 500" style="enable-background:new 0 0 500 500;" xml:space="preserve">
<style type="text/css">
	.st0{fill:#E0E0E0;}
	.st1{fill:#F0F0F0;}
	.st2{fill:#FFFFFF;}
	.st3{fill:#E6E6E6;}
	.st4{fill:#263238;}
	.st5{fill:#FF725E;}
	.st6{fill:#455A64;}
	.st7{fill:#E8E8E3;}
	.st8{font-family:'ArialMT';}
	.st9{font-size:8.299px;}
	.st10{opacity:0.1;enable-background:new    ;}
	.st11{opacity:0.2;fill:#FFFFFF;enable-background:new    ;}
	.st12{opacity:0.2;}
	.st13{fill:#996234;}
	.st14{fill:#EB996E;}
	.st15{opacity:0.2;enable-background:new    ;}
</style>
<g id="freepik--background-complete--inject-4">
	<path class="st0" d="M466.9,316.2H303v-94.8h163.9V316.2z M304,315.2h161.9v-92.8H304V315.2z"/>
	<rect x="325" y="271.9" class="st1" width="108.1" height="3.2"/>
	<rect x="325" y="283.8" class="st1" width="115.6" height="3.5"/>
	<rect x="325" y="295.7" class="st1" width="115.6" height="3.5"/>
	<rect x="325" y="254.8" class="st1" width="37.8" height="8.2"/>
	<rect x="303.5" y="221.9" class="st0" width="162.9" height="15.1"/>
	<path class="st2" d="M453.9,234.7c-0.2-0.2,1.9-2.7,4.7-5.6s5.2-5.1,5.4-4.9s-1.9,2.7-4.7,5.7S454.1,234.9,453.9,234.7z"/>
	<path class="st2" d="M464,234.7c-0.2,0.2-2.6-2-5.4-4.9s-4.9-5.5-4.7-5.7s2.6,2,5.4,4.9S464.2,234.5,464,234.7z"/>
	<rect x="102.4" y="34" class="st3" width="162.9" height="93.8"/>
	<rect x="123.8" y="84.1" class="st1" width="108.1" height="3.2"/>
	<rect x="123.8" y="95.9" class="st1" width="115.6" height="3.5"/>
	<rect x="123.8" y="107.9" class="st1" width="115.6" height="3.5"/>
	<rect x="123.8" y="67" class="st1" width="37.8" height="8.2"/>
	<rect x="102.4" y="34" class="st0" width="162.9" height="15.1"/>
	<path class="st2" d="M252.1,46.8c-0.2-0.2,1.9-2.7,4.7-5.7s5.2-5.1,5.4-4.9s-1.9,2.7-4.7,5.7S252.3,47,252.1,46.8z"/>
	<path class="st2" d="M262.3,46.8c-0.2,0.2-2.6-2-5.4-4.9s-4.9-5.5-4.7-5.7s2.6,2,5.4,4.9C260.4,44.1,262.5,46.6,262.3,46.8z"/>
	<path class="st0" d="M203.5,208.4H39.7v-94.8h163.9V208.4z M40.7,207.4h161.9v-92.8H40.7L40.7,207.4z"/>
	<rect x="61.6" y="164.1" class="st1" width="108.1" height="3.2"/>
	<rect x="61.6" y="175.9" class="st1" width="115.6" height="3.5"/>
	<rect x="61.6" y="187.9" class="st1" width="115.6" height="3.5"/>
	<rect x="61.6" y="146.9" class="st1" width="37.8" height="8.2"/>
	<rect x="40.2" y="114" class="st0" width="162.9" height="15.1"/>
	<rect x="200.4" y="230.1" class="st3" width="192.3" height="172.2"/>
	<rect x="59.4" y="175.9" class="st1" width="150.6" height="156.5"/>
	<rect x="59.4" y="175.9" class="st0" width="150.6" height="17.1"/>
	<path class="st2" d="M71.8,184.2c-0.1,1.7-1.6,3.1-3.3,3c-1.7-0.1-3.1-1.6-3-3.3c0.1-1.7,1.5-3,3.2-3
		C70.4,181,71.9,182.5,71.8,184.2z"/>
	<path class="st2" d="M84.7,184.2c-0.1,1.7-1.5,3.1-3.3,3c-1.7-0.1-3.1-1.5-3-3.3c0.1-1.7,1.5-3,3.2-3
		C83.3,181,84.7,182.5,84.7,184.2z"/>
	<path class="st2" d="M97.5,184.2c-0.1,1.7-1.5,3.1-3.3,3c-1.7-0.1-3.1-1.5-3-3.3c0.1-1.7,1.5-3,3.2-3
		C96.1,181,97.5,182.5,97.5,184.2z"/>
	<rect x="253.1" y="68.3" class="st1" width="192.3" height="191.7"/>
	<rect x="253.1" y="68.3" class="st0" width="192.3" height="22.4"/>
	<path class="st2" d="M269.5,79.3c-0.1,2.3-2,4.1-4.3,4c-2.3-0.1-4.1-2-4-4.3c0.1-2.2,1.9-4,4.2-4C267.6,75,269.5,76.9,269.5,79.3z"
		/>
	<path class="st2" d="M285.1,76.3c1.6,1.7,1.5,4.3-0.2,5.9c-1.7,1.6-4.3,1.5-5.9-0.2c-1.5-1.7-1.5-4.2,0.1-5.8
		C280.8,74.6,283.5,74.6,285.1,76.3z"/>
	<path class="st2" d="M303.2,79.3c-0.1,2.3-2,4.1-4.3,4c-2.3-0.1-4.1-2-4-4.3c0.1-2.2,1.9-4,4.2-4C301.4,75,303.3,76.9,303.2,79.3z"
		/>
</g>
<g id="freepik--Floor--inject-4">
	<path class="st4" d="M403.8,453.1c0,0.1-69.4,0.3-155.1,0.3s-155.1-0.1-155.1-0.3s69.4-0.3,155.1-0.3S403.8,453,403.8,453.1z"/>
</g>
<g id="freepik--Plant--inject-4">
	<path class="st5" d="M336.2,330.7c-15.5-10.8-19-30.8-18.3-48.8c0.1-3-0.2-6.2,1.2-8.8s4.8-4.4,7.5-3.2c2.2,1,3.2,3.6,4.5,5.8
		c1.7,2.9,4.1,5.2,7,6.7c1.9,1,4.3,1.6,6.2,0.6c2.6-1.4,2.9-5,2.9-8c0-5.6,0-11.2-0.1-16.7c-0.2-3,0.1-6,0.9-8.9
		c0.9-2.8,3-5.5,5.8-6.3s6.4,0.9,7,3.8c0.1,1.2,0.1,2.5,0.1,3.7c0.1,1.2,0.7,2.6,1.8,3s2.4-0.5,3.3-1.4c3.1-3,5.2-6.9,7.1-10.8
		s3.9-7.8,6.7-11.1s6.7-5.9,11-6.1s8.8,2.4,9.9,6.6s-1.4,8.5-4,11.9c-4,5.1-8.6,9.5-13.9,13.2c-1,0.6-1.8,1.4-2.3,2.5
		c-0.6,2,1.2,4,3.2,4.6c2.2,0.7,4.6,0.5,7,0.8s4.9,1.3,5.7,3.5c1.2,3.1-1.3,6.3-3.9,8.4c-5,4.2-10.8,7.5-16.9,9.8
		c-2.2,0.8-4.5,1.5-6.3,3s-2.8,4.2-1.8,6.3s3.8,2.8,6.1,2.4s4.4-1.7,6.6-2.5c4.1-1.5,9.4-1.3,12,2.3c1.6,2.5,2,5.6,1,8.4
		c-1,2.7-2.5,5.3-4.5,7.4c-6.5,7.8-15.1,13.8-24.7,17.2C354.5,333.3,345.6,334.2,336.2,330.7"/>
	<path class="st4" d="M396.2,226.7c0,0-0.1,0.1-0.3,0.3l-0.9,0.8c-0.8,0.7-1.9,1.7-3.4,3.1c-4.1,3.8-7.9,7.9-11.4,12.3
		c-2.2,2.8-4.5,5.9-7,9.3s-5,7.1-7.5,11c-2.7,4.1-5.1,8.4-7.4,12.8c-1.2,2.3-2.2,4.7-3.2,7.1l-3.1,7.4c-4.1,9.4-7.6,19-10.7,28.8
		c-2.4,8-4.1,16.2-5,24.5c-0.6,5.6-0.7,11.3-0.3,16.9c0.2,2,0.3,3.5,0.5,4.6c0.1,0.5,0.1,0.9,0.1,1.2v0.4c0-0.1-0.1-0.3-0.1-0.4
		c0-0.3-0.1-0.7-0.2-1.2c-0.2-1-0.4-2.6-0.5-4.6c-0.5-5.6-0.4-11.3,0.1-16.9c0.8-8.4,2.5-16.6,4.9-24.6c3-9.8,6.5-19.4,10.6-28.8
		l3.2-7.4c1-2.4,2.1-4.8,3.2-7.1c2.2-4.4,4.7-8.7,7.4-12.8c2.6-4,5.1-7.6,7.6-11s4.8-6.5,7-9.3c3.5-4.4,7.4-8.5,11.6-12.2
		c1.5-1.3,2.7-2.3,3.5-3l0.9-0.8C395.9,226.8,396.1,226.7,396.2,226.7z"/>
	<path class="st4" d="M358,276c-0.1-0.4-0.2-0.8-0.3-1.3c-0.2-0.8-0.3-2-0.5-3.5c-0.4-3-0.9-7.1-1.3-11.7s-1-8.7-1.4-11.6
		c-0.2-1.5-0.4-2.7-0.6-3.5c-0.1-0.4-0.2-0.9-0.2-1.3c0.2,0.4,0.3,0.8,0.4,1.2c0.2,0.8,0.5,2,0.8,3.5c0.6,3,1.1,7.1,1.6,11.6
		s0.9,8.6,1.2,11.7c0.1,1.4,0.3,2.6,0.4,3.5C358,275.1,358,275.6,358,276z"/>
	<path class="st4" d="M396.5,268.8c-0.5,0.1-1,0.2-1.5,0.2c-1,0.1-2.4,0.2-4.2,0.4c-3.5,0.4-8.4,1.1-13.7,2.1s-10.1,2.1-13.5,3
		c-1.7,0.4-3.1,0.8-4,1.1c-0.5,0.2-1,0.3-1.5,0.4c0.5-0.2,0.9-0.4,1.4-0.6c0.9-0.3,2.3-0.8,4-1.3c3.4-1,8.2-2.2,13.5-3.2
		c4.5-0.9,9.1-1.5,13.6-1.9c1.8-0.1,3.2-0.2,4.2-0.2C395.5,268.7,396,268.8,396.5,268.8z"/>
	<path class="st4" d="M341.3,318.7c-0.1-0.1-0.2-0.3-0.3-0.5l-0.7-1.4c-0.6-1.2-1.3-3-2.3-5.2c-1.9-4.4-4.2-10.6-6.8-17.4
		s-4.8-13-6.6-17.5c-0.9-2.2-1.6-3.9-2.1-5.2l-0.6-1.4c-0.1-0.2-0.1-0.3-0.2-0.5c0.1,0.1,0.2,0.3,0.3,0.5l0.7,1.4
		c0.6,1.2,1.3,3,2.3,5.2c1.9,4.4,4.2,10.6,6.8,17.4s4.8,13,6.6,17.5c0.9,2.2,1.6,3.9,2.1,5.2c0.2,0.6,0.4,1,0.6,1.4
		C341.2,318.4,341.3,318.5,341.3,318.7z"/>
	<path class="st4" d="M392.4,302.2c-0.2,0.1-0.3,0.2-0.5,0.2l-1.5,0.5l-5.5,1.8c-4.6,1.5-11,3.6-18,6s-13.4,4.5-18.1,5.9
		c-2.3,0.7-4.2,1.2-5.5,1.6l-1.5,0.4c-0.2,0.1-0.4,0.1-0.5,0.1c0.2-0.1,0.3-0.2,0.5-0.2l1.5-0.5l5.5-1.8c4.6-1.5,11-3.6,18-6
		s13.4-4.5,18-5.9c2.3-0.7,4.2-1.2,5.5-1.6l1.5-0.4C392,302.3,392.2,302.3,392.4,302.2z"/>
</g>
<g id="freepik--Padlock--inject-4">
	<path class="st5" d="M371.5,59.7l-5.1,1.8l-2.2-6.7c-4.1-12.4-17-19-28.9-14.8s-18.2,17.8-14.2,30.2l2.2,6.7l-5.2,1.8
		c-4.1,1.6-6.2,6.1-4.8,10.3l14.3,43.8c1.2,4.1,5.5,6.4,9.6,5.2c0.1,0,0.2,0,0.2-0.1l53.4-19.1c4.2-1.6,6.3-6.2,4.9-10.4l-14.3-43.8
		c-1.3-4.1-5.6-6.4-9.6-5.1C371.7,59.6,371.6,59.7,371.5,59.7z M330.9,66.7c-2.3-6.7,1.2-14,7.8-16.5c6.5-2.2,13.5,1.2,15.7,7.7
		c0,0.1,0.1,0.3,0.1,0.4l2.2,6.7l-23.6,8.4L330.9,66.7z M360.9,105.5l3.7,11.2c0.1,0.5-0.1,1-0.6,1.1l-5.1,1.8
		c-0.4,0.1-0.9-0.1-1-0.5l-3.7-11.1c-4.2-0.2-7.8-3-9-7c-1.8-5.3,0.9-11.2,6.2-13.2c5.1-1.8,10.7,1,12.5,6.1c0,0.1,0.1,0.2,0.1,0.3
		C365.2,98.3,364,102.7,360.9,105.5L360.9,105.5z"/>
	<path class="st4" d="M366.2,61.4c0,0.1-9.5,3.7-21.4,8s-21.6,7.7-21.6,7.6s9.5-3.7,21.4-8S366.1,61.3,366.2,61.4z"/>
	<path class="st4" d="M377.5,63.2c0,0.1,0.1,0.2,0.1,0.3c0.1,0.2,0.2,0.5,0.3,0.8c0.3,0.7,0.6,1.7,1.1,3l3.8,11.2
		c1.6,4.7,3.5,10.4,5.6,16.6c1,3.1,2.2,6.4,3.3,9.8c0.6,1.8,0.8,3.6,0.8,5.5c-0.1,1-0.4,1.9-0.8,2.8c-0.5,0.9-1.1,1.6-1.9,2.2
		c-1.5,1.1-3.3,2-5.1,2.6l-5.1,1.8l-9.8,3.5l-16.5,5.9l-11.1,3.9l-3,1l-0.8,0.3c-0.1,0-0.2,0.1-0.3,0.1c0,0,0.1,0,0.2-0.1l0.8-0.3
		l3-1.1l11.1-4.1l16.5-6l9.7-3.5l5.1-1.9c1.8-0.6,3.4-1.4,4.9-2.5c0.7-0.6,1.3-1.3,1.8-2.1c0.4-0.8,0.7-1.7,0.8-2.6
		c0.1-1.8-0.2-3.6-0.7-5.3c-1.1-3.4-2.2-6.7-3.2-9.8c-2.1-6.2-4-11.9-5.5-16.6s-2.8-8.6-3.7-11.2c-0.4-1.3-0.7-2.3-1-3.1l-0.2-0.8
		C377.5,63.4,377.5,63.3,377.5,63.2z"/>
	<path class="st4" d="M349.3,49.5c0,0-0.5-0.3-1.5-0.7c-1.4-0.5-2.9-0.8-4.4-0.9c-2.2-0.1-4.4,0.3-6.5,1.2c-2.5,1.1-4.6,2.9-6.1,5.1
		c-1.5,2.2-2.3,4.9-2.4,7.6c0,2.2,0.4,4.4,1,6.6c0.5,1.8,1.1,3.3,1.4,4.3c0.2,0.5,0.4,1,0.5,1.6c-0.3-0.5-0.5-1-0.7-1.5
		c-0.4-1-1-2.4-1.6-4.2c-0.7-2.1-1.1-4.4-1.1-6.7c0-2.8,0.8-5.6,2.4-7.9c1.6-2.3,3.8-4.2,6.4-5.3c2.1-0.9,4.4-1.3,6.6-1.1
		c1.5,0.1,3,0.4,4.4,1c0.4,0.2,0.7,0.4,1.1,0.6C349.1,49.3,349.2,49.3,349.3,49.5z"/>
	<path class="st4" d="M349.8,88.6c0.2-0.1,0.3-0.2,0.5-0.2c0.5-0.2,1-0.4,1.5-0.6c0.8-0.2,1.7-0.4,2.6-0.4c1.2-0.1,2.4,0.1,3.5,0.5
		c2.6,0.9,4.9,3.5,6.1,7c0.6,1.9,0.6,3.9,0,5.7c-0.6,2-1.7,3.9-3.2,5.4l0.1-0.3c1.3,3.7,2.8,7.6,4.3,11.7l0.1,0.2l-0.2,0.1l-2.3,0.8
		l-5,1.7l-0.2,0.1l-0.1-0.2c-1.4-4.1-2.9-8-4-11.8l0.2,0.2c-2-0.2-3.8-0.9-5.4-2.1c-1.4-1.1-2.5-2.4-3.4-4c-0.7-1.4-1.1-2.9-1.1-4.5
		c0.1-3.2,1.6-6.3,4.2-8.3C348.5,89.2,349.1,88.8,349.8,88.6c-0.6,0.3-1.2,0.7-1.7,1.1c-1.4,1.2-2.5,2.7-3.1,4.4
		c-1.1,2.6-1,5.6,0.3,8.1c0.8,1.5,1.9,2.8,3.3,3.8c1.5,1.2,3.2,1.8,5.1,2h0.2l0,0.2c1.1,3.7,2.6,7.6,4,11.8l-0.3-0.2l5-1.7l2.3-0.8
		l-0.2,0.3c-1.5-4.1-2.9-8.1-4.2-11.8v-0.2l0.1-0.1c1.5-1.4,2.5-3.2,3.2-5.2c0.5-1.8,0.5-3.7,0-5.5c-1.1-3.4-3.3-5.9-5.8-6.8
		c-1.1-0.4-2.2-0.6-3.4-0.6c-0.9,0-1.7,0.1-2.6,0.3C350.5,88.3,349.8,88.6,349.8,88.6z"/>
</g>
<g id="freepik--Device--inject-4">
	<path class="st6" d="M318.9,377.3l-99.9-0.5c-12-0.1-21.7-9.8-21.6-21.9l1.1-250.4c0-12,9.8-21.7,21.8-21.7c0,0,0,0,0,0l99.9,0.5
		c12,0.1,21.7,9.8,21.7,21.8l-1.1,250.4C340.7,367.7,330.9,377.4,318.9,377.3C318.9,377.3,318.9,377.3,318.9,377.3z"/>
	<path class="st2" d="M320,92h-19.4c-2.7,0-4.8,2.2-4.7,4.9c0,0,0,0,0,0v3.5c0.1,2.7-2.1,4.8-4.7,4.9c0,0,0,0,0,0l-37.7-0.2
		c-2.7-0.1-4.8-2.3-4.7-4.9v-3.5c0.1-2.7-2-4.9-4.7-4.9h-6.8l-16.9-0.1c-8.4,0-15.2,6.7-15.3,15.1l-1,244.4
		c0,8.4,6.7,15.3,15.2,15.3c0,0,0,0,0,0l99.7,0.5c8.4,0,15.3-6.8,15.3-15.2c0,0,0,0,0,0l1-244.4C335.2,98.9,328.4,92.1,320,92z"/>
	<path class="st5" d="M306.6,334.3l-74.1-0.3c-0.8,0-1.4-0.8-1.4-1.9l0.1-19.4c0-1,0.6-1.9,1.4-1.9l74.1,0.3c0.9,0.2,1.5,1,1.4,1.9
		l-0.1,19.4C308,333.5,307.4,334.3,306.6,334.3z"/>
	<text transform="matrix(0.96 0 0 1 247.5898 324.9502)" class="st7 st8 st9">S’INSCRIRE</text>
	
		<rect x="232" y="153.3" transform="matrix(4.537840e-03 -1 1 4.537840e-03 67.1698 399.779)" class="st5" width="4.7" height="25.7"/>
	
		<rect x="232" y="153.3" transform="matrix(4.537840e-03 -1 1 4.537840e-03 67.1698 399.779)" class="st10" width="4.7" height="25.7"/>
	<path class="st0" d="M322.6,192.8c0.2,0,0.4-0.1,0.6-0.1c0.6-0.2,1-0.7,1-1.4c0-1.6,0-3.9,0-6.9c0-1.5,0-3.2,0-5c0-0.4,0-0.9,0-1.4
		c0.1-0.5,0-0.9-0.3-1.3c-0.3-0.4-0.7-0.6-1.2-0.6h-1.6h-14.5l-83.6-0.3c-0.4,0-0.8,0.2-1.1,0.6c-0.2,0.4-0.3,0.9-0.3,1.3
		c0,1,0,2,0,3c0,2,0,4,0,6c0,1,0,2,0,3c0,0.5,0,0.9,0,1.4c0.1,0.4,0.4,0.7,0.8,0.9c0.2,0.1,0.4,0.1,0.6,0.1h5.1l22.2,0.1l37.6,0.2
		l25.4,0.2l6.9,0.1h1.8c0.4,0,0.6,0,0.6,0h-0.6h-1.8h-6.9h-25.4l-37.6-0.1l-22.2-0.1h-5.1c-0.3,0-0.6,0-0.8-0.1
		c-0.5-0.2-0.9-0.7-1.1-1.2c-0.1-0.3-0.1-0.5-0.1-0.8v-0.7c0-1,0-2,0-3c0-2,0-4,0-6c0-1,0-2,0-3c0-0.3,0-0.5,0-0.8
		c0-0.3,0.2-0.6,0.3-0.8c0.4-0.5,0.9-0.8,1.5-0.8l83.6,0.5l14.5,0.1h1.6c0.6,0,1.1,0.3,1.4,0.7c0.3,0.4,0.4,1,0.3,1.5
		c0,0.5,0,0.9,0,1.4c0,1.8,0,3.5,0,5c0,3-0.1,5.3-0.1,6.9c0,0.6-0.5,1.2-1,1.4C323.1,192.8,322.9,192.8,322.6,192.8z"/>
	<rect x="229.3" y="180.8" class="st5" width="47" height="4.4"/>
	<rect x="229.3" y="180.8" class="st11" width="47" height="4.4"/>
	
		<rect x="231.8" y="196.4" transform="matrix(4.537840e-03 -1 1 4.537840e-03 23.9369 442.4669)" class="st5" width="4.7" height="25.7"/>
	
		<rect x="231.8" y="196.4" transform="matrix(4.537840e-03 -1 1 4.537840e-03 23.9369 442.4669)" class="st10" width="4.7" height="25.7"/>
	<path class="st0" d="M322,235.9c0.2,0,0.4-0.1,0.6-0.1c0.6-0.2,1-0.6,1.3-1.1c0.2-0.4,0.2-0.8,0.2-1.3c0-0.5,0-1,0-1.6
		c0-1.2,0-2.5,0-4v-6.4c0-0.5-0.1-0.9-0.3-1.3c-0.2-0.4-0.6-0.7-1.1-0.9c-0.5-0.1-1-0.1-1.5-0.1h-14.4l-83.4-0.3
		c-0.9,0-1.7,0.7-1.8,1.6c0,0.9,0,2,0,3c0,2,0,4,0,6c0,1,0,2,0,3c0,0.5,0,0.9,0.1,1.4c0.1,0.4,0.4,0.8,0.7,1
		c0.4,0.2,0.8,0.3,1.2,0.3h1.4h2.9l22.1,0.1l37.5,0.2l25.3,0.2l6.9,0.1h1.8L322,235.9l-0.6-0.1h-1.8h-6.9h-25.3l-37.5,0l-22.1-0.1
		h-4.4c-0.5,0-1.1-0.1-1.5-0.4c-0.5-0.3-0.8-0.8-0.9-1.3c-0.1-0.5-0.1-1-0.1-1.5c0-1,0-2,0-3c0-2,0-4,0-6c0-1,0-2,0-3
		c0.2-1.2,1.2-2.1,2.4-2.1l83.3,0.5l14.4,0.1c0.5,0,1.1,0,1.6,0.1c0.5,0.2,1,0.5,1.2,1c0.3,0.4,0.4,1,0.3,1.5c0,0.5,0,0.9,0,1.4
		c0,1.8,0,3.5,0,5s0,2.8,0,4c0,0.6,0,1.1,0,1.6c0,0.4,0,0.9-0.2,1.3c-0.3,0.6-0.8,1-1.4,1.1C322.4,236,322.2,235.9,322,235.9z"/>
	
		<rect x="231.7" y="241.3" transform="matrix(4.537840e-03 -1 1 4.537840e-03 -21.1842 486.9979)" class="st5" width="4.7" height="25.7"/>
	
		<rect x="231.7" y="241.3" transform="matrix(4.537840e-03 -1 1 4.537840e-03 -21.1842 486.9979)" class="st10" width="4.7" height="25.7"/>
	<path class="st0" d="M321.8,280.8c0.2,0,0.4-0.1,0.6-0.1c0.6-0.2,1-0.6,1.3-1.1c0.2-0.4,0.2-0.8,0.2-1.3c0-0.5,0-1,0-1.6
		c0-1.1,0-2.5,0-4v-6.4c0-0.5-0.1-0.9-0.3-1.3c-0.3-0.4-0.6-0.7-1.1-0.8c-0.5-0.1-1-0.1-1.5-0.1h-14.4l-83.4-0.3
		c-0.9,0-1.7,0.7-1.8,1.6c0,1,0,2,0,3c0,2,0,4,0,6c0,1,0,2,0,3c0,0.5,0,0.9,0.1,1.4c0.1,0.4,0.4,0.8,0.7,1c0.4,0.2,0.8,0.4,1.2,0.3
		h4.4l22.1,0.1l37.5,0.2l25.3,0.2l6.9,0.1h1.8C321.7,280.7,321.9,280.7,321.8,280.8c0.1-0.1-0.1-0.1-0.5-0.1h-1.8h-6.9h-25.3
		l-37.5-0.1l-22.1-0.1h-4.4c-0.5,0-1.1-0.1-1.5-0.4c-0.5-0.3-0.8-0.8-0.9-1.3c-0.1-0.5-0.1-1-0.1-1.5c0-1,0-2,0-3c0-2,0-4,0-6
		c0-1,0-2,0-3c0.1-1.2,1.1-2.1,2.3-2.1l83.3,0.5l14.4,0.1c0.5,0,1.1,0,1.6,0.1c0.5,0.2,1,0.5,1.2,1c0.3,0.4,0.4,1,0.3,1.5
		c0,0.5,0,0.9,0,1.4c0,1.8,0,3.5,0,5s0,2.8,0,4c0,0.6,0,1.1,0,1.6c0,0.4,0,0.9-0.2,1.3c-0.3,0.6-0.8,1-1.4,1.1
		C322.3,280.8,322,280.8,321.8,280.8z"/>
	
		<rect x="249.6" y="203.7" transform="matrix(4.537840e-03 -1 1 4.537840e-03 23.3709 477.9873)" class="st5" width="4.4" height="47"/>
	
		<rect x="249.6" y="203.7" transform="matrix(4.537840e-03 -1 1 4.537840e-03 23.3709 477.9873)" class="st11" width="4.4" height="47"/>
	<path class="st5" d="M232.5,272.6c-0.1,1.1-1.1,2-2.2,1.9c-1.1-0.1-2-1.1-1.9-2.2c0.1-1.1,1-1.9,2.1-1.9
		C231.7,270.5,232.6,271.5,232.5,272.6z"/>
	<path class="st5" d="M238.9,272.7c0.1,1.1-0.8,2.1-1.9,2.2c-1.1,0.1-2.1-0.8-2.2-1.9c0-0.1,0-0.2,0-0.3c-0.1-1.1,0.8-2.1,1.9-2.2
		c1.1-0.1,2.1,0.8,2.2,1.9C238.9,272.5,238.9,272.6,238.9,272.7z"/>
	<path class="st5" d="M245.3,272.7c-0.1,1.1-1.1,2-2.2,1.9c-1.1-0.1-2-1.1-1.9-2.2c0.1-1.1,1-1.9,2.1-1.9
		C244.4,270.6,245.3,271.5,245.3,272.7z"/>
	<path class="st5" d="M251.6,272.7c-0.1,1.1-1.1,2-2.2,1.9c-1.1-0.1-2-1.1-1.9-2.2c0.1-1.1,1-1.9,2.1-1.9
		C250.8,270.6,251.7,271.6,251.6,272.7z"/>
	<path class="st5" d="M258,272.8c-0.1,1.1-1.1,2-2.2,1.9c-1.1-0.1-2-1.1-1.9-2.2c0.1-1.1,1-1.9,2.1-1.9
		C257.2,270.6,258,271.6,258,272.8z"/>
	<path class="st5" d="M264.4,272.8c-0.1,1.1-1.1,2-2.2,1.9s-2-1.1-1.9-2.2c0.1-1.1,1-1.9,2.1-1.9
		C263.5,270.6,264.4,271.6,264.4,272.8z"/>
	<path class="st5" d="M270.8,272.8c0.1,1.1-0.8,2.1-1.9,2.2c-1.1,0.1-2.1-0.8-2.2-1.9c0-0.1,0-0.2,0-0.3c-0.1-1.1,0.8-2.1,1.9-2.2
		c1.1-0.1,2.1,0.8,2.2,1.9C270.8,272.6,270.8,272.7,270.8,272.8z"/>
	<path class="st5" d="M277.1,272.8c-0.1,1.1-1.1,2-2.2,1.9s-2-1.1-1.9-2.2c0.1-1.1,1-1.9,2.1-1.9
		C276.2,270.7,277.2,271.7,277.1,272.8z"/>
	<path class="st5" d="M283.5,272.9c-0.1,1.1-1.1,2-2.2,1.9c-1.1-0.1-2-1.1-1.9-2.2c0.1-1.1,1-1.9,2.1-1.9
		C282.6,270.7,283.5,271.7,283.5,272.9z"/>
	<g class="st12">
		<path class="st2" d="M232.5,272.6c-0.1,1.1-1.1,2-2.2,1.9c-1.1-0.1-2-1.1-1.9-2.2c0.1-1.1,1-1.9,2.1-1.9
			C231.7,270.5,232.6,271.5,232.5,272.6z"/>
		<path class="st2" d="M238.9,272.7c0.1,1.1-0.8,2.1-1.9,2.2c-1.1,0.1-2.1-0.8-2.2-1.9c0-0.1,0-0.2,0-0.3c-0.1-1.1,0.8-2.1,1.9-2.2
			c1.1-0.1,2.1,0.8,2.2,1.9C238.9,272.5,238.9,272.6,238.9,272.7z"/>
		<path class="st2" d="M245.3,272.7c-0.1,1.1-1.1,2-2.2,1.9c-1.1-0.1-2-1.1-1.9-2.2c0.1-1.1,1-1.9,2.1-1.9
			C244.4,270.6,245.3,271.5,245.3,272.7z"/>
		<path class="st2" d="M251.6,272.7c-0.1,1.1-1.1,2-2.2,1.9c-1.1-0.1-2-1.1-1.9-2.2c0.1-1.1,1-1.9,2.1-1.9
			C250.8,270.6,251.7,271.6,251.6,272.7z"/>
		<path class="st2" d="M258,272.8c-0.1,1.1-1.1,2-2.2,1.9c-1.1-0.1-2-1.1-1.9-2.2c0.1-1.1,1-1.9,2.1-1.9
			C257.2,270.6,258,271.6,258,272.8z"/>
		<path class="st2" d="M264.4,272.8c-0.1,1.1-1.1,2-2.2,1.9s-2-1.1-1.9-2.2c0.1-1.1,1-1.9,2.1-1.9
			C263.5,270.6,264.4,271.6,264.4,272.8z"/>
		<path class="st2" d="M270.8,272.8c0.1,1.1-0.8,2.1-1.9,2.2c-1.1,0.1-2.1-0.8-2.2-1.9c0-0.1,0-0.2,0-0.3c-0.1-1.1,0.8-2.1,1.9-2.2
			c1.1-0.1,2.1,0.8,2.2,1.9C270.8,272.6,270.8,272.7,270.8,272.8z"/>
		<path class="st2" d="M277.1,272.8c-0.1,1.1-1.1,2-2.2,1.9s-2-1.1-1.9-2.2c0.1-1.1,1-1.9,2.1-1.9
			C276.2,270.7,277.2,271.7,277.1,272.8z"/>
		<path class="st2" d="M283.5,272.9c-0.1,1.1-1.1,2-2.2,1.9c-1.1-0.1-2-1.1-1.9-2.2c0.1-1.1,1-1.9,2.1-1.9
			C282.6,270.7,283.5,271.7,283.5,272.9z"/>
	</g>
	<path class="st5" d="M274.4,128.5c1.4-0.6,2.3-2,2.3-3.6c0.1-2-1.4-3.7-3.4-3.8c-2-0.1-3.7,1.4-3.8,3.4c0,0.1,0,0.3,0,0.4
		c0,1.6,0.9,3,2.3,3.6c-5.6,0.8-5.4,6.9-5.4,6.9l13.2,0.1C279.7,135.5,280,129.3,274.4,128.5z"/>
	<path class="st10" d="M274.4,128.5c1.4-0.6,2.3-2,2.3-3.6c0.1-2-1.4-3.7-3.4-3.8c-2-0.1-3.7,1.4-3.8,3.4c0,0.1,0,0.3,0,0.4
		c0,1.6,0.9,3,2.3,3.6c-5.6,0.8-5.4,6.9-5.4,6.9l13.2,0.1C279.7,135.5,280,129.3,274.4,128.5z"/>
	
		<rect x="269.5" y="118.6" transform="matrix(4.537840e-03 -1 1 4.537840e-03 128.9482 413.8634)" class="st5" width="5.6" height="47.2"/>
	
		<rect x="269.5" y="118.6" transform="matrix(4.537840e-03 -1 1 4.537840e-03 128.9482 413.8634)" class="st11" width="5.6" height="47.2"/>
</g>
<g id="freepik--Character--inject-4">
	<path class="st5" d="M171.1,448.3v-8.5l-15.3-0.1l-0.1,12.9l0.9,0.1c4.2,0.3,21.5,0.7,24.4-0.2
		C184.2,451.5,171.1,448.3,171.1,448.3z"/>
	<path class="st4" d="M181.4,451.7c0,0.1-5.7,0.3-12.8,0.3s-12.8-0.1-12.8-0.3s5.7-0.3,12.8-0.3S181.4,451.5,181.4,451.7z"/>
	<path class="st4" d="M171.4,450.1c-0.1-0.1,0-0.5,0.3-1s0.7-0.7,0.8-0.6s-0.1,0.5-0.4,0.9S171.6,450.2,171.4,450.1z"/>
	<path class="st4" d="M172.4,450.6c-0.1,0-0.1-0.6,0.2-1.1s0.7-0.9,0.8-0.8s-0.1,0.5-0.4,1S172.5,450.7,172.4,450.6z"/>
	<path class="st4" d="M160.4,451.6c-0.1,0-0.3-0.2-0.6-0.6c-0.4-0.5-0.9-0.9-1.3-1.3c-0.5-0.4-1.1-0.6-1.7-0.7
		c-0.5-0.1-0.8,0-0.8-0.1s0.3-0.3,0.8-0.3c0.7,0,1.4,0.2,2,0.7c0.5,0.4,1,1,1.3,1.5C160.3,451.3,160.4,451.6,160.4,451.6z"/>
	<path class="st4" d="M171.5,448.5c0.1,0.1-0.2,0.4-0.6,0.6s-0.8,0.1-0.9,0s0.3-0.3,0.7-0.5S171.4,448.4,171.5,448.5z"/>
	<path class="st4" d="M171.2,447.6c0,0.1-0.4,0.3-0.9,0.3s-0.9-0.1-0.9-0.2s0.4-0.3,0.9-0.3S171.2,447.5,171.2,447.6z"/>
	<path class="st5" d="M208.9,448.3v-8.5l-15.3-0.1l-0.1,12.8l0.9,0.1c4.2,0.3,21.5,0.8,24.4-0.1
		C221.9,451.5,208.9,448.3,208.9,448.3z"/>
	<path class="st4" d="M219.1,451.7c0,0.1-5.7,0.3-12.8,0.3s-12.8-0.1-12.8-0.3s5.7-0.3,12.8-0.3S219.1,451.5,219.1,451.7z"/>
	<path class="st4" d="M209.2,450.1c-0.1-0.1,0-0.5,0.3-1s0.7-0.7,0.8-0.6s-0.1,0.5-0.4,0.9S209.3,450.2,209.2,450.1z"/>
	<path class="st4" d="M210.1,450.6c-0.1,0-0.1-0.6,0.2-1.1s0.7-0.9,0.8-0.8s-0.1,0.5-0.4,1S210.3,450.7,210.1,450.6z"/>
	<path class="st4" d="M198.1,451.6c-0.1,0-0.3-0.2-0.6-0.6c-0.4-0.5-0.9-0.9-1.3-1.3c-0.5-0.4-1.1-0.6-1.7-0.7
		c-0.5-0.1-0.8,0-0.8-0.1s0.3-0.3,0.8-0.3c0.7,0,1.4,0.2,2,0.7c0.5,0.4,1,1,1.3,1.5C198.1,451.3,198.2,451.6,198.1,451.6z"/>
	<path class="st4" d="M209.2,448.5c0.1,0.1-0.2,0.4-0.6,0.6s-0.8,0.1-0.9,0s0.3-0.3,0.7-0.5S209.1,448.4,209.2,448.5z"/>
	<path class="st4" d="M209,447.6c0,0.1-0.4,0.3-0.9,0.3s-0.9-0.1-0.9-0.2s0.4-0.3,0.9-0.3S209,447.5,209,447.6z"/>
	<path class="st13" d="M265.4,194.4c-0.4-0.4-1.4-0.2-1.4-0.2c0.1-0.6,0.1-1.2,0-1.7c-0.2-0.6-1.4-0.4-1.4-0.4
		c-0.1-0.5-0.1-0.9,0-1.4c0-0.2-0.1-0.4-0.3-0.5c-0.6-0.2-1.2-0.4-1.9-0.3c-0.8-0.6,2.4-4.9,3.5-6.3s1-2.5-0.1-2.5
		c-0.7,0-4.4,4.2-5.5,5.6s-4.1,5.3-4.2,2.2s-1.4-5.5-2.1-5.9s-1.6,0.5-1.2,1.4c0.4,1,0.6,2,0.7,3.1c0.1,0.8,0.1,1.7-0.1,2.5
		c-0.3,1.5-0.8,3.1-1.4,4.5H250c0,0-21.8,20.9-23.4,22.4c-1.4,1.3-29.8-1.6-35.5-2.2c-1.9-0.3-3.9-0.4-5.8-0.4
		c-2.5,0.1-2.9,0.5-5.4,0.5c-6.2,0.1-12.4,0.6-18.5,1.6c-5.7,1-10.3,5-12.1,10.5c-5.7,17.9-18.7,60.3-21,84.1
		c-1.7,3.1-3.3,6.4-4.7,9.7c-1.6,4.4-1.2,4.5-0.7,4.6c1.5,0.3,3.1-7.6,3.7-5.7s-3.2,9.4-1.6,9.6c2,0.3,3.6-8,3.8-8.7s1.2-0.5,1,0.2
		c-0.3,0.9-3.1,10.2-1.1,10.5c1.1,0.2,1.2-1.8,1.2-1.8s2-8.9,2.9-8.8s-0.1,5.5-0.5,7.2s0.2,2.6,1.1,2.2c0.6-0.3,2.2-5.6,2.6-7.4
		s1.5-6.6,2.9-3.8s3.6,4.4,4.4,4.5c0.5-0.1,0.9-0.6,0.9-1.1c0-0.3-0.2-0.5-0.4-0.7c-0.8-0.7-1.4-1.6-1.9-2.5c-0.5-0.7-0.8-1.5-1-2.3
		c-0.4-1.7-0.6-3.4-0.7-5.1l-0.2-1c2.2-11.1,8.7-43.6,18-64.4l3.8,7.9l1.7,5.8L153.3,285l43.4-0.6l-6.5-24.9l7.9-26l0,0
		c8.5,0.2,30.4,0.5,34-1.1c4.6-2,28.3-31.9,28.3-31.9l0,0c1.5-1.2,3-2.5,4.4-3.8C264.8,196.6,266.2,195.3,265.4,194.4z"/>
	<path class="st5" d="M151.4,266.4c1.3-4.3,7.7-25.6,7.7-25.6s3.2,17.3,2.3,19.4c-0.8,1.8-1.7,3.5-2.7,5.2
		c-7.3,11.2-6.4,16.8-6.4,16.8l44.3-1.4c0.1-6.2-3.6-20.6-4.3-22.9s1.8-9.8,1.8-9.8s5-5.1,4.8-7.7c-0.1-2.4-0.4-4.7-0.9-7l27,1
		l-0.9-18.3l-38.8-3.9c-1.4,3.8-13.6,1.9-13.6,1.9c-13.2,0.4-14,2.9-19.5,7.1s-14.6,40.8-14.6,40.8L151.4,266.4z"/>
	<path class="st4" d="M177.6,262.1c-0.8,0.1-1.6,0.2-2.3,0.1c-1.4,0-3.4-0.1-5.6-0.3s-4.2-0.5-5.6-0.8c-0.8-0.1-1.5-0.3-2.3-0.6
		c0.8,0,1.6,0.1,2.3,0.2c1.4,0.2,3.4,0.4,5.6,0.6s4.2,0.4,5.6,0.5C176.1,261.8,176.8,261.9,177.6,262.1z"/>
	<path class="st4" d="M180.6,258.3c-0.8,0.4-1.6,0.7-2.4,0.8c-4,1-8.1,1.5-12.2,1.5c-0.9,0-1.7-0.1-2.5-0.2c0.8-0.1,1.7-0.1,2.5-0.1
		c1.6,0,3.7-0.2,6.1-0.4s4.5-0.7,6-1C178.9,258.5,179.8,258.4,180.6,258.3z"/>
	<path class="st4" d="M195.6,241.5c0,0.8-0.1,1.5-0.3,2.3c-0.3,1.4-0.7,3.3-1.2,5.4s-1,4-1.4,5.3c-0.2,0.7-0.4,1.5-0.8,2.1
		c0.1-0.8,0.2-1.5,0.4-2.2c0.4-1.6,0.8-3.4,1.3-5.3s0.9-3.8,1.3-5.3C195,242.9,195.3,242.2,195.6,241.5z"/>
	<path class="st4" d="M151.9,263.8c-2.3-0.4-4.6-0.9-6.8-1.6c-2.3-0.5-4.5-1.2-6.7-2.1c2.3,0.4,4.6,0.9,6.8,1.6
		C147.4,262.3,149.7,263,151.9,263.8z"/>
	<path class="st4" d="M198.6,233.1c-0.4,0.1-0.8,0.1-1.1,0c-1-0.1-2.1-0.4-3.1-0.7c-3.3-1.2-5.9-3.8-7.2-7.1c-0.7-1.8-1-3.7-0.9-5.6
		c0-1.6,0.5-3.1,1.4-4.5c0.6-0.9,1.5-1.6,2.5-1.9c0.3-0.1,0.6-0.1,0.9-0.1c0.2,0,0.3,0,0.3,0s-0.4,0-1.1,0.3c-1,0.4-1.8,1-2.3,1.9
		c-1.4,2.1-1.7,6.1-0.3,9.7c0.7,1.7,1.7,3.3,3.1,4.5c1.1,1,2.4,1.9,3.8,2.4C195.8,232.5,197.2,232.9,198.6,233.1z"/>
	<path class="st4" d="M221.9,234c-0.3-3.1-0.3-6.1-0.2-9.2c-0.1-3.1,0-6.1,0.3-9.2c0.3,3.1,0.3,6.1,0.2,9.2
		C222.2,227.9,222.2,230.9,221.9,234z"/>
	<path class="st13" d="M185.2,213.3c0.1-2.2,0.3-4.8,0.3-4.8s5.5-0.6,5.9-6.3s0-18.9,0-18.9l-10-5.1l-11.1,8.7l1.7,28.5l10.2,0.6
		C183.8,216.2,185.2,214.9,185.2,213.3z"/>
	<path class="st14" d="M186.2,197.7c0,0,0,0.1-0.1,0.2c-0.2,0.2-0.4,0.3-0.6,0.3c-0.6,0-1.3-0.7-1.5-1.6c-0.1-0.4-0.1-0.9,0-1.3
		c0-0.4,0.3-0.7,0.6-0.9c0.1-0.1,0.3-0.1,0.4,0c0.1,0,0.2,0.1,0.2,0.2c0.1,0.2,0,0.3,0,0.3s0-0.1-0.1-0.2c-0.1-0.1-0.3-0.2-0.5-0.1
		c-0.2,0.2-0.4,0.4-0.4,0.7c-0.1,0.4-0.1,0.8,0,1.1c0.2,0.8,0.7,1.4,1.2,1.5c0.2,0,0.4,0,0.5-0.1
		C186.1,197.8,186.2,197.7,186.2,197.7z"/>
	<path class="st4" d="M194.8,180.3c-0.8-2.6-3.6-3.9-6.1-4.6c-3.9-1.1-8.1-1.6-11.8-0.2s-8.3,3.8-8.3,8c-2.2-0.2-3.5,1.8-4.4,4.2
		c-0.6,1.5-0.9,3-1,4.6l0,0c-0.3,5.5-1.8,13-5.4,17c-2,2.2-4.8,3.8-5.9,6.6c-1,2.4-0.5,5.3-1.4,7.7c-0.8,2.1-2.7,3.7-4,5.6
		c-2.8,4.3-3.1,9.8-0.9,14.4c2.2,4.5,6.1,7.9,10.9,9.4c4.7,1.4,9.7,1.5,14.4,0.1c3.5-0.8,6.8-2.5,9.6-4.8c2.9-2.3,4.8-5.6,5.6-9.2
		c0.7-4.1-0.4-8.2-1.3-12.3c-2.7-12.8-1.9-13.5,1.5-25.4c0.1-0.2,0.1-0.4,0.2-0.6s0.1-0.3,0.1-0.5l0,0c0.1-0.5,0.1-0.9,0.1-1.4
		c-1,0.4-2.1,0.1-2.9-0.6c-0.8-0.8-1-2-0.7-3c0.5-1.1,1.4-2,2.6-2.4c1.1-0.5,2.3-0.7,3.4-1.2c2.3-1.1,3.9-3.4,5-5.8
		C194.9,184.1,195.2,182.2,194.8,180.3z"/>
	<path class="st5" d="M186.6,198c0.2,0.3,0.4,0.6,0.5,1c0.3,0.6,0.7,1.5,1.1,2.6l0.1,0.2h-0.2l-1,0.1c-0.7,0-1.3,0.1-1.9,0.1
		c-0.1,0-0.2-0.1-0.3-0.2c0-0.1,0-0.2,0-0.3c0-0.1,0.1-0.3,0.1-0.4l0.2-0.7c0.1-0.5,0.2-0.9,0.4-1.4c0,0.5-0.1,1-0.2,1.4l-0.1,0.7
		c-0.1,0.2-0.1,0.6,0,0.6c0.5,0,1.2-0.1,1.9-0.1l1-0.1l-0.1,0.2c-0.4-1-0.8-1.9-1-2.6C186.8,198.7,186.7,198.4,186.6,198z"/>
	<path class="st4" d="M152.4,282.2l44.4-1.4l19.3,75.3l-3.6,86.4H189l2.9-84.6l-17.1-52.5l2.6,140.4l-23.7,0.4l-2.5-131.9
		c-0.1-3.7-1.3-11.9-0.9-15.6L152.4,282.2z"/>
	<path class="st6" d="M180.6,306.6c-0.7,0-1.5,0-2.2-0.1c-1.3-0.2-3.2-0.4-5.2-0.8s-3.8-0.9-5.1-1.2c-0.7-0.2-1.4-0.4-2-0.7
		c0-0.1,3.3,0.6,7.3,1.4S180.6,306.5,180.6,306.6z"/>
	<path class="st6" d="M212.2,437.8c0,0.1-5.3,0.3-11.9,0.3s-11.9-0.1-11.9-0.3s5.3-0.3,11.9-0.3S212.2,437.7,212.2,437.8z"/>
	<path class="st6" d="M177.1,442.3c0,0.1-5.2,0.3-11.5,0.3s-11.5-0.1-11.5-0.3s5.2-0.3,11.5-0.3S177.1,442.1,177.1,442.3z"/>
	<path class="st6" d="M174.1,441.9c-0.1,0-0.8-30.7-1.4-68.5s-1-68.5-0.9-68.5s0.8,30.7,1.4,68.5S174.2,441.9,174.1,441.9z"/>
	<path class="st6" d="M209.1,437.8c0-0.1,0-0.3,0-0.4v-1.2c0-1.1,0.1-2.6,0.1-4.6c0.1-4,0.3-9.8,0.6-16.9
		c0.5-14.3,1.3-34.1,2.1-55.9c0-0.2,0-0.4,0-0.6v0.1c-5.2-21-10-40.1-13.4-53.9l-4-16.3c-0.5-1.9-0.8-3.4-1.1-4.4
		c-0.1-0.5-0.2-0.9-0.3-1.2c0-0.1-0.1-0.3-0.1-0.4c0.1,0.1,0.1,0.3,0.1,0.4c0.1,0.3,0.2,0.7,0.3,1.1c0.3,1,0.7,2.5,1.2,4.4
		c1,3.9,2.4,9.4,4.2,16.3c3.5,13.8,8.3,32.8,13.6,53.8v0.1c0,0.2,0,0.4,0,0.6c-0.9,21.8-1.7,41.5-2.3,55.8
		c-0.3,7.1-0.6,12.9-0.8,16.9c-0.1,2-0.2,3.5-0.2,4.6c0,0.5-0.1,0.9-0.1,1.2C209.1,437.6,209.1,437.7,209.1,437.8z"/>
	<path class="st6" d="M201.4,356.5c-1.7,0.6-3.4,0.9-5.2,1.1c-2.2,0.4-4,0.6-4.8,0.7v-0.2c0.3,0.1,0.4,0.1,0.4,0.2s-0.2,0-0.4,0
		h-0.6l0.6-0.2c0.8-0.2,2.6-0.6,4.8-1C197.9,356.7,199.6,356.5,201.4,356.5z"/>
	<path class="st6" d="M201,359.4c-1.6,0.1-3.1,0-4.7-0.2c-1.6,0-3.1-0.2-4.6-0.5C194.8,358.4,198,358.6,201,359.4z"/>
	<path class="st15" d="M152.2,283.8c1.1,1.4,2.7,2.2,4.4,2.3c1.8,0.2,3.6,0.2,5.4-0.1c11.4-1.3,23.6-2.4,34.8-5.2
		c-14.5,0.8-29.8,0.5-44.4,1.4l-0.1,1.2"/>
	<g class="st12">
		<polygon points="167.1,304.2 175.3,336 174.7,305.5 		"/>
	</g>
</g>
</svg>
